if (_typeface_js && _typeface_js.loadFace) _typeface_js.loadFace({"glyphs":{"Á":{"x_min":16.953125,"x_max":1042.421875,"ha":1059,"o":"m 201 0 l 16 0 l 428 969 l 621 969 l 1042 0 l 849 0 l 738 264 l 416 264 l 478 420 l 673 420 l 520 784 l 201 0 m 522 1227 l 739 1227 l 577 1051 l 425 1051 l 522 1227 "},"ĥ":{"x_min":8.828125,"x_max":733.15625,"ha":817,"o":"m 85 0 l 85 969 l 265 969 l 265 621 q 480 712 349 712 q 733 448 733 712 l 733 0 l 553 0 l 553 448 q 436 567 553 567 q 265 497 348 567 l 265 0 l 85 0 m 127 1244 l 229 1244 l 347 1068 l 225 1068 l 178 1156 l 130 1068 l 8 1068 l 127 1244 "},"Κ":{"x_min":101.734375,"x_max":1007.15625,"ha":973,"o":"m 281 969 l 281 0 l 101 0 l 101 969 l 281 969 m 963 969 l 550 517 l 1007 0 l 758 0 l 383 453 l 383 569 l 744 969 l 963 969 "},"»":{"x_min":33.90625,"x_max":697.890625,"ha":732,"o":"m 218 101 l 33 101 l 208 356 l 33 610 l 218 610 l 393 356 l 218 101 m 522 101 l 338 101 l 513 356 l 338 610 l 522 610 l 697 356 l 522 101 "},"∆":{"x_min":16.953125,"x_max":1042.421875,"ha":1059,"o":"m 265 155 l 784 155 l 520 784 l 265 155 m 16 0 l 428 969 l 621 969 l 1042 0 l 16 0 "},"ţ":{"x_min":50.859375,"x_max":423.890625,"ha":461,"o":"m 84 827 l 217 827 l 244 712 l 423 712 l 423 569 l 264 569 l 264 242 q 350 142 264 142 l 423 142 l 423 0 l 263 0 q 84 191 84 0 l 84 827 m 332 -67 l 230 -257 l 50 -257 l 152 -67 l 332 -67 "},"«":{"x_min":33.90625,"x_max":697.890625,"ha":732,"o":"m 338 356 l 513 610 l 697 610 l 522 356 l 697 101 l 513 101 l 338 356 m 33 356 l 208 610 l 393 610 l 218 356 l 393 101 l 208 101 l 33 356 "},"":{"x_min":84.78125,"x_max":1154.328125,"ha":1239,"o":"m 536 712 l 536 746 q 856 1018 536 1018 q 1086 971 971 1018 l 1086 828 q 869 876 982 876 q 716 752 716 876 l 716 712 l 1154 712 l 1154 0 l 974 0 l 974 569 l 716 569 l 716 0 l 536 0 l 536 569 l 264 569 l 264 0 l 84 0 l 84 746 q 370 1005 84 1005 q 485 984 431 1005 l 485 842 q 377 862 442 862 q 264 752 264 862 l 264 712 l 536 712 "},"í":{"x_min":69.859375,"x_max":383.875,"ha":349,"o":"m 264 712 l 264 0 l 84 0 l 84 712 l 264 712 m 167 969 l 383 969 l 221 794 l 69 794 l 167 969 "},"ņ":{"x_min":84.78125,"x_max":732.484375,"ha":817,"o":"m 84 0 l 84 712 l 223 712 l 246 607 q 479 712 348 712 q 732 448 732 712 l 732 0 l 552 0 l 552 448 q 435 567 552 567 q 264 497 347 567 l 264 0 l 84 0 m 529 -67 l 427 -257 l 247 -257 l 349 -67 l 529 -67 "},"":{"x_min":84.78125,"x_max":1211.3125,"ha":1296,"o":"m 543 864 q 431 876 489 876 q 264 752 264 876 l 264 712 l 423 712 l 423 569 l 264 569 l 264 0 l 84 0 l 84 746 q 438 1018 84 1018 q 722 971 573 1018 l 722 621 q 937 712 807 712 q 1211 446 1211 712 l 1211 0 l 1031 0 l 1031 448 q 900 567 1031 567 q 722 476 806 567 l 722 0 l 543 0 l 543 864 "},"µ":{"x_min":84.78125,"x_max":752.828125,"ha":838,"o":"m 752 712 l 752 0 l 612 0 l 590 90 q 391 0 488 0 q 264 40 296 0 l 264 -257 l 84 -257 l 84 712 l 264 712 l 264 303 q 394 145 264 145 q 573 235 502 145 l 573 712 l 752 712 "},"Ι":{"x_min":101.734375,"x_max":281.46875,"ha":383,"o":"m 281 969 l 281 0 l 101 0 l 101 969 l 281 969 "},"Ύ":{"x_min":-33.90625,"x_max":1205.875,"ha":1162,"o":"m 63 969 l 280 969 l 118 794 l -33 794 l 63 969 m 297 969 l 490 969 l 763 502 l 1019 969 l 1205 969 l 849 339 l 849 0 l 669 0 l 669 339 l 297 969 "},"Ш":{"x_min":101.734375,"x_max":1251.328125,"ha":1353,"o":"m 101 0 l 101 969 l 281 969 l 281 155 l 586 155 l 586 969 l 766 969 l 766 155 l 1071 155 l 1071 969 l 1251 969 l 1251 0 l 101 0 "},"M":{"x_min":101.734375,"x_max":1119.0625,"ha":1221,"o":"m 101 0 l 101 969 l 288 969 l 617 233 l 939 969 l 1119 969 l 1119 0 l 952 0 l 952 675 l 689 0 l 536 0 l 267 675 l 267 0 l 101 0 "},"Ψ":{"x_min":67.828125,"x_max":1051.25,"ha":1119,"o":"m 470 419 l 470 969 l 649 969 l 649 419 q 871 670 871 453 l 871 969 l 1051 969 l 1051 670 q 649 261 1051 297 l 649 0 l 470 0 l 470 261 q 67 670 67 297 l 67 969 l 247 969 l 247 670 q 470 419 247 453 "},"":{"x_min":84.78125,"x_max":818.609375,"ha":785,"o":"m 807 712 l 502 390 l 818 0 l 590 0 l 329 342 l 329 412 l 592 712 l 807 712 m 84 0 l 84 969 l 264 969 l 264 0 l 84 0 m 512 -67 l 411 -257 l 231 -257 l 333 -67 l 512 -67 "},"ũ":{"x_min":84.78125,"x_max":725.703125,"ha":810,"o":"m 725 712 l 725 0 l 585 0 l 563 90 q 303 0 440 0 q 84 258 84 0 l 84 712 l 264 712 l 264 263 q 367 145 264 145 q 545 215 455 145 l 545 712 l 725 712 m 236 938 q 324 969 276 969 q 398 952 359 969 q 476 934 438 934 q 575 965 526 934 l 575 823 q 486 792 534 792 q 412 809 451 792 q 335 827 373 827 q 236 796 284 827 l 236 938 "},"ŭ":{"x_min":84.78125,"x_max":725.703125,"ha":810,"o":"m 725 712 l 725 0 l 585 0 l 563 90 q 303 0 440 0 q 84 258 84 0 l 84 712 l 264 712 l 264 263 q 367 145 264 145 q 545 215 455 145 l 545 712 l 725 712 m 205 969 l 324 969 q 405 874 324 874 q 486 969 486 874 l 605 969 q 405 773 605 773 q 205 969 205 773 "},"{":{"x_min":67.828125,"x_max":478.140625,"ha":512,"o":"m 478 969 q 389 645 389 850 q 220 356 389 406 q 389 66 389 305 q 478 -257 389 -138 l 298 -257 q 210 66 210 -138 q 67 278 210 278 l 67 434 q 210 645 210 434 q 298 969 210 850 l 478 969 "},"¼":{"x_min":67.828125,"x_max":914.921875,"ha":983,"o":"m 233 0 l 67 0 l 627 969 l 793 969 l 233 0 m 591 467 q 727 488 659 488 q 914 343 914 488 q 851 246 914 276 q 914 149 914 217 q 727 -2 914 -2 q 591 17 659 -2 l 591 139 q 727 115 659 115 q 784 149 784 115 q 752 193 784 193 l 641 193 l 641 298 l 752 298 q 784 343 784 298 q 727 370 784 370 q 591 345 659 370 l 591 467 m 119 481 l 119 828 l 67 828 l 67 892 l 249 967 l 249 481 l 119 481 "},"ι":{"x_min":101.734375,"x_max":281.46875,"ha":383,"o":"m 281 712 l 281 0 l 101 0 l 101 712 l 281 712 "},"Ĳ":{"x_min":101.734375,"x_max":783.359375,"ha":885,"o":"m 281 969 l 281 0 l 101 0 l 101 969 l 281 969 m 783 969 l 783 279 q 400 0 783 0 l 400 155 q 603 279 603 155 l 603 969 l 783 969 "},"Ê":{"x_min":101.734375,"x_max":775.203125,"ha":840,"o":"m 765 969 l 765 815 l 280 815 l 280 571 l 742 571 l 742 410 l 278 410 l 278 155 l 775 155 l 775 0 l 101 0 l 101 969 l 765 969 m 374 1227 l 476 1227 l 594 1051 l 472 1051 l 425 1139 l 377 1051 l 255 1051 l 374 1227 "},"Ά":{"x_min":16.953125,"x_max":1042.421875,"ha":1059,"o":"m 165 969 l 381 969 l 219 794 l 67 794 l 165 969 m 201 0 l 16 0 l 428 969 l 621 969 l 1042 0 l 849 0 l 738 264 l 416 264 l 478 420 l 673 420 l 520 784 l 201 0 "},")":{"x_min":50.859375,"x_max":366.234375,"ha":434,"o":"m 230 969 q 366 356 366 663 q 230 -257 366 48 l 50 -257 q 186 356 186 48 q 50 969 186 663 l 230 969 "},"ε":{"x_min":50.859375,"x_max":569.703125,"ha":621,"o":"m 569 535 q 352 576 467 576 q 237 507 237 576 q 376 440 237 440 l 508 440 l 508 298 l 374 298 q 230 217 230 298 q 352 135 230 135 q 569 176 467 135 l 569 27 q 352 -6 467 -6 q 50 196 50 -6 q 205 369 50 332 q 57 527 57 402 q 359 718 57 718 q 569 685 467 718 l 569 535 "},"э":{"x_min":23.734375,"x_max":600.234375,"ha":641,"o":"m 23 162 q 200 142 111 142 q 410 292 389 142 l 67 292 l 67 434 l 411 434 q 200 569 393 569 q 23 549 111 569 l 23 691 q 213 712 111 712 q 600 369 600 712 q 213 0 600 0 q 23 20 111 0 l 23 162 "},"ш":{"x_min":84.78125,"x_max":1098.71875,"ha":1184,"o":"m 84 0 l 84 712 l 264 712 l 264 142 l 501 142 l 501 712 l 681 712 l 681 142 l 918 142 l 918 712 l 1098 712 l 1098 0 l 84 0 "},"Я":{"x_min":16.953125,"x_max":830.828125,"ha":933,"o":"m 647 1 l 647 811 l 408 811 q 280 697 280 811 q 545 504 280 548 l 545 422 l 250 0 l 16 0 l 324 419 q 92 696 92 520 q 410 969 92 969 l 830 969 l 830 1 l 647 1 "},"a":{"x_min":50.859375,"x_max":685,"ha":770,"o":"m 50 221 q 360 434 50 434 q 505 420 432 434 l 505 474 q 367 569 505 569 q 108 535 250 569 l 108 678 q 367 712 250 712 q 685 477 685 712 l 685 0 l 580 0 l 516 63 q 311 0 423 0 q 50 221 50 0 m 505 298 q 360 311 437 311 q 230 223 230 311 q 339 128 230 128 q 505 184 428 128 l 505 298 "},"Ę":{"x_min":101.734375,"x_max":775.203125,"ha":840,"o":"m 581 0 l 101 0 l 101 969 l 765 969 l 765 815 l 280 815 l 280 571 l 742 571 l 742 410 l 278 410 l 278 155 l 775 155 l 775 0 q 613 -134 613 -65 q 671 -180 613 -180 q 764 -166 729 -180 l 764 -275 q 663 -288 722 -288 q 486 -151 486 -288 q 581 0 486 -62 "},"Z":{"x_min":84.78125,"x_max":803.6875,"ha":848,"o":"m 803 969 l 803 813 l 287 155 l 803 155 l 803 0 l 84 0 l 84 155 l 623 813 l 98 813 l 98 969 l 803 969 "},"k":{"x_min":84.78125,"x_max":800.984375,"ha":818,"o":"m 84 0 l 84 969 l 264 969 l 264 656 q 497 712 375 712 q 769 506 769 712 q 579 273 769 357 l 800 0 l 581 0 l 395 254 l 395 337 q 590 473 590 379 q 461 569 590 569 q 264 512 370 569 l 264 0 l 84 0 "},"Ù":{"x_min":101.734375,"x_max":935.953125,"ha":1038,"o":"m 101 381 l 101 969 l 281 969 l 281 381 q 518 149 281 149 q 756 381 756 149 l 756 969 l 935 969 l 935 381 q 518 -6 935 -6 q 101 381 101 -6 m 623 1051 l 471 1051 l 309 1227 l 525 1227 l 623 1051 "},"Ů":{"x_min":101.734375,"x_max":935.953125,"ha":1038,"o":"m 101 381 l 101 969 l 281 969 l 281 381 q 518 149 281 149 q 756 381 756 149 l 756 969 l 935 969 l 935 381 q 518 -6 935 -6 q 101 381 101 -6 m 420 1111 q 514 1018 420 1018 q 604 1111 604 1018 q 514 1202 604 1202 q 420 1111 420 1202 m 359 1110 q 514 1252 359 1252 q 666 1110 666 1252 q 514 968 666 968 q 359 1110 359 968 "},"¢":{"x_min":40.6875,"x_max":630.75,"ha":665,"o":"m 332 834 l 332 969 l 505 969 l 505 838 q 630 820 572 834 l 630 678 q 447 698 542 698 q 220 498 220 698 q 447 271 220 271 q 630 291 542 271 l 630 149 q 505 130 572 135 l 505 0 l 332 0 l 332 136 q 40 498 40 180 q 332 834 40 793 "},"В":{"x_min":101.734375,"x_max":845.0625,"ha":896,"o":"m 101 0 l 101 969 l 556 969 q 832 744 832 969 q 652 507 832 578 q 845 286 845 471 q 541 0 845 0 l 101 0 m 534 155 q 653 278 653 155 q 475 429 653 429 l 421 429 l 421 545 q 644 732 644 582 q 544 813 644 813 l 281 813 l 281 155 l 534 155 "},"ē":{"x_min":50.859375,"x_max":709.421875,"ha":760,"o":"m 385 712 q 709 381 709 712 q 703 293 709 337 l 230 293 q 451 142 230 142 q 667 162 559 142 l 667 20 q 438 0 573 0 q 50 364 50 0 q 385 712 50 712 m 230 417 l 534 417 l 534 423 q 385 571 534 571 q 230 417 242 571 m 556 969 l 556 827 l 217 827 l 217 969 l 556 969 "},"β":{"x_min":84.78125,"x_max":824.71875,"ha":876,"o":"m 84 -245 l 84 590 q 474 969 84 969 q 779 714 779 969 q 554 514 779 557 q 824 258 824 489 q 489 -1 824 -1 q 325 39 397 -1 l 325 181 q 491 141 398 141 q 644 258 644 141 q 393 440 644 440 l 393 561 q 609 714 609 598 q 462 827 609 827 q 264 588 264 827 l 264 -245 l 84 -245 "},"≠":{"x_min":67.828125,"x_max":576.484375,"ha":644,"o":"m 164 169 l 67 169 l 67 311 l 246 311 l 296 400 l 67 400 l 67 542 l 377 542 l 474 712 l 576 712 l 479 542 l 576 542 l 576 400 l 398 400 l 347 311 l 576 311 l 576 169 l 266 169 l 169 0 l 67 0 l 164 169 "},"¥":{"x_min":33.90625,"x_max":813.875,"ha":848,"o":"m 33 969 l 220 969 l 418 623 l 620 969 l 813 969 l 533 522 l 725 522 l 725 379 l 504 379 l 504 304 l 725 304 l 725 162 l 504 162 l 504 0 l 324 0 l 324 162 l 108 162 l 108 304 l 324 304 l 324 379 l 108 379 l 108 522 l 296 522 l 33 969 "},"Ĥ":{"x_min":101.734375,"x_max":939.34375,"ha":1041,"o":"m 101 0 l 101 969 l 281 969 l 281 569 l 759 569 l 759 969 l 939 969 l 939 0 l 759 0 l 759 413 l 281 413 l 281 0 l 101 0 m 470 1227 l 571 1227 l 690 1051 l 568 1051 l 520 1139 l 473 1051 l 351 1051 l 470 1227 "},"U":{"x_min":101.734375,"x_max":935.953125,"ha":1038,"o":"m 101 381 l 101 969 l 281 969 l 281 381 q 518 149 281 149 q 756 381 756 149 l 756 969 l 935 969 l 935 381 q 518 -6 935 -6 q 101 381 101 -6 "},"":{"x_min":101.734375,"x_max":1018.015625,"ha":1052,"o":"m 101 0 l 101 623 q 573 983 101 983 q 963 922 758 983 l 963 773 l 708 560 q 1018 298 1018 557 q 642 -1 1018 -1 q 430 46 536 -1 l 430 202 q 643 154 537 154 q 831 298 831 154 q 651 415 831 414 l 498 415 l 498 549 l 788 800 q 573 827 691 827 q 281 623 281 827 l 281 0 l 101 0 "},"Ñ":{"x_min":101.734375,"x_max":966.46875,"ha":1068,"o":"m 101 0 l 101 969 l 281 969 l 793 263 l 793 969 l 966 969 l 966 0 l 786 0 l 274 721 l 274 0 l 101 0 m 378 1196 q 466 1227 419 1227 q 541 1209 501 1227 q 618 1192 580 1192 q 717 1223 669 1192 l 717 1081 q 629 1049 676 1049 q 554 1067 594 1049 q 477 1085 515 1085 q 378 1053 426 1085 l 378 1196 "},"F":{"x_min":101.734375,"x_max":738.578125,"ha":789,"o":"m 738 969 l 738 815 l 280 815 l 280 571 l 715 571 l 715 410 l 278 410 l 278 0 l 101 0 l 101 969 l 738 969 "},"å":{"x_min":50.859375,"x_max":685,"ha":770,"o":"m 50 221 q 360 434 50 434 q 505 420 432 434 l 505 474 q 367 569 505 569 q 108 535 250 569 l 108 678 q 367 712 250 712 q 685 477 685 712 l 685 0 l 580 0 l 516 63 q 311 0 423 0 q 50 221 50 0 m 505 298 q 360 311 437 311 q 230 223 230 311 q 339 128 230 128 q 505 184 428 128 l 505 298 m 286 924 q 379 831 286 831 q 470 924 470 831 q 379 1015 470 1015 q 286 924 286 1015 m 225 923 q 379 1065 225 1065 q 531 923 531 1065 q 379 781 531 781 q 225 923 225 781 "},"Ϋ":{"x_min":16.953125,"x_max":925.78125,"ha":882,"o":"m 16 969 l 210 969 l 482 502 l 739 969 l 925 969 l 569 339 l 569 0 l 389 0 l 389 339 l 16 969 m 659 1227 l 659 1098 l 514 1098 l 514 1227 l 659 1227 m 429 1227 l 429 1098 l 283 1098 l 283 1227 l 429 1227 "},"0":{"x_min":61.046875,"x_max":918.984375,"ha":980,"o":"m 247 487 q 493 149 247 149 q 732 487 732 149 q 493 820 732 820 q 247 487 247 820 m 61 483 q 493 976 61 976 q 918 483 918 976 q 493 -6 918 -6 q 61 483 61 -6 "},"ō":{"x_min":50.859375,"x_max":756.21875,"ha":807,"o":"m 230 358 q 403 135 230 135 q 576 358 576 135 q 403 576 576 576 q 230 358 230 576 m 50 356 q 403 714 50 714 q 756 356 756 714 q 403 -1 756 -1 q 50 356 52 -1 m 573 969 l 573 827 l 234 827 l 234 969 l 573 969 "},"”":{"x_min":33.90625,"x_max":593.4375,"ha":627,"o":"m 593 969 l 491 674 l 325 674 l 427 969 l 593 969 m 301 969 l 200 674 l 33 674 l 135 969 l 301 969 "},"ö":{"x_min":50.859375,"x_max":756.21875,"ha":807,"o":"m 230 358 q 403 135 230 135 q 576 358 576 135 q 403 576 576 576 q 230 358 230 576 m 50 356 q 403 714 50 714 q 756 356 756 714 q 403 -1 756 -1 q 50 356 52 -1 m 592 969 l 592 841 l 446 841 l 446 969 l 592 969 m 361 969 l 361 841 l 215 841 l 215 969 l 361 969 "},"ć":{"x_min":40.6875,"x_max":603.625,"ha":644,"o":"m 603 20 q 420 0 515 0 q 40 369 40 0 q 420 712 40 712 q 603 691 515 712 l 603 549 q 434 569 515 569 q 220 369 220 569 q 434 142 220 142 q 603 162 515 142 l 603 20 m 328 969 l 545 969 l 383 794 l 231 794 l 328 969 "},"þ":{"x_min":84.78125,"x_max":747.40625,"ha":798,"o":"m 264 694 q 398 712 323 712 q 747 366 747 712 q 409 0 747 0 q 264 33 337 0 l 264 -257 l 84 -257 l 84 969 l 264 969 l 264 694 m 264 557 l 264 185 q 408 149 331 149 q 569 368 569 149 q 392 567 569 567 q 264 557 315 567 "},"]":{"x_min":33.90625,"x_max":393.375,"ha":461,"o":"m 393 969 l 393 -257 l 33 -257 l 33 -115 l 213 -115 l 213 827 l 33 827 l 33 969 l 393 969 "},"А":{"x_min":16.953125,"x_max":1042.421875,"ha":1059,"o":"m 201 0 l 16 0 l 428 969 l 621 969 l 1042 0 l 849 0 l 738 264 l 416 264 l 478 420 l 673 420 l 520 784 l 201 0 "},"Ы":{"x_min":101.734375,"x_max":1115.671875,"ha":1163,"o":"m 281 969 l 281 158 l 558 158 q 665 272 665 158 q 521 400 665 400 l 394 400 l 394 556 l 528 556 q 853 280 853 556 q 569 0 853 0 l 101 0 l 101 969 l 281 969 m 935 0 l 935 969 l 1115 969 l 1115 0 l 935 0 "},"ĭ":{"x_min":-25.09375,"x_max":375.046875,"ha":349,"o":"m 265 712 l 265 0 l 85 0 l 85 712 l 265 712 m -25 969 l 93 969 q 174 874 93 874 q 256 969 256 874 l 375 969 q 174 773 375 773 q -25 969 -25 773 "},"8":{"x_min":54.265625,"x_max":813.875,"ha":868,"o":"m 54 287 q 198 512 54 438 q 81 731 81 576 q 434 979 81 979 q 786 731 786 979 q 666 512 786 576 q 813 287 813 438 q 440 -6 813 -6 q 54 287 54 -6 m 437 583 q 607 710 607 583 q 435 820 607 820 q 261 710 261 820 q 437 583 261 583 m 444 149 q 634 283 634 149 q 435 427 634 427 q 233 283 233 427 q 444 149 233 149 "},"R":{"x_min":101.734375,"x_max":915.59375,"ha":899,"o":"m 101 1 l 101 969 l 542 969 q 839 710 839 969 q 608 419 839 534 l 915 0 l 689 0 l 394 422 l 394 504 q 651 704 651 548 q 531 811 651 811 l 284 811 l 284 1 l 101 1 "},"Ż":{"x_min":84.78125,"x_max":803.6875,"ha":848,"o":"m 803 969 l 803 813 l 287 155 l 803 155 l 803 0 l 84 0 l 84 155 l 623 813 l 98 813 l 98 969 l 803 969 m 524 1227 l 524 1078 l 364 1078 l 364 1227 l 524 1227 "},"ħ":{"x_min":84.78125,"x_max":732.484375,"ha":817,"o":"m 264 759 l 264 621 q 479 712 348 712 q 732 448 732 712 l 732 0 l 552 0 l 552 448 q 435 567 552 567 q 264 497 347 567 l 264 0 l 84 0 l 84 969 l 264 969 l 264 902 l 732 902 l 732 759 l 264 759 "},"õ":{"x_min":50.859375,"x_max":756.21875,"ha":807,"o":"m 230 358 q 403 135 230 135 q 576 358 576 135 q 403 576 576 576 q 230 358 230 576 m 50 356 q 403 714 50 714 q 756 356 756 714 q 403 -1 756 -1 q 50 356 52 -1 m 234 938 q 322 969 274 969 q 396 952 357 969 q 474 934 436 934 q 573 965 524 934 l 573 823 q 484 792 532 792 q 410 809 449 792 q 333 827 371 827 q 234 796 282 827 l 234 938 "},"˙":{"x_min":67.828125,"x_max":227.203125,"ha":295,"o":"m 227 969 l 227 820 l 67 820 l 67 969 l 227 969 "},"ê":{"x_min":50.859375,"x_max":709.421875,"ha":760,"o":"m 385 712 q 709 381 709 712 q 703 293 709 337 l 230 293 q 451 142 230 142 q 667 162 559 142 l 667 20 q 438 0 573 0 q 50 364 50 0 q 385 712 50 712 m 230 417 l 534 417 l 534 423 q 385 571 534 571 q 230 417 242 571 m 335 969 l 437 969 l 556 793 l 434 793 l 386 881 l 339 793 l 217 793 l 335 969 "},"„":{"x_min":33.90625,"x_max":593.4375,"ha":627,"o":"m 593 125 l 491 -169 l 325 -169 l 427 125 l 593 125 m 301 125 l 200 -169 l 33 -169 l 135 125 l 301 125 "},"ч":{"x_min":67.828125,"x_max":761.640625,"ha":846,"o":"m 761 712 l 761 0 l 581 0 l 581 260 q 345 183 482 183 q 67 482 67 183 l 67 712 l 247 712 l 247 480 q 362 328 247 328 q 581 418 497 328 l 581 712 l 761 712 "},"δ":{"x_min":40.6875,"x_max":773.171875,"ha":814,"o":"m 773 366 q 402 -6 773 -6 q 40 359 40 -6 q 389 691 40 691 q 118 827 284 788 l 118 969 l 704 969 l 704 827 l 387 827 q 773 366 764 647 m 593 363 q 402 562 593 562 q 217 359 217 562 q 402 135 217 135 q 593 363 593 135 "},"Â":{"x_min":16.953125,"x_max":1042.421875,"ha":1059,"o":"m 201 0 l 16 0 l 428 969 l 621 969 l 1042 0 l 849 0 l 738 264 l 416 264 l 478 420 l 673 420 l 520 784 l 201 0 m 478 1227 l 580 1227 l 699 1051 l 577 1051 l 529 1139 l 482 1051 l 360 1051 l 478 1227 "},"Į":{"x_min":6.109375,"x_max":284.171875,"ha":383,"o":"m 101 0 l 101 969 l 281 969 l 281 0 q 133 -134 133 -65 q 191 -180 133 -180 q 284 -166 248 -180 l 284 -275 q 183 -288 242 -288 q 6 -151 6 -288 q 101 0 6 -62 "},"ω":{"x_min":50.859375,"x_max":1024.109375,"ha":1075,"o":"m 139 712 l 318 712 q 230 373 230 559 q 322 155 230 155 q 447 559 447 155 l 627 559 q 752 155 627 155 q 844 373 844 155 q 756 712 844 559 l 935 712 q 1024 373 1024 559 q 752 0 1024 0 q 535 196 593 0 q 322 0 481 0 q 50 373 50 0 q 139 712 50 559 "},"Ţ":{"x_min":0,"x_max":735.875,"ha":736,"o":"m 735 969 l 735 813 l 457 813 l 457 0 l 278 0 l 278 813 l 0 813 l 0 969 l 735 969 m 452 -67 l 350 -257 l 170 -257 l 272 -67 l 452 -67 "},"´":{"x_min":67.828125,"x_max":381.84375,"ha":450,"o":"m 165 969 l 381 969 l 219 794 l 67 794 l 165 969 "},"Ĉ":{"x_min":67.828125,"x_max":874.90625,"ha":943,"o":"m 874 40 q 590 -6 749 -6 q 67 498 67 -6 q 590 976 67 976 q 874 929 749 976 l 874 766 q 603 820 749 820 q 254 498 254 820 q 603 149 254 149 q 874 203 749 149 l 874 40 m 515 1227 l 617 1227 l 735 1051 l 613 1051 l 566 1139 l 518 1051 l 396 1051 l 515 1227 "},"И":{"x_min":101.734375,"x_max":905.421875,"ha":1007,"o":"m 732 0 l 732 697 l 274 0 l 101 0 l 101 969 l 274 969 l 274 263 l 732 969 l 905 969 l 905 0 l 732 0 "},"":{"x_min":57.65625,"x_max":695.171875,"ha":746,"o":"m 57 0 l 57 142 q 481 495 481 330 q 345 576 481 576 q 71 501 203 576 l 71 651 q 345 718 203 718 q 661 495 661 718 q 303 142 661 298 l 695 142 l 695 0 l 57 0 "},"р":{"x_min":84.78125,"x_max":774.53125,"ha":815,"o":"m 264 185 q 429 149 338 149 q 596 375 596 149 q 405 567 596 567 q 264 557 315 567 l 264 185 m 84 682 q 398 712 226 712 q 774 373 774 712 q 430 0 774 0 q 264 33 344 0 l 264 -257 l 84 -257 l 84 682 "},"Ω":{"x_min":81.390625,"x_max":1010.546875,"ha":1092,"o":"m 91 0 l 91 155 l 271 155 q 81 542 81 284 q 545 983 81 983 q 1010 542 1010 983 q 820 155 1010 284 l 1000 155 l 1000 0 l 627 0 l 627 155 q 830 542 830 284 q 545 827 830 827 q 261 542 261 827 q 464 155 261 284 l 464 0 l 91 0 "},"т":{"x_min":0,"x_max":627.359375,"ha":627,"o":"m 627 712 l 627 569 l 403 569 l 403 0 l 223 0 l 223 569 l 0 569 l 0 712 l 627 712 "},"П":{"x_min":101.734375,"x_max":959.6875,"ha":1061,"o":"m 101 0 l 101 969 l 959 969 l 959 0 l 779 0 l 779 813 l 281 813 l 281 0 l 101 0 "},"Ö":{"x_min":67.828125,"x_max":1034.296875,"ha":1102,"o":"m 254 487 q 554 149 254 149 q 847 487 847 149 q 554 820 847 820 q 254 487 254 820 m 67 483 q 554 976 67 976 q 1034 483 1034 976 q 554 -6 1034 -6 q 67 483 89 -6 m 739 1227 l 739 1098 l 593 1098 l 593 1227 l 739 1227 m 508 1227 l 508 1098 l 362 1098 l 362 1227 l 508 1227 "},"z":{"x_min":67.828125,"x_max":630.75,"ha":671,"o":"m 81 712 l 630 712 l 630 569 l 266 135 l 617 135 l 617 0 l 67 0 l 67 135 l 437 569 l 81 569 l 81 712 "},"™":{"x_min":101.734375,"x_max":987.5,"ha":1089,"o":"m 448 969 l 448 921 l 304 921 l 304 513 l 245 513 l 245 921 l 101 921 l 101 969 l 448 969 m 508 513 l 508 969 l 583 969 l 751 589 l 915 969 l 987 969 l 987 513 l 934 513 l 934 881 l 772 513 l 725 513 l 560 881 l 560 513 l 508 513 "},"Θ":{"x_min":81.390625,"x_max":1047.859375,"ha":1129,"o":"m 267 487 q 568 149 267 149 q 861 487 861 149 q 568 820 861 820 q 267 487 267 820 m 81 483 q 568 976 81 976 q 1047 483 1047 976 q 568 -6 1047 -6 q 81 483 81 -6 m 354 578 l 771 578 l 771 422 l 354 422 l 354 578 "},"Ř":{"x_min":101.734375,"x_max":915.59375,"ha":899,"o":"m 101 1 l 101 969 l 542 969 q 839 710 839 969 q 608 419 839 534 l 915 0 l 689 0 l 394 422 l 394 504 q 651 704 651 548 q 531 811 651 811 l 284 811 l 284 1 l 101 1 m 257 1227 l 379 1227 l 427 1139 l 474 1227 l 596 1227 l 478 1051 l 376 1051 l 257 1227 "},"Ň":{"x_min":101.734375,"x_max":966.46875,"ha":1068,"o":"m 101 0 l 101 969 l 281 969 l 793 263 l 793 969 l 966 969 l 966 0 l 786 0 l 274 721 l 274 0 l 101 0 m 364 1227 l 486 1227 l 534 1139 l 581 1227 l 704 1227 l 585 1051 l 483 1051 l 364 1227 "},"É":{"x_min":101.734375,"x_max":775.203125,"ha":840,"o":"m 765 969 l 765 815 l 280 815 l 280 571 l 742 571 l 742 410 l 278 410 l 278 155 l 775 155 l 775 0 l 101 0 l 101 969 l 765 969 m 417 1227 l 634 1227 l 472 1051 l 320 1051 l 417 1227 "},"и":{"x_min":84.78125,"x_max":766.390625,"ha":851,"o":"m 593 0 l 593 478 l 264 0 l 84 0 l 84 712 l 257 712 l 257 208 l 586 712 l 766 712 l 766 0 l 593 0 "},"³":{"x_min":33.90625,"x_max":358.109375,"ha":392,"o":"m 33 949 q 169 969 101 969 q 358 824 358 969 q 294 727 358 758 q 358 630 358 698 q 169 478 358 478 q 33 499 101 478 l 33 621 q 169 596 101 596 q 227 630 227 596 q 196 675 227 675 l 85 675 l 85 779 l 195 779 q 227 824 227 779 q 169 851 227 851 q 33 827 101 851 l 33 949 "},"[":{"x_min":67.828125,"x_max":427.28125,"ha":461,"o":"m 427 969 l 427 827 l 247 827 l 247 -115 l 427 -115 l 427 -257 l 67 -257 l 67 969 l 427 969 "},"ζ":{"x_min":67.828125,"x_max":700.609375,"ha":718,"o":"m 205 969 l 700 969 l 700 827 q 244 285 244 574 q 385 142 244 142 l 467 142 q 693 -29 693 142 q 423 -271 693 -189 l 355 -150 q 522 -50 522 -90 q 470 0 522 0 l 388 0 q 67 282 67 0 q 482 827 67 587 l 205 827 l 205 969 "},"∏":{"x_min":101.734375,"x_max":1071.59375,"ha":1173,"o":"m 1071 969 l 1071 -257 l 898 -257 l 898 813 l 281 813 l 281 -257 l 101 -257 l 101 969 l 1071 969 "},"Έ":{"x_min":-33.90625,"x_max":987.5,"ha":1052,"o":"m 63 969 l 280 969 l 118 794 l -33 794 l 63 969 m 978 969 l 978 815 l 492 815 l 492 571 l 954 571 l 954 410 l 490 410 l 490 155 l 987 155 l 987 0 l 314 0 l 314 969 l 978 969 "},"Ρ":{"x_min":101.734375,"x_max":832.859375,"ha":850,"o":"m 101 0 l 101 969 l 535 969 q 832 696 832 969 q 426 337 832 400 l 400 497 q 644 691 644 541 q 524 811 644 811 l 281 811 l 281 0 l 101 0 "},"ğ":{"x_min":50.859375,"x_max":720.265625,"ha":805,"o":"m 540 550 q 415 567 496 567 q 228 361 228 567 q 389 162 228 162 q 540 199 466 162 l 540 550 m 720 54 q 345 -257 720 -257 q 111 -223 213 -257 l 111 -81 q 346 -115 215 -115 q 540 47 540 -115 q 368 13 460 13 q 50 360 50 13 q 420 712 50 712 q 720 682 544 712 l 720 54 m 206 969 l 324 969 q 406 874 324 874 q 487 969 487 874 l 606 969 q 406 773 606 773 q 206 969 206 773 "},"ª":{"x_min":67.828125,"x_max":367.59375,"ha":435,"o":"m 67 725 q 212 834 67 834 q 298 827 265 834 l 298 861 q 208 906 298 906 q 96 888 154 906 l 96 953 q 208 969 154 969 q 367 855 367 969 l 367 614 l 329 614 l 303 638 q 202 614 264 614 q 67 725 67 614 m 298 763 q 212 770 267 770 q 137 725 137 770 q 202 678 137 678 q 298 706 267 678 l 298 763 "},"T":{"x_min":0,"x_max":735.875,"ha":736,"o":"m 735 969 l 735 813 l 457 813 l 457 0 l 278 0 l 278 813 l 0 813 l 0 969 l 735 969 "},"š":{"x_min":50.859375,"x_max":654.484375,"ha":695,"o":"m 84 33 l 84 183 q 358 135 203 135 q 474 210 474 135 q 396 281 474 281 l 267 281 q 50 495 50 281 q 367 718 50 718 q 620 678 501 718 l 620 529 q 362 576 501 576 q 217 501 217 576 q 301 430 217 430 l 417 430 q 654 217 654 430 q 352 -6 654 -6 q 84 33 203 -6 m 183 969 l 305 969 l 352 881 l 400 969 l 522 969 l 403 793 l 301 793 l 183 969 "},"Þ":{"x_min":101.734375,"x_max":832.859375,"ha":867,"o":"m 101 0 l 101 969 l 287 969 l 287 760 l 556 760 q 832 514 832 760 q 433 162 832 225 l 407 322 q 644 509 644 366 q 544 602 644 602 l 281 602 l 281 0 l 101 0 "},"j":{"x_min":0,"x_max":264.5,"ha":349,"o":"m 264 969 l 264 827 l 84 827 l 84 969 l 264 969 m 264 712 l 264 54 q 141 -297 264 -161 l 0 -198 q 84 54 84 -107 l 84 712 l 264 712 "},"Σ":{"x_min":67.828125,"x_max":746.046875,"ha":814,"o":"m 67 969 l 746 969 l 746 813 l 271 813 l 556 508 l 271 155 l 746 155 l 746 0 l 67 0 l 67 155 l 349 508 l 67 813 l 67 969 "},"1":{"x_min":67.828125,"x_max":349.28125,"ha":468,"o":"m 169 0 l 169 821 l 67 821 l 67 895 l 349 990 l 349 0 l 169 0 "},"ĉ":{"x_min":47.46875,"x_max":610.40625,"ha":644,"o":"m 610 20 q 427 0 522 0 q 47 369 47 0 q 427 712 47 712 q 610 691 522 712 l 610 549 q 440 569 522 569 q 227 369 227 569 q 440 142 227 142 q 610 162 522 142 l 610 20 m 325 969 l 427 969 l 545 793 l 423 793 l 376 881 l 328 793 l 206 793 l 325 969 "},"":{"x_min":84.78125,"x_max":818.609375,"ha":785,"o":"m 807 712 l 502 390 l 818 0 l 590 0 l 329 342 l 329 412 l 592 712 l 807 712 m 84 0 l 84 969 l 264 969 l 264 0 l 84 0 "},"ī":{"x_min":5.4375,"x_max":344.546875,"ha":349,"o":"m 265 712 l 265 0 l 85 0 l 85 712 l 265 712 m 344 969 l 344 827 l 5 827 l 5 969 l 344 969 "},"О":{"x_min":67.828125,"x_max":1034.296875,"ha":1102,"o":"m 254 487 q 554 149 254 149 q 847 487 847 149 q 554 820 847 820 q 254 487 254 820 m 67 483 q 554 976 67 976 q 1034 483 1034 976 q 554 -6 1034 -6 q 67 483 89 -6 "},"ξ":{"x_min":67.828125,"x_max":693.828125,"ha":711,"o":"m 417 969 l 623 969 l 623 827 l 418 827 q 308 736 308 827 q 419 645 308 645 l 617 645 l 617 503 l 425 503 q 244 299 244 503 q 364 142 244 142 l 460 142 q 693 -49 693 142 q 423 -271 693 -189 l 348 -150 q 522 -50 522 -90 q 463 0 522 0 l 368 0 q 67 296 67 0 q 250 575 67 507 q 128 760 128 611 q 417 969 128 969 "},"Ď":{"x_min":101.734375,"x_max":963.078125,"ha":1014,"o":"m 481 155 q 783 511 783 155 q 481 813 783 813 l 281 813 l 281 155 l 481 155 m 101 0 l 101 969 l 481 969 q 963 511 963 969 q 481 0 963 0 l 101 0 m 362 1227 l 484 1227 l 532 1139 l 579 1227 l 701 1227 l 583 1051 l 481 1051 l 362 1227 "},"&":{"x_min":67.828125,"x_max":905.421875,"ha":905,"o":"m 67 701 q 413 969 67 969 q 657 935 539 969 l 657 793 q 422 827 539 827 q 247 705 247 827 q 386 562 247 562 l 615 562 l 615 659 l 712 659 l 781 562 l 905 562 l 905 420 l 795 420 l 795 332 q 423 -2 795 -2 q 67 280 67 -2 q 191 493 67 434 q 67 701 67 550 m 387 420 q 247 284 247 420 q 424 142 247 142 q 615 333 615 142 l 615 420 l 387 420 "},"G":{"x_min":67.828125,"x_max":874.90625,"ha":943,"o":"m 874 44 q 581 -6 757 -6 q 67 498 67 -6 q 590 976 67 976 q 874 929 749 976 l 874 766 q 603 820 749 820 q 254 498 254 820 q 583 149 254 149 q 695 165 632 149 l 695 447 l 874 447 l 874 44 "},"ΰ":{"x_min":74.609375,"x_max":746.046875,"ha":821,"o":"m 74 290 l 74 712 l 254 712 l 254 290 q 410 128 254 128 q 566 290 566 128 l 566 712 l 746 712 l 746 290 q 410 -13 746 -13 q 74 290 74 -13 m 731 969 l 731 841 l 585 841 l 585 969 l 731 969 m 236 969 l 236 841 l 90 841 l 90 969 l 236 969 m 343 969 l 560 969 l 398 794 l 246 794 l 343 969 "},"`":{"x_min":67.828125,"x_max":381.84375,"ha":450,"o":"m 381 794 l 229 794 l 67 969 l 284 969 l 381 794 "},"ŏ":{"x_min":50.859375,"x_max":756.21875,"ha":807,"o":"m 230 358 q 403 135 230 135 q 576 358 576 135 q 403 576 576 576 q 230 358 230 576 m 50 356 q 403 714 50 714 q 756 356 756 714 q 403 -1 756 -1 q 50 356 52 -1 m 203 969 l 322 969 q 403 874 322 874 q 484 969 484 874 l 603 969 q 403 773 603 773 q 203 969 203 773 "},"ý":{"x_min":0,"x_max":733.15625,"ha":733,"o":"m 0 712 l 190 712 l 370 199 l 545 712 l 733 712 l 437 -21 q 185 -297 358 -215 l 99 -174 q 272 -4 218 -122 l 0 712 m 359 969 l 575 969 l 413 794 l 261 794 l 359 969 "},"º":{"x_min":67.828125,"x_max":406.9375,"ha":475,"o":"m 137 793 q 237 678 137 678 q 337 793 337 678 q 237 906 337 906 q 137 793 137 906 m 67 792 q 237 969 67 969 q 406 792 406 969 q 237 614 406 614 q 67 792 69 614 "},"∞":{"x_min":67.828125,"x_max":1058.03125,"ha":1126,"o":"m 67 356 q 318 590 67 590 q 562 467 454 590 q 807 590 671 590 q 1058 356 1058 590 q 807 122 1058 122 q 562 244 671 122 q 318 122 454 122 q 67 356 67 122 m 898 356 q 807 440 898 440 q 644 356 732 440 q 807 271 732 271 q 898 356 898 271 m 227 356 q 318 271 227 271 q 467 356 393 271 q 318 440 393 440 q 227 356 227 440 "},"ź":{"x_min":67.828125,"x_max":630.75,"ha":671,"o":"m 81 712 l 630 712 l 630 569 l 266 135 l 617 135 l 617 0 l 67 0 l 67 135 l 437 569 l 81 569 l 81 712 m 342 969 l 558 969 l 396 794 l 244 794 l 342 969 "},"я":{"x_min":16.953125,"x_max":674.828125,"ha":760,"o":"m 495 0 l 495 567 l 323 567 q 267 507 267 567 q 416 389 267 419 l 416 293 l 224 0 l 16 0 l 234 304 q 79 513 79 383 q 308 712 79 712 l 674 712 l 674 0 l 495 0 "},"Ё":{"x_min":101.734375,"x_max":775.203125,"ha":840,"o":"m 765 969 l 765 815 l 280 815 l 280 571 l 742 571 l 742 410 l 278 410 l 278 155 l 775 155 l 775 0 l 101 0 l 101 969 l 765 969 m 619 1227 l 619 1098 l 474 1098 l 474 1227 l 619 1227 m 389 1227 l 389 1098 l 243 1098 l 243 1227 l 389 1227 "},"ń":{"x_min":84.78125,"x_max":732.484375,"ha":817,"o":"m 84 0 l 84 712 l 223 712 l 246 607 q 479 712 348 712 q 732 448 732 712 l 732 0 l 552 0 l 552 448 q 435 567 552 567 q 264 497 347 567 l 264 0 l 84 0 m 415 969 l 631 969 l 469 794 l 317 794 l 415 969 "},"Г":{"x_min":101.734375,"x_max":734.515625,"ha":735,"o":"m 101 0 l 101 969 l 734 969 l 734 813 l 281 813 l 281 0 l 101 0 "},"Ь":{"x_min":101.734375,"x_max":853.203125,"ha":867,"o":"m 281 969 l 281 158 l 558 158 q 665 272 665 158 q 521 400 665 400 l 394 400 l 394 556 l 527 556 q 853 280 853 556 q 569 0 853 0 l 101 0 l 101 969 l 281 969 "},"¤":{"x_min":67.828125,"x_max":704.671875,"ha":773,"o":"m 146 512 l 67 594 l 141 670 l 226 588 q 390 634 299 634 q 543 588 474 634 l 630 670 l 704 594 l 624 512 q 663 356 663 456 q 617 198 663 261 l 704 117 l 630 41 l 543 124 q 385 84 470 84 q 220 124 301 84 l 141 41 l 67 117 l 146 198 q 107 356 107 268 q 146 512 107 448 m 218 358 q 384 191 218 191 q 550 358 550 191 q 384 524 550 524 q 218 358 218 524 "},"Ĝ":{"x_min":67.828125,"x_max":874.90625,"ha":943,"o":"m 874 44 q 581 -6 757 -6 q 67 498 67 -6 q 590 976 67 976 q 874 929 749 976 l 874 766 q 603 820 749 820 q 254 498 254 820 q 583 149 254 149 q 695 165 632 149 l 695 447 l 874 447 l 874 44 m 522 1227 l 623 1227 l 742 1051 l 620 1051 l 573 1139 l 525 1051 l 403 1051 l 522 1227 "},"p":{"x_min":84.78125,"x_max":747.40625,"ha":798,"o":"m 264 185 q 408 149 331 149 q 569 375 569 149 q 392 567 569 567 q 264 557 315 567 l 264 185 m 84 682 q 384 712 226 712 q 747 373 747 712 q 409 0 747 0 q 264 33 337 0 l 264 -257 l 84 -257 l 84 682 "},"Ю":{"x_min":101.734375,"x_max":1289.984375,"ha":1358,"o":"m 101 0 l 101 969 l 280 969 l 280 569 l 446 569 q 871 976 483 976 q 1289 483 1289 976 q 871 -6 1289 -6 q 446 413 476 -6 l 280 413 l 280 0 l 101 0 m 871 149 q 1103 487 1103 149 q 871 820 1103 820 q 632 487 632 820 q 871 149 632 149 "},"ο":{"x_min":40.6875,"x_max":773.171875,"ha":814,"o":"m 220 358 q 406 142 220 142 q 593 358 593 142 q 406 569 593 569 q 220 358 220 569 m 40 356 q 406 712 40 712 q 773 356 773 712 q 406 0 773 0 q 40 356 42 0 "},"S":{"x_min":50.859375,"x_max":817.265625,"ha":868,"o":"m 84 40 l 84 203 q 414 149 230 149 q 637 298 637 149 q 500 406 637 406 l 348 406 q 50 678 50 406 q 474 976 50 976 q 783 929 637 976 l 783 766 q 474 820 637 820 q 230 678 230 820 q 348 569 230 569 l 500 569 q 817 298 817 569 q 414 -6 817 -6 q 84 40 230 -6 "},"":{"x_min":50.859375,"x_max":746.046875,"ha":770,"o":"m 376 712 q 548 678 475 712 l 647 712 l 746 712 l 746 569 l 654 569 q 685 465 684 516 q 367 213 685 213 q 263 227 304 213 q 230 163 230 198 q 270 128 230 128 l 483 128 q 725 -50 725 128 q 358 -271 725 -271 q 50 -210 193 -271 l 50 -54 q 360 -128 196 -128 q 552 -50 552 -128 q 485 -13 552 -13 l 219 -13 q 61 118 61 -13 q 155 271 61 208 q 57 459 57 339 q 376 712 57 712 m 237 464 q 373 359 237 359 q 505 464 505 359 q 373 569 505 569 q 237 464 237 569 m 452 969 l 452 820 l 293 820 l 293 969 l 452 969 "},"/":{"x_min":16.953125,"x_max":701.953125,"ha":719,"o":"m 210 0 l 16 0 l 508 969 l 701 969 l 210 0 "},"Ŧ":{"x_min":0,"x_max":735.875,"ha":736,"o":"m 278 556 l 278 813 l 0 813 l 0 969 l 735 969 l 735 813 l 457 813 l 457 556 l 735 556 l 735 413 l 457 413 l 457 0 l 278 0 l 278 413 l 0 413 l 0 556 l 278 556 "},"y":{"x_min":0,"x_max":733.15625,"ha":733,"o":"m 0 712 l 190 712 l 370 199 l 545 712 l 733 712 l 437 -21 q 185 -297 358 -215 l 99 -174 q 272 -4 218 -122 l 0 712 "},"Π":{"x_min":101.734375,"x_max":959.6875,"ha":1061,"o":"m 101 0 l 101 969 l 959 969 l 959 0 l 779 0 l 779 813 l 281 813 l 281 0 l 101 0 "},"–":{"x_min":67.828125,"x_max":746.046875,"ha":814,"o":"m 746 427 l 746 284 l 67 284 l 67 427 l 746 427 "},"ë":{"x_min":50.859375,"x_max":709.421875,"ha":760,"o":"m 385 712 q 709 381 709 712 q 703 293 709 337 l 230 293 q 451 142 230 142 q 667 162 559 142 l 667 20 q 438 0 573 0 q 50 364 50 0 q 385 712 50 712 m 230 417 l 534 417 l 534 423 q 385 571 534 571 q 230 417 242 571 m 575 969 l 575 841 l 429 841 l 429 969 l 575 969 m 344 969 l 344 841 l 198 841 l 198 969 l 344 969 "},"б":{"x_min":50.859375,"x_max":811.15625,"ha":862,"o":"m 811 352 q 432 -6 811 -6 q 50 352 50 -6 l 50 573 q 474 969 50 969 q 788 1043 672 969 l 788 892 q 472 827 684 827 q 233 604 233 827 q 467 712 316 712 q 811 367 811 712 l 811 352 m 432 135 q 630 352 630 135 q 439 565 630 565 q 233 352 233 565 q 432 135 233 135 "},"ƒ":{"x_min":33.90625,"x_max":730.453125,"ha":710,"o":"m 730 827 q 681 832 704 832 q 545 725 573 832 l 529 664 l 678 664 l 651 522 l 509 522 l 398 -13 q 88 -260 348 -260 q 33 -257 62 -260 l 33 -115 q 82 -120 60 -120 q 218 -13 190 -120 l 329 522 l 200 522 l 227 664 l 349 664 l 366 725 q 676 972 415 972 q 730 969 701 972 l 730 827 "},"у":{"x_min":0,"x_max":733.15625,"ha":733,"o":"m 0 712 l 190 712 l 370 199 l 545 712 l 733 712 l 437 -21 q 185 -297 358 -215 l 99 -174 q 272 -4 218 -122 l 0 712 "},"J":{"x_min":16.953125,"x_max":400.15625,"ha":502,"o":"m 400 969 l 400 279 q 16 0 400 0 l 16 155 q 220 279 220 155 l 220 969 l 400 969 "},"ŷ":{"x_min":0,"x_max":733.15625,"ha":733,"o":"m 0 712 l 190 712 l 370 199 l 545 712 l 733 712 l 437 -21 q 185 -297 358 -215 l 99 -174 q 272 -4 218 -122 l 0 712 m 316 969 l 417 969 l 536 793 l 414 793 l 366 881 l 319 793 l 197 793 l 316 969 "},"ŕ":{"x_min":84.78125,"x_max":474.078125,"ha":461,"o":"m 84 0 l 84 712 l 223 712 l 246 621 q 444 712 339 712 l 444 567 q 264 483 343 567 l 264 0 l 84 0 m 257 969 l 474 969 l 311 794 l 160 794 l 257 969 "},"‐":{"x_min":67.828125,"x_max":406.9375,"ha":475,"o":"m 406 427 l 406 284 l 67 284 l 67 427 l 406 427 "},"ώ":{"x_min":50.859375,"x_max":1024.109375,"ha":1075,"o":"m 139 712 l 318 712 q 230 373 230 559 q 322 155 230 155 q 447 559 447 155 l 627 559 q 752 155 627 155 q 844 373 844 155 q 756 712 844 559 l 935 712 q 1024 373 1024 559 q 752 0 1024 0 q 535 196 593 0 q 322 0 481 0 q 50 373 50 0 q 139 712 50 559 m 530 969 l 746 969 l 584 794 l 432 794 l 530 969 "},"˘":{"x_min":67.828125,"x_max":467.96875,"ha":536,"o":"m 67 969 l 186 969 q 267 874 186 874 q 349 969 349 874 l 467 969 q 267 773 467 773 q 67 969 67 773 "},"D":{"x_min":101.734375,"x_max":963.078125,"ha":1014,"o":"m 481 155 q 783 511 783 155 q 481 813 783 813 l 281 813 l 281 155 l 481 155 m 101 0 l 101 969 l 481 969 q 963 511 963 969 q 481 0 963 0 l 101 0 "},"":{"x_min":84.78125,"x_max":1015.296875,"ha":954,"o":"m 536 569 l 264 569 l 264 0 l 84 0 l 84 746 q 370 1005 84 1005 q 485 984 431 1005 l 485 842 q 377 862 442 862 q 264 752 264 862 l 264 712 l 536 712 q 856 1005 536 1005 q 1015 978 944 1005 l 1015 835 q 869 862 948 862 q 716 712 716 862 l 929 712 l 929 569 l 716 569 l 716 0 l 536 0 l 536 569 "},"ł":{"x_min":0,"x_max":383.203125,"ha":383,"o":"m 101 348 l 0 272 l 0 428 l 101 504 l 101 969 l 281 969 l 281 637 l 383 713 l 383 557 l 281 481 l 281 0 l 101 0 l 101 348 "},"ĺ":{"x_min":71.890625,"x_max":385.90625,"ha":349,"o":"m 264 969 l 264 0 l 84 0 l 84 969 l 264 969 m 169 1244 l 385 1244 l 223 1068 l 71 1068 l 169 1244 "},"":{"x_min":50.859375,"x_max":575.8125,"ha":579,"o":"m 227 142 l 227 543 l 50 543 l 50 651 l 406 718 l 406 142 l 575 142 l 575 0 l 50 0 l 50 142 l 227 142 "},"ц":{"x_min":84.78125,"x_max":909.5,"ha":933,"o":"m 84 0 l 84 712 l 264 712 l 264 142 l 604 142 l 604 712 l 784 712 l 784 142 l 909 142 l 909 -257 l 729 -257 l 729 0 l 84 0 "},"Л":{"x_min":0,"x_max":925.09375,"ha":1027,"o":"m 0 142 q 233 472 233 142 l 233 969 l 925 969 l 925 0 l 745 0 l 745 813 l 413 813 l 413 472 q 0 0 413 0 l 0 142 "},"$":{"x_min":50.859375,"x_max":654.484375,"ha":695,"o":"m 270 834 l 270 969 l 443 969 l 443 837 q 620 800 535 829 l 620 651 q 362 698 501 698 q 217 623 217 698 q 301 552 217 552 l 417 552 q 654 339 654 552 q 443 121 654 151 l 443 0 l 270 0 l 270 118 q 84 155 170 126 l 84 305 q 358 257 203 257 q 474 332 474 257 q 396 403 474 403 l 267 403 q 50 617 50 403 q 270 834 50 803 "},"w":{"x_min":23.734375,"x_max":1060.734375,"ha":1084,"o":"m 23 712 l 204 712 l 297 216 l 461 712 l 615 712 l 793 216 l 873 712 l 1060 712 l 874 0 l 706 0 l 538 505 l 368 0 l 197 0 l 23 712 "},"о":{"x_min":40.6875,"x_max":786.734375,"ha":827,"o":"m 40 356 q 413 725 40 725 q 786 356 786 725 q 413 -13 786 -13 q 40 356 42 -13 m 220 358 q 413 128 220 128 q 607 358 607 128 q 413 583 607 583 q 220 358 220 583 "},"Д":{"x_min":0,"x_max":1155.6875,"ha":1207,"o":"m 392 155 l 850 155 l 850 813 l 585 813 q 392 155 585 271 m 0 -257 l 0 155 l 124 155 q 406 813 406 155 l 406 969 l 1030 969 l 1030 155 l 1155 155 l 1155 -257 l 975 -257 l 975 0 l 179 0 l 179 -257 l 0 -257 "},"Ç":{"x_min":67.828125,"x_max":874.90625,"ha":943,"o":"m 488 -1 q 67 498 67 45 q 590 976 67 976 q 874 929 749 976 l 874 766 q 603 820 749 820 q 254 498 254 820 q 603 149 254 149 q 874 203 749 149 l 874 40 q 594 -6 751 -6 l 570 -52 q 715 -162 715 -52 q 531 -286 715 -286 q 385 -252 458 -286 l 385 -165 q 531 -199 458 -199 q 604 -162 604 -199 q 548 -132 604 -132 l 424 -132 l 488 -1 "},"Ŝ":{"x_min":50.859375,"x_max":817.265625,"ha":868,"o":"m 84 40 l 84 203 q 414 149 230 149 q 637 298 637 149 q 500 406 637 406 l 348 406 q 50 678 50 406 q 474 976 50 976 q 783 929 637 976 l 783 766 q 474 820 637 820 q 230 678 230 820 q 348 569 230 569 l 500 569 q 817 298 817 569 q 414 -6 817 -6 q 84 40 230 -6 m 383 1227 l 484 1227 l 603 1051 l 481 1051 l 434 1139 l 386 1051 l 264 1051 l 383 1227 "},"C":{"x_min":67.828125,"x_max":874.90625,"ha":943,"o":"m 874 40 q 590 -6 749 -6 q 67 498 67 -6 q 590 976 67 976 q 874 929 749 976 l 874 766 q 603 820 749 820 q 254 498 254 820 q 603 149 254 149 q 874 203 749 149 l 874 40 "},"Ĵ":{"x_min":16.953125,"x_max":473.40625,"ha":502,"o":"m 400 969 l 400 279 q 16 0 400 0 l 16 155 q 220 279 220 155 l 220 969 l 400 969 m 252 1227 l 354 1227 l 473 1051 l 351 1051 l 303 1139 l 256 1051 l 134 1051 l 252 1227 "},"È":{"x_min":101.734375,"x_max":775.203125,"ha":840,"o":"m 765 969 l 765 815 l 280 815 l 280 571 l 742 571 l 742 410 l 278 410 l 278 155 l 775 155 l 775 0 l 101 0 l 101 969 l 765 969 m 529 1051 l 377 1051 l 215 1227 l 432 1227 l 529 1051 "},"ﬁ":{"x_min":84.78125,"x_max":702.640625,"ha":787,"o":"m 702 712 l 702 0 l 522 0 l 522 569 l 264 569 l 264 0 l 84 0 l 84 746 q 404 1018 84 1018 q 634 971 519 1018 l 634 828 q 417 876 530 876 q 264 752 264 876 l 264 712 l 702 712 "},"X":{"x_min":16.953125,"x_max":1007.15625,"ha":1019,"o":"m 398 484 l 16 969 l 244 969 l 512 615 l 779 969 l 1007 969 l 626 484 l 1007 0 l 779 0 l 512 354 l 244 0 l 16 0 l 398 484 "},"ô":{"x_min":50.859375,"x_max":756.21875,"ha":807,"o":"m 230 358 q 403 135 230 135 q 576 358 576 135 q 403 576 576 576 q 230 358 230 576 m 50 356 q 403 714 50 714 q 756 356 756 714 q 403 -1 756 -1 q 50 356 52 -1 m 352 969 l 454 969 l 573 793 l 451 793 l 403 881 l 356 793 l 234 793 l 352 969 "},"Ė":{"x_min":101.734375,"x_max":775.203125,"ha":840,"o":"m 765 969 l 765 815 l 280 815 l 280 571 l 742 571 l 742 410 l 278 410 l 278 155 l 775 155 l 775 0 l 101 0 l 101 969 l 765 969 m 504 1227 l 504 1078 l 345 1078 l 345 1227 l 504 1227 "},"г":{"x_min":84.78125,"x_max":558.171875,"ha":558,"o":"m 84 0 l 84 712 l 558 712 l 558 569 l 264 569 l 264 0 l 84 0 "},"Ŀ":{"x_min":101.734375,"x_max":666.6875,"ha":735,"o":"m 281 969 l 281 155 l 666 155 l 666 0 l 101 0 l 101 969 l 281 969 m 446 484 q 531 569 446 569 q 615 484 615 569 q 531 400 615 400 q 446 484 446 400 "},"х":{"x_min":0,"x_max":732.484375,"ha":732,"o":"m 266 356 l 0 712 l 200 712 l 366 489 l 532 712 l 732 712 l 466 356 l 732 0 l 532 0 l 366 222 l 200 0 l 0 0 l 266 356 "},"ŋ":{"x_min":84.78125,"x_max":732.484375,"ha":817,"o":"m 552 448 q 435 567 552 567 q 264 497 347 567 l 264 0 l 84 0 l 84 712 l 223 712 l 246 607 q 479 712 348 712 q 732 446 732 712 l 732 54 q 609 -297 732 -161 l 467 -198 q 552 54 552 -107 l 552 448 "},"Ч":{"x_min":84.78125,"x_max":893.890625,"ha":941,"o":"m 893 969 l 893 0 l 714 0 l 714 396 q 423 318 581 318 q 84 672 84 318 l 84 969 l 264 969 l 264 670 q 440 477 264 477 q 714 567 595 477 l 714 969 l 893 969 "},"ü":{"x_min":84.78125,"x_max":725.703125,"ha":810,"o":"m 725 712 l 725 0 l 585 0 l 563 90 q 303 0 440 0 q 84 258 84 0 l 84 712 l 264 712 l 264 263 q 367 145 264 145 q 545 215 455 145 l 545 712 l 725 712 m 593 969 l 593 841 l 447 841 l 447 969 l 593 969 m 362 969 l 362 841 l 217 841 l 217 969 l 362 969 "},"ь":{"x_min":84.78125,"x_max":727.734375,"ha":768,"o":"m 264 712 l 264 144 l 480 144 q 546 218 546 144 q 477 270 546 270 l 356 270 l 356 413 l 483 413 q 727 212 727 413 q 491 0 727 0 l 84 0 l 84 712 l 264 712 "},"Ÿ":{"x_min":16.953125,"x_max":925.78125,"ha":882,"o":"m 16 969 l 210 969 l 482 502 l 739 969 l 925 969 l 569 339 l 569 0 l 389 0 l 389 339 l 16 969 m 659 1213 l 659 1084 l 513 1084 l 513 1213 l 659 1213 m 429 1213 l 429 1084 l 282 1084 l 282 1213 l 429 1213 "},"€":{"x_min":67.828125,"x_max":847.78125,"ha":939,"o":"m 847 33 q 576 -6 722 -6 q 67 498 67 -6 q 576 976 67 976 q 847 935 722 976 l 847 773 q 590 820 722 820 q 261 666 306 820 l 717 666 l 717 523 l 247 523 l 247 476 l 717 476 l 717 333 l 261 333 q 590 149 299 149 q 847 196 722 149 l 847 33 "},"в":{"x_min":84.78125,"x_max":739.9375,"ha":774,"o":"m 84 0 l 84 712 l 491 712 q 727 533 727 712 q 594 369 727 423 q 739 194 739 333 q 477 0 739 0 l 84 0 m 449 142 q 555 219 555 142 q 458 291 555 291 l 383 291 l 383 414 q 546 515 546 438 q 486 569 546 569 l 264 569 l 264 142 l 449 142 "},"Η":{"x_min":101.734375,"x_max":939.34375,"ha":1041,"o":"m 101 0 l 101 969 l 281 969 l 281 569 l 759 569 l 759 969 l 939 969 l 939 0 l 759 0 l 759 413 l 281 413 l 281 0 l 101 0 "},"С":{"x_min":67.828125,"x_max":874.90625,"ha":943,"o":"m 874 40 q 590 -6 749 -6 q 67 498 67 -6 q 590 976 67 976 q 874 929 749 976 l 874 766 q 603 820 749 820 q 254 498 254 820 q 603 149 254 149 q 874 203 749 149 l 874 40 "},"ß":{"x_min":84.78125,"x_max":790.8125,"ha":825,"o":"m 84 0 l 84 650 q 426 967 84 967 q 745 712 745 967 l 745 620 q 539 493 539 584 q 665 406 539 444 q 790 225 790 368 q 503 0 790 0 l 359 0 l 359 142 l 504 142 q 604 211 604 142 q 485 318 604 280 q 366 491 366 356 q 561 712 366 625 q 421 825 561 825 q 264 648 264 825 l 264 0 l 84 0 "},"Ű":{"x_min":101.734375,"x_max":935.953125,"ha":1038,"o":"m 101 381 l 101 969 l 281 969 l 281 381 q 518 149 281 149 q 756 381 756 149 l 756 969 l 935 969 l 935 381 q 518 -6 935 -6 q 101 381 101 -6 m 356 1227 l 572 1227 l 410 1051 l 258 1051 l 356 1227 m 631 1227 l 847 1227 l 685 1051 l 533 1051 l 631 1227 "},"c":{"x_min":47.46875,"x_max":610.40625,"ha":644,"o":"m 610 20 q 427 0 522 0 q 47 369 47 0 q 427 712 47 712 q 610 691 522 712 l 610 549 q 440 569 522 569 q 227 369 227 569 q 440 142 227 142 q 610 162 522 142 l 610 20 "},"¶":{"x_min":0,"x_max":646.34375,"ha":646,"o":"m 300 -294 l 300 364 q 0 668 0 364 q 300 969 0 969 l 646 969 l 646 908 l 544 908 l 544 -294 l 476 -294 l 476 908 l 368 908 l 368 -294 l 300 -294 "},"Ή":{"x_min":-33.90625,"x_max":1151.625,"ha":1253,"o":"m 63 969 l 280 969 l 118 794 l -33 794 l 63 969 m 314 0 l 314 969 l 493 969 l 493 569 l 971 569 l 971 969 l 1151 969 l 1151 0 l 971 0 l 971 413 l 493 413 l 493 0 l 314 0 "},"γ":{"x_min":16.953125,"x_max":722.3125,"ha":739,"o":"m 16 712 l 203 712 l 367 185 l 535 712 l 722 712 l 453 0 l 453 -257 l 274 -257 l 274 0 l 16 712 "},"":{"x_min":50.859375,"x_max":746.046875,"ha":770,"o":"m 376 712 q 548 678 475 712 l 647 712 l 746 712 l 746 569 l 654 569 q 685 465 684 516 q 367 213 685 213 q 263 227 304 213 q 230 163 230 198 q 270 128 230 128 l 483 128 q 725 -50 725 128 q 358 -271 725 -271 q 50 -210 193 -271 l 50 -54 q 360 -128 196 -128 q 552 -50 552 -128 q 485 -13 552 -13 l 219 -13 q 61 118 61 -13 q 155 271 61 208 q 57 459 57 339 q 376 712 57 712 m 237 464 q 373 359 237 359 q 505 464 505 359 q 373 569 505 569 q 237 464 237 569 m 544 969 l 442 779 l 263 779 l 364 969 l 544 969 "},"­":{"x_min":67.828125,"x_max":576.484375,"ha":644,"o":"m 576 427 l 576 284 l 67 284 l 67 427 l 576 427 "},":":{"x_min":84.78125,"x_max":264.5,"ha":332,"o":"m 264 712 l 264 545 l 84 545 l 84 712 l 264 712 m 264 166 l 264 0 l 84 0 l 84 166 l 264 166 "},"":{"x_min":20.34375,"x_max":671.4375,"ha":719,"o":"m 20 712 l 671 712 l 671 569 l 242 -189 l 45 -189 l 487 569 l 20 569 l 20 712 "},"ś":{"x_min":50.859375,"x_max":654.484375,"ha":695,"o":"m 84 33 l 84 183 q 358 135 203 135 q 474 210 474 135 q 396 281 474 281 l 267 281 q 50 495 50 281 q 367 718 50 718 q 620 678 501 718 l 620 529 q 362 576 501 576 q 217 501 217 576 q 301 430 217 430 l 417 430 q 654 217 654 430 q 352 -6 654 -6 q 84 33 203 -6 m 345 969 l 562 969 l 400 794 l 248 794 l 345 969 "}," ":{"x_min":0,"x_max":0,"ha":338},"У":{"x_min":33.90625,"x_max":869.484375,"ha":886,"o":"m 869 969 l 535 181 q 271 0 457 0 q 111 47 184 0 l 111 189 q 269 142 183 142 q 385 214 360 142 l 33 969 l 226 969 l 467 406 l 676 969 l 869 969 "},"¾":{"x_min":67.828125,"x_max":942.734375,"ha":1011,"o":"m 295 0 l 129 0 l 689 969 l 855 969 l 295 0 m 892 0 l 769 0 l 769 101 l 530 101 l 530 219 l 678 484 l 808 484 l 663 219 l 769 219 l 769 371 l 892 371 l 892 219 l 942 193 l 942 101 l 892 101 l 892 0 m 67 949 q 203 969 135 969 q 391 824 391 969 q 327 727 391 758 q 391 630 391 698 q 203 478 391 478 q 67 499 135 478 l 67 621 q 203 596 135 596 q 260 630 260 596 q 229 675 260 675 l 118 675 l 118 779 l 228 779 q 260 824 260 779 q 203 851 260 851 q 67 827 135 851 l 67 949 "},"Ί":{"x_min":-33.90625,"x_max":493.75,"ha":595,"o":"m 63 969 l 280 969 l 118 794 l -33 794 l 63 969 m 493 969 l 493 0 l 314 0 l 314 969 l 493 969 "},"ŉ":{"x_min":-101.734375,"x_max":800.296875,"ha":885,"o":"m 152 0 l 152 712 l 291 712 l 314 607 q 547 712 416 712 q 800 448 800 712 l 800 0 l 620 0 l 620 448 q 503 567 620 567 q 332 497 415 567 l 332 0 l 152 0 m 166 969 l 64 674 l -101 674 l 0 969 l 166 969 "},"Ģ":{"x_min":67.828125,"x_max":874.90625,"ha":943,"o":"m 874 44 q 581 -6 757 -6 q 67 498 67 -6 q 590 976 67 976 q 874 929 749 976 l 874 766 q 603 820 749 820 q 254 498 254 820 q 583 149 254 149 q 695 165 632 149 l 695 447 l 874 447 l 874 44 m 612 -67 l 510 -257 l 330 -257 l 432 -67 l 612 -67 "},"m":{"x_min":84.78125,"x_max":1132.625,"ha":1217,"o":"m 84 0 l 84 712 l 223 712 l 244 609 q 474 712 340 712 q 658 614 609 712 q 887 712 767 712 q 1132 441 1132 712 l 1132 0 l 952 0 l 952 448 q 845 567 952 567 q 691 495 765 567 l 691 0 l 512 0 l 512 446 q 413 567 512 567 q 264 495 334 567 l 264 0 l 84 0 "},"Е":{"x_min":101.734375,"x_max":775.203125,"ha":840,"o":"m 765 969 l 765 815 l 280 815 l 280 571 l 742 571 l 742 410 l 278 410 l 278 155 l 775 155 l 775 0 l 101 0 l 101 969 l 765 969 "},"ž":{"x_min":67.828125,"x_max":630.75,"ha":671,"o":"m 81 712 l 630 712 l 630 569 l 266 135 l 617 135 l 617 0 l 67 0 l 67 135 l 437 569 l 81 569 l 81 712 m 179 969 l 301 969 l 349 881 l 396 969 l 518 969 l 400 793 l 298 793 l 179 969 "},"á":{"x_min":50.859375,"x_max":685,"ha":770,"o":"m 50 221 q 360 434 50 434 q 505 420 432 434 l 505 474 q 367 569 505 569 q 108 535 250 569 l 108 678 q 367 712 250 712 q 685 477 685 712 l 685 0 l 580 0 l 516 63 q 311 0 423 0 q 50 221 50 0 m 505 298 q 360 311 437 311 q 230 223 230 311 q 339 128 230 128 q 505 184 428 128 l 505 298 m 367 969 l 583 969 l 421 794 l 269 794 l 367 969 "},"×":{"x_min":67.828125,"x_max":527.65625,"ha":596,"o":"m 197 356 l 67 485 l 168 585 l 297 456 l 427 585 l 527 485 l 398 356 l 527 226 l 427 126 l 297 255 l 168 126 l 67 226 l 197 356 "},"п":{"x_min":84.78125,"x_max":766.390625,"ha":851,"o":"m 84 0 l 84 712 l 766 712 l 766 0 l 586 0 l 586 569 l 264 569 l 264 0 l 84 0 "},"K":{"x_min":101.734375,"x_max":1007.15625,"ha":973,"o":"m 281 969 l 281 0 l 101 0 l 101 969 l 281 969 m 963 969 l 550 517 l 1007 0 l 758 0 l 383 453 l 383 569 l 744 969 l 963 969 "},"7":{"x_min":67.828125,"x_max":759.609375,"ha":794,"o":"m 67 969 l 759 969 l 759 827 l 324 0 l 126 0 l 569 813 l 67 813 l 67 969 "},"¨":{"x_min":67.828125,"x_max":444.234375,"ha":512,"o":"m 444 969 l 444 841 l 298 841 l 298 969 l 444 969 m 213 969 l 213 841 l 67 841 l 67 969 l 213 969 "},"Y":{"x_min":16.953125,"x_max":925.78125,"ha":882,"o":"m 16 969 l 210 969 l 482 502 l 739 969 l 925 969 l 569 339 l 569 0 l 389 0 l 389 339 l 16 969 "},"E":{"x_min":101.734375,"x_max":775.203125,"ha":840,"o":"m 765 969 l 765 815 l 280 815 l 280 571 l 742 571 l 742 410 l 278 410 l 278 155 l 775 155 l 775 0 l 101 0 l 101 969 l 765 969 "},"Ô":{"x_min":67.828125,"x_max":1034.296875,"ha":1102,"o":"m 254 487 q 554 149 254 149 q 847 487 847 149 q 554 820 847 820 q 254 487 254 820 m 67 483 q 554 976 67 976 q 1034 483 1034 976 q 554 -6 1034 -6 q 67 483 89 -6 m 500 1227 l 602 1227 l 720 1051 l 598 1051 l 551 1139 l 503 1051 l 381 1051 l 500 1227 "},"Ï":{"x_min":3.390625,"x_max":379.796875,"ha":383,"o":"m 281 969 l 281 0 l 101 0 l 101 969 l 281 969 m 379 1227 l 379 1098 l 233 1098 l 233 1227 l 379 1227 m 149 1227 l 149 1098 l 3 1098 l 3 1227 l 149 1227 "},"ġ":{"x_min":50.859375,"x_max":720.265625,"ha":805,"o":"m 540 550 q 415 567 496 567 q 228 361 228 567 q 389 162 228 162 q 540 199 466 162 l 540 550 m 720 54 q 345 -257 720 -257 q 111 -223 213 -257 l 111 -81 q 346 -115 215 -115 q 540 47 540 -115 q 368 13 460 13 q 50 360 50 13 q 420 712 50 712 q 720 682 544 712 l 720 54 m 492 969 l 492 820 l 333 820 l 333 969 l 492 969 "},"έ":{"x_min":50.859375,"x_max":569.703125,"ha":621,"o":"m 569 535 q 352 576 467 576 q 237 507 237 576 q 376 440 237 440 l 508 440 l 508 298 l 374 298 q 230 217 230 298 q 352 135 230 135 q 569 176 467 135 l 569 27 q 352 -6 467 -6 q 50 196 50 -6 q 205 369 50 332 q 57 527 57 402 q 359 718 57 718 q 569 685 467 718 l 569 535 m 303 969 l 519 969 l 357 794 l 205 794 l 303 969 "},"ϋ":{"x_min":74.609375,"x_max":746.046875,"ha":821,"o":"m 74 290 l 74 712 l 254 712 l 254 290 q 410 128 254 128 q 566 290 566 128 l 566 712 l 746 712 l 746 290 q 410 -13 746 -13 q 74 290 74 -13 m 598 969 l 598 841 l 453 841 l 453 969 l 598 969 m 368 969 l 368 841 l 222 841 l 222 969 l 368 969 "},"":{"x_min":50.859375,"x_max":746.046875,"ha":770,"o":"m 376 712 q 548 678 475 712 l 647 712 l 746 712 l 746 569 l 654 569 q 685 465 684 516 q 367 213 685 213 q 263 227 304 213 q 230 163 230 198 q 270 128 230 128 l 483 128 q 725 -50 725 128 q 358 -271 725 -271 q 50 -210 193 -271 l 50 -54 q 360 -128 196 -128 q 552 -50 552 -128 q 485 -13 552 -13 l 219 -13 q 61 118 61 -13 q 155 271 61 208 q 57 459 57 339 q 376 712 57 712 m 237 464 q 373 359 237 359 q 505 464 505 359 q 373 569 505 569 q 237 464 237 569 m 169 969 l 288 969 q 369 874 288 874 q 451 969 451 874 l 569 969 q 369 773 569 773 q 169 969 169 773 "},"й":{"x_min":84.78125,"x_max":766.390625,"ha":851,"o":"m 593 0 l 593 478 l 264 0 l 84 0 l 84 712 l 257 712 l 257 208 l 586 712 l 766 712 l 766 0 l 593 0 m 225 969 l 344 969 q 425 874 344 874 q 507 969 507 874 l 626 969 q 425 773 626 773 q 225 969 225 773 "},"b":{"x_min":84.78125,"x_max":748.078125,"ha":799,"o":"m 264 164 q 407 145 326 145 q 570 375 570 145 q 430 562 570 562 q 264 526 339 562 l 264 164 m 84 969 l 264 969 l 264 657 q 444 712 345 712 q 748 370 748 712 q 400 0 748 0 q 84 29 253 0 l 84 969 "},"ύ":{"x_min":74.609375,"x_max":746.046875,"ha":821,"o":"m 74 290 l 74 712 l 254 712 l 254 290 q 410 128 254 128 q 566 290 566 128 l 566 712 l 746 712 l 746 290 q 410 -13 746 -13 q 74 290 74 -13 m 403 969 l 619 969 l 457 794 l 305 794 l 403 969 "},"ﬂ":{"x_min":84.78125,"x_max":722.984375,"ha":808,"o":"m 543 864 q 431 876 489 876 q 264 752 264 876 l 264 712 l 423 712 l 423 569 l 264 569 l 264 0 l 84 0 l 84 746 q 438 1018 84 1018 q 722 971 573 1018 l 722 0 l 543 0 l 543 864 "},"":{"x_min":64.4375,"x_max":800.296875,"ha":865,"o":"m 250 358 q 436 135 250 135 q 613 358 613 135 q 436 576 613 576 q 250 358 250 576 m 64 354 q 436 718 64 718 q 800 354 800 718 q 436 -6 800 -6 q 64 354 64 -6 "},"ф":{"x_min":40.6875,"x_max":1074.3125,"ha":1115,"o":"m 467 -4 q 40 354 40 18 q 467 716 40 693 l 467 969 l 647 969 l 647 717 q 1074 354 1074 696 q 647 -5 1074 15 l 647 -257 l 467 -257 l 467 -4 m 467 138 l 467 573 q 226 358 226 551 q 467 138 226 161 m 647 574 l 647 137 q 888 358 888 158 q 647 574 888 554 "},"":{"x_min":84.78125,"x_max":702.640625,"ha":787,"o":"m 522 569 l 264 569 l 264 0 l 84 0 l 84 746 q 404 1018 84 1018 q 634 971 519 1018 l 634 828 q 417 876 530 876 q 264 752 264 876 l 264 712 l 702 712 l 702 54 q 579 -297 702 -161 l 438 -198 q 522 54 522 -107 l 522 569 "},"Ŋ":{"x_min":101.734375,"x_max":966.46875,"ha":1068,"o":"m 784 2 l 274 721 l 274 0 l 101 0 l 101 969 l 281 969 l 793 263 l 793 969 l 966 969 l 966 54 q 843 -297 966 -161 l 701 -198 q 784 2 772 -122 "},"Ũ":{"x_min":101.734375,"x_max":935.953125,"ha":1038,"o":"m 101 381 l 101 969 l 281 969 l 281 381 q 518 149 281 149 q 756 381 756 149 l 756 969 l 935 969 l 935 381 q 518 -6 935 -6 q 101 381 101 -6 m 349 1196 q 437 1227 389 1227 q 512 1209 472 1227 q 589 1192 551 1192 q 688 1223 640 1192 l 688 1081 q 600 1049 647 1049 q 525 1067 564 1049 q 448 1085 486 1085 q 349 1053 397 1085 l 349 1196 "},"Щ":{"x_min":101.734375,"x_max":1376.796875,"ha":1428,"o":"m 101 0 l 101 969 l 281 969 l 281 155 l 586 155 l 586 969 l 766 969 l 766 155 l 1071 155 l 1071 969 l 1251 969 l 1251 155 l 1376 155 l 1376 -257 l 1197 -257 l 1197 0 l 101 0 "},"L":{"x_min":101.734375,"x_max":666.6875,"ha":735,"o":"m 281 969 l 281 155 l 666 155 l 666 0 l 101 0 l 101 969 l 281 969 "},";":{"x_min":67.828125,"x_max":349.28125,"ha":417,"o":"m 349 712 l 349 545 l 169 545 l 169 712 l 349 712 m 349 125 l 247 -169 l 67 -169 l 169 125 l 349 125 "},"ď":{"x_min":50.859375,"x_max":1051.25,"ha":800,"o":"m 1051 969 l 949 674 l 783 674 l 885 969 l 1051 969 m 535 526 q 396 562 480 562 q 228 375 228 562 q 402 151 228 151 q 535 171 473 151 l 535 526 m 715 42 q 396 0 552 0 q 50 370 50 0 q 388 712 50 712 q 535 678 460 712 l 535 969 l 715 969 l 715 42 "},"Ο":{"x_min":67.828125,"x_max":1034.296875,"ha":1102,"o":"m 254 487 q 554 149 254 149 q 847 487 847 149 q 554 820 847 820 q 254 487 254 820 m 67 483 q 554 976 67 976 q 1034 483 1034 976 q 554 -6 1034 -6 q 67 483 89 -6 "},"Ĭ":{"x_min":-8.140625,"x_max":392,"ha":383,"o":"m 282 969 l 282 0 l 102 0 l 102 969 l 282 969 m -8 1227 l 110 1227 q 191 1132 110 1132 q 273 1227 273 1132 l 392 1227 q 191 1030 392 1030 q -8 1227 -8 1030 "},"ŧ":{"x_min":0,"x_max":413.71875,"ha":451,"o":"m 74 442 l 74 827 l 207 827 l 234 712 l 413 712 l 413 569 l 254 569 l 254 442 l 413 442 l 413 300 l 254 300 l 254 242 q 340 142 254 142 l 413 142 l 413 0 l 253 0 q 74 191 74 0 l 74 300 l 0 300 l 0 442 l 74 442 "},"À":{"x_min":16.953125,"x_max":1042.421875,"ha":1059,"o":"m 201 0 l 16 0 l 428 969 l 621 969 l 1042 0 l 849 0 l 738 264 l 416 264 l 478 420 l 673 420 l 520 784 l 201 0 m 634 1051 l 482 1051 l 320 1227 l 536 1227 l 634 1051 "},"":{"x_min":84.78125,"x_max":1704.375,"ha":1738,"o":"m 536 569 l 264 569 l 264 0 l 84 0 l 84 746 q 370 1005 84 1005 q 485 984 431 1005 l 485 842 q 377 862 442 862 q 264 752 264 862 l 264 712 l 536 712 l 536 745 q 890 1017 536 1017 q 1174 969 1025 1017 l 1174 656 q 1420 712 1285 712 q 1679 499 1679 712 q 1490 280 1679 357 l 1704 0 l 1491 0 l 1264 301 l 1264 358 q 1500 486 1500 379 q 1384 569 1500 569 q 1174 505 1281 569 l 1174 -1 l 994 -1 l 994 862 q 883 874 940 874 q 716 750 716 874 l 716 710 l 875 710 l 875 568 l 716 568 l 716 -1 l 536 -1 l 536 569 "},"Ϊ":{"x_min":3.390625,"x_max":379.796875,"ha":383,"o":"m 281 969 l 281 0 l 101 0 l 101 969 l 281 969 m 379 1227 l 379 1098 l 233 1098 l 233 1227 l 379 1227 m 149 1227 l 149 1098 l 3 1098 l 3 1227 l 149 1227 "},"½":{"x_min":67.828125,"x_max":910.171875,"ha":978,"o":"m 233 0 l 67 0 l 627 969 l 793 969 l 233 0 m 577 0 l 577 118 q 779 325 779 236 q 718 369 779 369 q 591 332 657 369 l 591 454 q 718 488 657 488 q 910 325 910 488 q 741 118 910 220 l 910 118 l 910 0 l 577 0 m 119 481 l 119 828 l 67 828 l 67 892 l 249 967 l 249 481 l 119 481 "},"'":{"x_min":67.828125,"x_max":233.984375,"ha":302,"o":"m 233 969 l 213 674 l 88 674 l 67 969 l 233 969 "},"ĳ":{"x_min":84.78125,"x_max":613.78125,"ha":699,"o":"m 264 969 l 264 827 l 84 827 l 84 969 l 264 969 m 264 712 l 264 0 l 84 0 l 84 712 l 264 712 m 613 969 l 613 827 l 434 827 l 434 969 l 613 969 m 613 712 l 613 54 q 490 -297 613 -161 l 349 -198 q 434 54 434 -107 l 434 712 l 613 712 "},"Р":{"x_min":101.734375,"x_max":832.859375,"ha":850,"o":"m 101 0 l 101 969 l 535 969 q 832 696 832 969 q 426 337 832 400 l 400 497 q 644 691 644 541 q 524 811 644 811 l 281 811 l 281 0 l 101 0 "},"˛":{"x_min":67.828125,"x_max":356.75,"ha":425,"o":"m 356 0 q 195 -134 195 -65 q 252 -180 195 -180 q 345 -166 310 -180 l 345 -275 q 244 -288 304 -288 q 67 -151 67 -288 q 163 0 67 -62 l 356 0 "},"Ć":{"x_min":67.828125,"x_max":874.90625,"ha":943,"o":"m 874 40 q 590 -6 749 -6 q 67 498 67 -6 q 590 976 67 976 q 874 929 749 976 l 874 766 q 603 820 749 820 q 254 498 254 820 q 603 149 254 149 q 874 203 749 149 l 874 40 m 464 1227 l 680 1227 l 518 1051 l 366 1051 l 464 1227 "},"Т":{"x_min":0,"x_max":735.875,"ha":736,"o":"m 735 969 l 735 813 l 457 813 l 457 0 l 278 0 l 278 813 l 0 813 l 0 969 l 735 969 "},"£":{"x_min":67.828125,"x_max":757.578125,"ha":825,"o":"m 67 123 q 193 280 193 174 q 141 477 193 359 q 89 696 89 595 q 467 976 89 976 q 757 908 651 976 l 757 746 q 463 834 650 834 q 277 697 277 834 q 301 562 277 600 l 562 562 l 562 420 l 349 420 q 376 282 376 349 q 333 161 376 189 q 366 164 347 164 q 510 134 423 164 q 579 123 543 123 q 757 189 663 123 l 757 33 q 564 -23 676 -23 q 428 -4 501 -23 q 261 17 341 17 q 67 -20 158 17 l 67 123 "},"ů":{"x_min":84.78125,"x_max":725.703125,"ha":810,"o":"m 725 712 l 725 0 l 585 0 l 563 90 q 303 0 440 0 q 84 258 84 0 l 84 712 l 264 712 l 264 263 q 367 145 264 145 q 545 215 455 145 l 545 712 l 725 712 m 303 924 q 396 831 303 831 q 487 924 487 831 q 396 1015 487 1015 q 303 924 303 1015 m 242 923 q 396 1065 242 1065 q 548 923 548 1065 q 396 781 548 781 q 242 923 242 781 "},"Ō":{"x_min":67.828125,"x_max":1034.296875,"ha":1102,"o":"m 254 487 q 554 149 254 149 q 847 487 847 149 q 554 820 847 820 q 254 487 254 820 m 67 483 q 554 976 67 976 q 1034 483 1034 976 q 554 -6 1034 -6 q 67 483 89 -6 m 720 1227 l 720 1085 l 381 1085 l 381 1227 l 720 1227 "},"":{"x_min":84.78125,"x_max":1252.671875,"ha":1287,"o":"m 543 864 q 431 876 489 876 q 264 752 264 876 l 264 712 l 423 712 l 423 569 l 264 569 l 264 0 l 84 0 l 84 746 q 438 1018 84 1018 q 722 971 573 1018 l 722 656 q 969 712 833 712 q 1228 499 1228 712 q 1038 280 1228 357 l 1252 0 l 1039 0 l 813 301 l 813 358 q 1048 486 1048 379 q 933 569 1048 569 q 722 505 829 569 l 722 0 l 543 0 l 543 864 "},"а":{"x_min":50.859375,"x_max":685,"ha":770,"o":"m 50 221 q 360 434 50 434 q 505 420 432 434 l 505 474 q 367 569 505 569 q 108 535 250 569 l 108 678 q 367 712 250 712 q 685 477 685 712 l 685 0 l 580 0 l 516 63 q 311 0 423 0 q 50 221 50 0 m 505 298 q 360 311 437 311 q 230 223 230 311 q 339 128 230 128 q 505 184 428 128 l 505 298 "},"Ğ":{"x_min":67.828125,"x_max":874.90625,"ha":943,"o":"m 874 44 q 581 -6 757 -6 q 67 498 67 -6 q 590 976 67 976 q 874 929 749 976 l 874 766 q 603 820 749 820 q 254 498 254 820 q 583 149 254 149 q 695 165 632 149 l 695 447 l 874 447 l 874 44 m 345 1227 l 464 1227 q 545 1132 464 1132 q 627 1227 627 1132 l 746 1227 q 545 1030 746 1030 q 345 1227 345 1030 "},"v":{"x_min":0,"x_max":732.484375,"ha":732,"o":"m 0 712 l 189 712 l 362 214 l 542 712 l 732 712 l 442 0 l 271 0 l 0 712 "},"û":{"x_min":84.78125,"x_max":725.703125,"ha":810,"o":"m 725 712 l 725 0 l 585 0 l 563 90 q 303 0 440 0 q 84 258 84 0 l 84 712 l 264 712 l 264 263 q 367 145 264 145 q 545 215 455 145 l 545 712 l 725 712 m 354 969 l 456 969 l 575 793 l 453 793 l 405 881 l 358 793 l 236 793 l 354 969 "},"Ź":{"x_min":84.78125,"x_max":803.6875,"ha":848,"o":"m 803 969 l 803 813 l 287 155 l 803 155 l 803 0 l 84 0 l 84 155 l 623 813 l 98 813 l 98 969 l 803 969 m 437 1227 l 653 1227 l 491 1051 l 339 1051 l 437 1227 "},"":{"x_min":84.78125,"x_max":1663,"ha":1748,"o":"m 536 569 l 264 569 l 264 0 l 84 0 l 84 746 q 370 1005 84 1005 q 485 984 431 1005 l 485 842 q 377 862 442 862 q 264 752 264 862 l 264 712 l 536 712 l 536 745 q 890 1017 536 1017 q 1174 969 1025 1017 l 1174 621 q 1389 712 1258 712 q 1663 446 1663 712 l 1663 0 l 1483 0 l 1483 448 q 1352 567 1483 567 q 1174 476 1258 567 l 1174 -1 l 994 -1 l 994 862 q 883 874 940 874 q 716 750 716 874 l 716 710 l 875 710 l 875 568 l 716 568 l 716 -1 l 536 -1 l 536 569 "},"ˉ":{"x_min":67.828125,"x_max":406.9375,"ha":475,"o":"m 406 969 l 406 827 l 67 827 l 67 969 l 406 969 "},"Ĺ":{"x_min":75.96875,"x_max":666.6875,"ha":735,"o":"m 281 969 l 281 155 l 666 155 l 666 0 l 101 0 l 101 969 l 281 969 m 173 1227 l 389 1227 l 227 1051 l 75 1051 l 173 1227 "},"Č":{"x_min":67.828125,"x_max":874.90625,"ha":943,"o":"m 874 40 q 590 -6 749 -6 q 67 498 67 -6 q 590 976 67 976 q 874 929 749 976 l 874 766 q 603 820 749 820 q 254 498 254 820 q 603 149 254 149 q 874 203 749 149 l 874 40 m 375 1227 l 497 1227 l 544 1139 l 592 1227 l 714 1227 l 595 1051 l 493 1051 l 375 1227 "},"x":{"x_min":0,"x_max":732.484375,"ha":732,"o":"m 266 356 l 0 712 l 200 712 l 366 489 l 532 712 l 732 712 l 466 356 l 732 0 l 532 0 l 366 222 l 200 0 l 0 0 l 266 356 "},"è":{"x_min":50.859375,"x_max":709.421875,"ha":760,"o":"m 385 712 q 709 381 709 712 q 703 293 709 337 l 230 293 q 451 142 230 142 q 667 162 559 142 l 667 20 q 438 0 573 0 q 50 364 50 0 q 385 712 50 712 m 230 417 l 534 417 l 534 423 q 385 571 534 571 q 230 417 242 571 m 491 794 l 339 794 l 177 969 l 394 969 l 491 794 "},"Ń":{"x_min":101.734375,"x_max":966.46875,"ha":1068,"o":"m 101 0 l 101 969 l 281 969 l 793 263 l 793 969 l 966 969 l 966 0 l 786 0 l 274 721 l 274 0 l 101 0 m 526 1227 l 743 1227 l 581 1051 l 429 1051 l 526 1227 "},"μ":{"x_min":84.78125,"x_max":752.828125,"ha":838,"o":"m 752 712 l 752 0 l 612 0 l 590 90 q 391 0 488 0 q 264 40 296 0 l 264 -257 l 84 -257 l 84 712 l 264 712 l 264 303 q 394 145 264 145 q 573 235 502 145 l 573 712 l 752 712 "},".":{"x_min":67.828125,"x_max":247.546875,"ha":315,"o":"m 247 166 l 247 0 l 67 0 l 67 166 l 247 166 "},"‘":{"x_min":33.90625,"x_max":301.8125,"ha":336,"o":"m 301 969 l 200 674 l 33 674 l 135 969 l 301 969 "},"π":{"x_min":0,"x_max":935.953125,"ha":977,"o":"m 0 671 q 196 712 94 712 l 935 712 l 935 569 l 769 569 l 769 217 q 881 141 769 141 q 908 142 893 141 l 908 0 q 845 -3 874 -3 q 590 217 590 -3 l 590 569 l 349 569 l 349 0 l 169 0 l 169 569 q 0 529 94 569 l 0 671 "},"9":{"x_min":67.828125,"x_max":813.875,"ha":858,"o":"m 813 598 q 347 -27 813 221 l 261 113 q 590 383 493 222 q 423 347 507 347 q 67 653 67 347 q 449 978 67 978 q 813 598 813 978 m 640 594 q 443 836 640 836 q 244 653 244 836 q 429 490 244 490 q 628 522 533 490 q 640 594 640 550 "},"l":{"x_min":84.78125,"x_max":264.5,"ha":349,"o":"m 264 969 l 264 0 l 84 0 l 84 969 l 264 969 "},"Ъ":{"x_min":0,"x_max":1091.9375,"ha":1160,"o":"m 520 969 l 520 158 l 796 158 q 904 272 904 158 q 760 400 904 400 l 632 400 l 632 556 l 767 556 q 1091 280 1091 556 q 808 0 1091 0 l 340 0 l 340 813 l 0 813 l 0 969 l 520 969 "},"Ś":{"x_min":50.859375,"x_max":817.265625,"ha":868,"o":"m 84 40 l 84 203 q 414 149 230 149 q 637 298 637 149 q 500 406 637 406 l 348 406 q 50 678 50 406 q 474 976 50 976 q 783 929 637 976 l 783 766 q 474 820 637 820 q 230 678 230 820 q 348 569 230 569 l 500 569 q 817 298 817 569 q 414 -6 817 -6 q 84 40 230 -6 m 427 1227 l 643 1227 l 481 1051 l 329 1051 l 427 1227 "},"Ü":{"x_min":101.734375,"x_max":935.953125,"ha":1038,"o":"m 101 381 l 101 969 l 281 969 l 281 381 q 518 149 281 149 q 756 381 756 149 l 756 969 l 935 969 l 935 381 q 518 -6 935 -6 q 101 381 101 -6 m 707 1227 l 707 1098 l 561 1098 l 561 1227 l 707 1227 m 476 1227 l 476 1098 l 330 1098 l 330 1227 l 476 1227 "},"à":{"x_min":50.859375,"x_max":685,"ha":770,"o":"m 50 221 q 360 434 50 434 q 505 420 432 434 l 505 474 q 367 569 505 569 q 108 535 250 569 l 108 678 q 367 712 250 712 q 685 477 685 712 l 685 0 l 580 0 l 516 63 q 311 0 423 0 q 50 221 50 0 m 505 298 q 360 311 437 311 q 230 223 230 311 q 339 128 230 128 q 505 184 428 128 l 505 298 m 486 794 l 334 794 l 172 969 l 388 969 l 486 794 "},"η":{"x_min":84.78125,"x_max":752.828125,"ha":838,"o":"m 84 0 l 84 712 l 223 712 l 246 607 q 479 712 348 712 q 752 448 752 712 l 752 -257 l 573 -257 l 573 448 q 442 567 573 567 q 264 497 347 567 l 264 0 l 84 0 "},"ó":{"x_min":50.859375,"x_max":756.21875,"ha":807,"o":"m 230 358 q 403 135 230 135 q 576 358 576 135 q 403 576 576 576 q 230 358 230 576 m 50 356 q 403 714 50 714 q 756 356 756 714 q 403 -1 756 -1 q 50 356 52 -1 m 396 969 l 613 969 l 451 794 l 299 794 l 396 969 "},"¦":{"x_min":101.734375,"x_max":281.46875,"ha":383,"o":"m 281 237 l 281 -257 l 101 -257 l 101 237 l 281 237 m 280 969 l 280 474 l 101 474 l 101 969 l 280 969 "},"Ő":{"x_min":67.828125,"x_max":1034.296875,"ha":1102,"o":"m 254 487 q 554 149 254 149 q 847 487 847 149 q 554 820 847 820 q 254 487 254 820 m 67 483 q 554 976 67 976 q 1034 483 1034 976 q 554 -6 1034 -6 q 67 483 89 -6 m 387 1227 l 604 1227 l 442 1051 l 290 1051 l 387 1227 m 663 1227 l 879 1227 l 717 1051 l 565 1051 l 663 1227 "},"Ž":{"x_min":84.78125,"x_max":803.6875,"ha":848,"o":"m 803 969 l 803 813 l 287 155 l 803 155 l 803 0 l 84 0 l 84 155 l 623 813 l 98 813 l 98 969 l 803 969 m 274 1227 l 396 1227 l 444 1139 l 491 1227 l 613 1227 l 495 1051 l 393 1051 l 274 1227 "},"":{"x_min":50.859375,"x_max":746.046875,"ha":770,"o":"m 376 712 q 548 678 475 712 l 647 712 l 746 712 l 746 569 l 654 569 q 685 465 684 516 q 367 213 685 213 q 263 227 304 213 q 230 163 230 198 q 270 128 230 128 l 483 128 q 725 -50 725 128 q 358 -271 725 -271 q 50 -210 193 -271 l 50 -54 q 360 -128 196 -128 q 552 -50 552 -128 q 485 -13 552 -13 l 219 -13 q 61 118 61 -13 q 155 271 61 208 q 57 459 57 339 q 376 712 57 712 m 237 464 q 373 359 237 359 q 505 464 505 359 q 373 569 505 569 q 237 464 237 569 m 328 969 l 430 969 l 548 793 l 426 793 l 379 881 l 331 793 l 209 793 l 328 969 "},"е":{"x_min":40.6875,"x_max":699.25,"ha":760,"o":"m 375 712 q 699 381 699 712 q 693 293 699 337 l 220 293 q 441 142 220 142 q 657 162 549 142 l 657 20 q 427 0 562 0 q 40 364 40 0 q 375 712 40 712 m 220 417 l 524 417 l 524 423 q 375 571 524 571 q 220 417 232 571 "},"Î":{"x_min":22.390625,"x_max":361.5,"ha":383,"o":"m 282 969 l 282 0 l 102 0 l 102 969 l 282 969 m 141 1227 l 242 1227 l 361 1051 l 239 1051 l 191 1139 l 144 1051 l 22 1051 l 141 1227 "},"e":{"x_min":50.859375,"x_max":709.421875,"ha":760,"o":"m 385 712 q 709 381 709 712 q 703 293 709 337 l 230 293 q 451 142 230 142 q 667 162 559 142 l 667 20 q 438 0 573 0 q 50 364 50 0 q 385 712 50 712 m 230 417 l 534 417 l 534 423 q 385 571 534 571 q 230 417 242 571 "},"ό":{"x_min":40.6875,"x_max":773.171875,"ha":814,"o":"m 220 358 q 406 142 220 142 q 593 358 593 142 q 406 569 593 569 q 220 358 220 569 m 40 356 q 406 712 40 712 q 773 356 773 712 q 406 0 773 0 q 40 356 42 0 m 400 969 l 616 969 l 454 794 l 302 794 l 400 969 "},"Ĕ":{"x_min":101.734375,"x_max":775.203125,"ha":840,"o":"m 765 969 l 765 815 l 280 815 l 280 571 l 742 571 l 742 410 l 278 410 l 278 155 l 775 155 l 775 0 l 101 0 l 101 969 l 765 969 m 225 1227 l 343 1227 q 425 1132 343 1132 q 506 1227 506 1132 l 625 1227 q 425 1030 625 1030 q 225 1227 225 1030 "},"ļ":{"x_min":-20.34375,"x_max":264.5,"ha":349,"o":"m 264 969 l 264 0 l 84 0 l 84 969 l 264 969 m 261 -67 l 159 -257 l -20 -257 l 81 -67 l 261 -67 "},"ò":{"x_min":50.859375,"x_max":756.21875,"ha":807,"o":"m 230 358 q 403 135 230 135 q 576 358 576 135 q 403 576 576 576 q 230 358 230 576 m 50 356 q 403 714 50 714 q 756 356 756 714 q 403 -1 756 -1 q 50 356 52 -1 m 508 794 l 356 794 l 193 969 l 410 969 l 508 794 "},"^":{"x_min":33.90625,"x_max":678.21875,"ha":712,"o":"m 305 969 l 406 969 l 678 474 l 522 474 l 353 795 l 189 474 l 33 474 l 305 969 "},"к":{"x_min":84.78125,"x_max":796.234375,"ha":813,"o":"m 264 716 l 264 0 l 84 0 l 84 716 l 264 716 m 590 0 l 490 166 q 337 314 389 314 l 337 438 q 469 576 413 438 q 679 715 524 715 l 752 715 l 752 569 l 698 569 q 590 486 632 569 q 484 371 549 404 q 683 179 571 357 l 796 0 l 590 0 "},"∙":{"x_min":67.828125,"x_max":237.375,"ha":305,"o":"m 67 356 q 152 440 67 440 q 237 356 237 440 q 152 271 237 271 q 67 356 67 271 "},"ū":{"x_min":84.78125,"x_max":725.703125,"ha":810,"o":"m 725 712 l 725 0 l 585 0 l 563 90 q 303 0 440 0 q 84 258 84 0 l 84 712 l 264 712 l 264 263 q 367 145 264 145 q 545 215 455 145 l 545 712 l 725 712 m 575 969 l 575 827 l 236 827 l 236 969 l 575 969 "},"ˆ":{"x_min":67.828125,"x_max":406.9375,"ha":475,"o":"m 186 969 l 288 969 l 406 793 l 284 793 l 237 881 l 189 793 l 67 793 l 186 969 "},"č":{"x_min":47.46875,"x_max":610.40625,"ha":644,"o":"m 610 20 q 427 0 522 0 q 47 369 47 0 q 427 712 47 712 q 610 691 522 712 l 610 549 q 440 569 522 569 q 227 369 227 569 q 440 142 227 142 q 610 162 522 142 l 610 20 m 206 969 l 328 969 l 376 881 l 423 969 l 545 969 l 427 793 l 325 793 l 206 969 "},"Ν":{"x_min":101.734375,"x_max":966.46875,"ha":1068,"o":"m 101 0 l 101 969 l 281 969 l 793 263 l 793 969 l 966 969 l 966 0 l 786 0 l 274 721 l 274 0 l 101 0 "},"’":{"x_min":33.90625,"x_max":301.8125,"ha":336,"o":"m 301 969 l 200 674 l 33 674 l 135 969 l 301 969 "},"-":{"x_min":67.828125,"x_max":406.9375,"ha":475,"o":"m 406 427 l 406 284 l 67 284 l 67 427 l 406 427 "},"Q":{"x_min":67.828125,"x_max":1034.296875,"ha":1102,"o":"m 254 487 q 554 149 254 149 q 847 487 847 149 q 554 820 847 820 q 254 487 254 820 m 67 483 q 554 976 67 976 q 1034 483 1034 976 q 732 4 1034 78 l 889 -178 l 748 -286 l 527 -6 q 67 483 89 -6 "},"ě":{"x_min":50.859375,"x_max":709.421875,"ha":760,"o":"m 385 712 q 709 381 709 712 q 703 293 709 337 l 230 293 q 451 142 230 142 q 667 162 559 142 l 667 20 q 438 0 573 0 q 50 364 50 0 q 385 712 50 712 m 230 417 l 534 417 l 534 423 q 385 571 534 571 q 230 417 242 571 m 217 969 l 339 969 l 386 881 l 434 969 l 556 969 l 437 793 l 335 793 l 217 969 "},"œ":{"x_min":40.6875,"x_max":1214.015625,"ha":1261,"o":"m 217 358 q 390 142 217 142 q 563 358 563 142 q 390 569 563 569 q 217 358 217 569 m 750 417 l 1040 417 q 897 571 1036 571 q 750 417 762 571 m 40 354 q 386 712 40 712 q 647 597 565 712 q 896 712 727 712 q 1214 377 1214 712 q 1208 286 1214 334 l 745 286 q 990 142 745 142 q 1180 161 1090 142 l 1180 21 q 954 0 1087 0 q 648 99 735 0 q 386 0 570 0 q 40 354 54 0 "},"̦":{"x_min":16.953125,"x_max":298.421875,"ha":315,"o":"m 298 -67 l 196 -257 l 16 -257 l 118 -67 l 298 -67 "},"#":{"x_min":67.828125,"x_max":1216.046875,"ha":1284,"o":"m 544 594 l 483 337 l 739 337 l 800 594 l 544 594 m 273 -3 l 333 233 l 67 233 l 88 337 l 360 337 l 421 594 l 149 594 l 169 698 l 448 698 l 516 966 l 638 966 l 571 698 l 827 698 l 896 969 l 1018 969 l 950 698 l 1216 698 l 1195 594 l 923 594 l 862 337 l 1134 337 l 1114 233 l 834 233 l 773 -3 l 651 -3 l 712 233 l 456 233 l 395 -3 l 273 -3 "},"Å":{"x_min":16.953125,"x_max":1042.421875,"ha":1059,"o":"m 526 999 q 617 1092 617 999 q 526 1183 617 1183 q 432 1092 432 1183 q 526 999 432 999 m 201 0 l 16 0 l 428 969 l 431 969 q 371 1091 371 1003 q 526 1233 371 1233 q 678 1091 678 1233 q 619 969 678 1003 l 621 969 l 1042 0 l 849 0 l 738 264 l 416 264 l 478 420 l 673 420 l 520 784 l 201 0 "},"ș":{"x_min":50.859375,"x_max":654.484375,"ha":695,"o":"m 84 33 l 84 183 q 358 135 203 135 q 474 210 474 135 q 396 281 474 281 l 267 281 q 50 495 50 281 q 367 718 50 718 q 620 678 501 718 l 620 529 q 362 576 501 576 q 217 501 217 576 q 301 430 217 430 l 417 430 q 654 217 654 430 q 352 -6 654 -6 q 84 33 203 -6 m 493 -67 l 392 -257 l 212 -257 l 314 -67 l 493 -67 "},"¸":{"x_min":67.828125,"x_max":398.109375,"ha":466,"o":"m 67 -165 q 214 -199 141 -199 q 287 -162 287 -199 q 231 -132 287 -132 l 107 -132 l 196 50 l 307 50 l 252 -52 q 398 -162 398 -52 q 214 -286 398 -286 q 67 -252 141 -286 l 67 -165 "},"⋲":{"x_min":67.828125,"x_max":644.3125,"ha":712,"o":"m 644 311 l 644 169 q 495 135 569 135 q 349 169 421 135 q 206 203 277 203 q 67 169 137 203 l 67 311 q 217 345 143 345 q 362 311 290 345 q 505 278 434 278 q 644 311 575 278 m 644 542 l 644 400 q 495 366 569 366 q 349 400 421 366 q 206 434 277 434 q 67 400 137 434 l 67 542 q 217 576 143 576 q 362 542 290 576 q 505 508 434 508 q 644 542 575 508 "},"=":{"x_min":67.828125,"x_max":576.484375,"ha":644,"o":"m 576 305 l 576 162 l 67 162 l 67 305 l 576 305 m 576 549 l 576 406 l 67 406 l 67 549 l 576 549 "},"ρ":{"x_min":54.265625,"x_max":771.140625,"ha":812,"o":"m 233 192 q 385 149 287 149 q 593 373 593 149 q 406 567 593 567 q 233 373 233 567 l 233 192 m 54 373 q 408 712 54 712 q 771 373 771 712 q 385 0 771 0 q 233 40 293 0 l 233 -257 l 54 -257 l 54 373 "},"ú":{"x_min":84.78125,"x_max":725.703125,"ha":810,"o":"m 725 712 l 725 0 l 585 0 l 563 90 q 303 0 440 0 q 84 258 84 0 l 84 712 l 264 712 l 264 263 q 367 145 264 145 q 545 215 455 145 l 545 712 l 725 712 m 398 969 l 614 969 l 452 794 l 300 794 l 398 969 "},"˚":{"x_min":67.828125,"x_max":374.375,"ha":442,"o":"m 128 924 q 222 831 128 831 q 313 924 313 831 q 222 1015 313 1015 q 128 924 128 1015 m 67 923 q 222 1065 67 1065 q 374 923 374 1065 q 222 781 374 781 q 67 923 67 781 "},"д":{"x_min":0,"x_max":971.890625,"ha":996,"o":"m 362 142 l 666 142 l 666 569 l 470 569 q 362 142 470 271 m 0 -257 l 0 142 l 124 142 q 290 569 290 142 l 290 712 l 846 712 l 846 142 l 971 142 l 971 -257 l 792 -257 l 792 0 l 179 0 l 179 -257 l 0 -257 "},"¯":{"x_min":67.828125,"x_max":406.9375,"ha":475,"o":"m 406 969 l 406 827 l 67 827 l 67 969 l 406 969 "},"u":{"x_min":84.78125,"x_max":725.703125,"ha":810,"o":"m 725 712 l 725 0 l 585 0 l 563 90 q 303 0 440 0 q 84 258 84 0 l 84 712 l 264 712 l 264 263 q 367 145 264 145 q 545 215 455 145 l 545 712 l 725 712 "},"З":{"x_min":67.828125,"x_max":715.53125,"ha":756,"o":"m 67 935 q 352 976 203 976 q 715 712 715 976 q 588 491 715 552 q 715 271 715 434 q 352 -6 715 -6 q 67 33 203 -6 l 67 196 q 352 149 203 149 q 535 271 535 149 q 405 413 535 413 l 169 413 l 169 569 l 403 569 q 535 712 535 569 q 352 820 535 820 q 67 773 203 820 l 67 935 "},"Α":{"x_min":16.953125,"x_max":1042.421875,"ha":1059,"o":"m 201 0 l 16 0 l 428 969 l 621 969 l 1042 0 l 849 0 l 738 264 l 416 264 l 478 420 l 673 420 l 520 784 l 201 0 "},"":{"x_min":84.78125,"x_max":1154.328125,"ha":1239,"o":"m 536 569 l 264 569 l 264 0 l 84 0 l 84 746 q 370 1005 84 1005 q 485 984 431 1005 l 485 842 q 377 862 442 862 q 264 752 264 862 l 264 712 l 536 712 l 536 746 q 856 1018 536 1018 q 1086 971 971 1018 l 1086 828 q 869 876 982 876 q 716 752 716 876 l 716 712 l 1154 712 l 1154 54 q 1030 -297 1154 -161 l 889 -198 q 974 54 974 -107 l 974 569 l 716 569 l 716 0 l 536 0 l 536 569 "},"é":{"x_min":50.859375,"x_max":709.421875,"ha":760,"o":"m 385 712 q 709 381 709 712 q 703 293 709 337 l 230 293 q 451 142 230 142 q 667 162 559 142 l 667 20 q 438 0 573 0 q 50 364 50 0 q 385 712 50 712 m 230 417 l 534 417 l 534 423 q 385 571 534 571 q 230 417 242 571 m 379 969 l 596 969 l 434 794 l 282 794 l 379 969 "},"Ş":{"x_min":50.859375,"x_max":817.265625,"ha":868,"o":"m 356 -5 q 84 40 207 0 l 84 203 q 414 149 230 149 q 637 298 637 149 q 500 406 637 406 l 348 406 q 50 678 50 406 q 474 976 50 976 q 783 929 637 976 l 783 766 q 474 820 637 820 q 230 678 230 820 q 348 569 230 569 l 500 569 q 817 298 817 569 q 465 -5 817 13 l 440 -52 q 585 -162 585 -52 q 402 -286 585 -286 q 255 -252 328 -286 l 255 -165 q 402 -199 328 -199 q 475 -162 475 -199 q 419 -132 475 -132 l 295 -132 l 356 -5 "},"B":{"x_min":101.734375,"x_max":845.0625,"ha":896,"o":"m 101 0 l 101 969 l 556 969 q 832 744 832 969 q 652 507 832 578 q 845 286 845 471 q 541 0 845 0 l 101 0 m 534 155 q 653 278 653 155 q 475 429 653 429 l 421 429 l 421 545 q 644 732 644 582 q 544 813 644 813 l 281 813 l 281 155 l 534 155 "},"…":{"x_min":67.828125,"x_max":925.78125,"ha":994,"o":"m 247 166 l 247 0 l 67 0 l 67 166 l 247 166 m 586 166 l 586 0 l 406 0 l 406 166 l 586 166 m 925 166 l 925 0 l 746 0 l 746 166 l 925 166 "},"H":{"x_min":101.734375,"x_max":939.34375,"ha":1041,"o":"m 101 0 l 101 969 l 281 969 l 281 569 l 759 569 l 759 969 l 939 969 l 939 0 l 759 0 l 759 413 l 281 413 l 281 0 l 101 0 "},"î":{"x_min":5.4375,"x_max":344.546875,"ha":349,"o":"m 265 712 l 265 0 l 85 0 l 85 712 l 265 712 m 124 969 l 225 969 l 344 793 l 222 793 l 174 881 l 127 793 l 5 793 l 124 969 "},"ν":{"x_min":0,"x_max":732.484375,"ha":732,"o":"m 0 712 l 189 712 l 362 214 l 542 712 l 732 712 l 442 0 l 271 0 l 0 712 "},"Ό":{"x_min":-33.90625,"x_max":1144.84375,"ha":1213,"o":"m 63 969 l 280 969 l 118 794 l -33 794 l 63 969 m 364 487 q 665 149 364 149 q 958 487 958 149 q 665 820 958 820 q 364 487 364 820 m 178 483 q 665 976 178 976 q 1144 483 1144 976 q 665 -6 1144 -6 q 178 483 200 -6 "},"−":{"x_min":67.828125,"x_max":576.484375,"ha":644,"o":"m 576 427 l 576 284 l 67 284 l 67 427 l 576 427 "},"ā":{"x_min":50.859375,"x_max":685,"ha":770,"o":"m 50 221 q 360 434 50 434 q 505 420 432 434 l 505 474 q 367 569 505 569 q 108 535 250 569 l 108 678 q 367 712 250 712 q 685 477 685 712 l 685 0 l 580 0 l 516 63 q 311 0 423 0 q 50 221 50 0 m 505 298 q 360 311 437 311 q 230 223 230 311 q 339 128 230 128 q 505 184 428 128 l 505 298 m 564 969 l 564 827 l 225 827 l 225 969 l 564 969 "},"ĵ":{"x_min":0,"x_max":345.890625,"ha":349,"o":"m 264 712 l 264 54 q 141 -297 264 -161 l 0 -198 q 84 54 84 -107 l 84 712 l 264 712 m 125 969 l 227 969 l 345 793 l 223 793 l 176 881 l 128 793 l 6 793 l 125 969 "},"Ĩ":{"x_min":22.390625,"x_max":361.5,"ha":383,"o":"m 282 969 l 282 0 l 102 0 l 102 969 l 282 969 m 22 1196 q 110 1227 63 1227 q 185 1209 145 1227 q 262 1192 224 1192 q 361 1223 313 1192 l 361 1081 q 273 1049 320 1049 q 198 1067 238 1049 q 121 1085 159 1085 q 22 1053 70 1085 l 22 1196 "},"*":{"x_min":67.828125,"x_max":482.21875,"ha":549,"o":"m 222 969 l 328 969 l 307 812 l 449 881 l 482 781 l 327 752 l 435 636 l 352 574 l 275 713 l 198 575 l 114 635 l 223 751 l 67 779 l 100 881 l 243 811 l 222 969 "},"ă":{"x_min":50.859375,"x_max":685,"ha":770,"o":"m 50 221 q 360 434 50 434 q 505 420 432 434 l 505 474 q 367 569 505 569 q 108 535 250 569 l 108 678 q 367 712 250 712 q 685 477 685 712 l 685 0 l 580 0 l 516 63 q 311 0 423 0 q 50 221 50 0 m 505 298 q 360 311 437 311 q 230 223 230 311 q 339 128 230 128 q 505 184 428 128 l 505 298 m 195 969 l 314 969 q 395 874 314 874 q 476 969 476 874 l 595 969 q 395 773 595 773 q 195 969 195 773 "},"Χ":{"x_min":16.953125,"x_max":1007.15625,"ha":1019,"o":"m 398 484 l 16 969 l 244 969 l 512 615 l 779 969 l 1007 969 l 626 484 l 1007 0 l 779 0 l 512 354 l 244 0 l 16 0 l 398 484 "},"†":{"x_min":33.90625,"x_max":722.3125,"ha":756,"o":"m 471 969 l 471 685 l 722 685 l 722 529 l 471 529 l 471 0 l 291 0 l 291 529 l 33 529 l 33 685 l 291 685 l 291 969 l 471 969 "},"°":{"x_min":67.828125,"x_max":523.59375,"ha":591,"o":"m 196 754 q 297 654 196 654 q 394 754 394 654 q 297 851 394 851 q 196 754 196 851 m 67 752 q 297 969 67 969 q 523 752 523 969 q 297 536 523 536 q 67 752 67 536 "},"Ξ":{"x_min":67.828125,"x_max":743.328125,"ha":811,"o":"m 67 162 l 743 162 l 743 0 l 67 0 l 67 162 m 67 969 l 743 969 l 743 807 l 67 807 l 67 969 m 108 578 l 702 578 l 702 415 l 108 415 l 108 578 "},"":{"x_min":67.828125,"x_max":1101.4375,"ha":1169,"o":"m 800 225 l 800 294 l 628 303 l 628 669 l 714 669 l 748 398 l 826 398 l 800 744 l 638 744 l 584 718 l 531 744 l 368 744 l 342 398 l 419 398 l 454 669 l 541 669 l 541 303 l 368 294 l 368 225 l 800 225 m 362 902 l 387 962 l 447 937 l 483 991 l 538 955 l 584 1001 l 630 955 l 685 991 l 721 937 l 781 962 l 807 902 l 870 914 l 884 849 l 950 849 l 950 784 l 1013 771 l 1001 708 l 1061 682 l 1037 621 l 1091 586 l 1055 531 l 1101 485 l 1054 438 l 1091 383 l 1036 347 l 1061 286 l 1001 261 l 1013 198 l 950 185 l 950 120 l 884 120 l 870 54 l 807 67 l 781 7 l 721 32 l 685 -21 l 630 14 l 584 -31 l 538 14 l 483 -21 l 447 32 l 387 7 l 362 67 l 297 54 l 284 120 l 219 120 l 219 185 l 154 198 l 167 261 l 106 288 l 131 347 l 77 383 l 114 438 l 67 485 l 114 531 l 77 586 l 132 623 l 107 682 l 168 708 l 155 771 l 219 784 l 219 849 l 284 849 l 297 914 l 362 902 m 584 913 q 281 788 406 913 q 155 485 155 662 q 281 181 155 307 q 584 56 406 56 q 887 181 762 56 q 1013 485 1013 307 q 887 788 1013 662 q 584 913 762 913 m 584 876 q 861 761 746 876 q 975 485 975 647 q 861 207 975 322 q 584 92 746 92 q 307 207 422 92 q 193 485 193 322 q 307 761 193 647 q 584 876 422 876 "},"Ķ":{"x_min":101.734375,"x_max":1007.15625,"ha":973,"o":"m 281 969 l 281 0 l 101 0 l 101 969 l 281 969 m 963 969 l 550 517 l 1007 0 l 758 0 l 383 453 l 383 569 l 744 969 l 963 969 m 627 -67 l 525 -257 l 345 -257 l 447 -67 l 627 -67 "},"ŵ":{"x_min":16.953125,"x_max":1053.953125,"ha":1084,"o":"m 16 712 l 198 712 l 290 216 l 455 712 l 609 712 l 786 216 l 866 712 l 1053 712 l 868 0 l 699 0 l 531 505 l 362 0 l 190 0 l 16 712 m 484 969 l 586 969 l 705 793 l 583 793 l 535 881 l 488 793 l 366 793 l 484 969 "},"΄":{"x_min":67.828125,"x_max":381.84375,"ha":450,"o":"m 165 969 l 381 969 l 219 794 l 67 794 l 165 969 "},"Β":{"x_min":101.734375,"x_max":845.0625,"ha":896,"o":"m 101 0 l 101 969 l 556 969 q 832 744 832 969 q 652 507 832 578 q 845 286 845 471 q 541 0 845 0 l 101 0 m 534 155 q 653 278 653 155 q 475 429 653 429 l 421 429 l 421 545 q 644 732 644 582 q 544 813 644 813 l 281 813 l 281 155 l 534 155 "},"Ļ":{"x_min":101.734375,"x_max":666.6875,"ha":735,"o":"m 281 969 l 281 155 l 666 155 l 666 0 l 101 0 l 101 969 l 281 969 m 491 -67 l 389 -257 l 209 -257 l 311 -67 l 491 -67 "},"Õ":{"x_min":67.828125,"x_max":1034.296875,"ha":1102,"o":"m 254 487 q 554 149 254 149 q 847 487 847 149 q 554 820 847 820 q 254 487 254 820 m 67 483 q 554 976 67 976 q 1034 483 1034 976 q 554 -6 1034 -6 q 67 483 89 -6 m 381 1196 q 470 1227 422 1227 q 544 1209 505 1227 q 621 1192 583 1192 q 720 1223 672 1192 l 720 1081 q 632 1049 680 1049 q 558 1067 597 1049 q 480 1085 518 1085 q 381 1053 429 1085 l 381 1196 "},"χ":{"x_min":16.953125,"x_max":783.34375,"ha":800,"o":"m 303 227 l 16 712 l 210 712 l 400 377 l 590 712 l 776 712 l 493 232 l 783 -257 l 590 -257 l 396 82 l 203 -257 l 16 -257 l 303 227 "},"ί":{"x_min":86.8125,"x_max":400.828125,"ha":383,"o":"m 281 712 l 281 0 l 101 0 l 101 712 l 281 712 m 184 969 l 400 969 l 238 794 l 86 794 l 184 969 "},"Ζ":{"x_min":84.78125,"x_max":803.6875,"ha":848,"o":"m 803 969 l 803 813 l 287 155 l 803 155 l 803 0 l 84 0 l 84 155 l 623 813 l 98 813 l 98 969 l 803 969 "},"Ľ":{"x_min":101.734375,"x_max":668.046875,"ha":735,"o":"m 281 969 l 281 155 l 666 155 l 666 0 l 101 0 l 101 969 l 281 969 m 668 969 l 566 674 l 400 674 l 501 969 l 668 969 "},"ť":{"x_min":74.609375,"x_max":701.953125,"ha":451,"o":"m 74 827 l 207 827 l 234 712 l 413 712 l 413 569 l 254 569 l 254 242 q 340 142 254 142 l 413 142 l 413 0 l 253 0 q 74 191 74 0 l 74 827 m 701 969 l 600 674 l 434 674 l 535 969 l 701 969 "},"5":{"x_min":84.78125,"x_max":735.875,"ha":787,"o":"m 118 969 l 697 969 l 697 827 l 273 827 l 257 588 q 369 603 295 603 q 735 305 735 603 q 356 -6 735 -6 q 84 33 220 -6 l 84 183 q 362 135 220 135 q 556 305 556 135 q 369 461 556 461 q 84 427 217 461 l 118 969 "},"o":{"x_min":50.859375,"x_max":756.21875,"ha":807,"o":"m 230 358 q 403 135 230 135 q 576 358 576 135 q 403 576 576 576 q 230 358 230 576 m 50 356 q 403 714 50 714 q 756 356 756 714 q 403 -1 756 -1 q 50 356 52 -1 "},"d":{"x_min":50.859375,"x_max":715.53125,"ha":800,"o":"m 535 526 q 396 562 480 562 q 228 375 228 562 q 402 151 228 151 q 535 171 473 151 l 535 526 m 715 42 q 396 0 552 0 q 50 370 50 0 q 388 712 50 712 q 535 678 460 712 l 535 969 l 715 969 l 715 42 "},",":{"x_min":16.953125,"x_max":298.421875,"ha":315,"o":"m 298 125 l 196 -169 l 16 -169 l 118 125 l 298 125 "},"\"":{"x_min":67.828125,"x_max":484.921875,"ha":553,"o":"m 484 969 l 464 674 l 339 674 l 318 969 l 484 969 m 233 969 l 213 674 l 88 674 l 67 969 l 233 969 "},"ľ":{"x_min":84.78125,"x_max":600.234375,"ha":349,"o":"m 264 969 l 264 0 l 84 0 l 84 969 l 264 969 m 600 969 l 498 674 l 332 674 l 434 969 l 600 969 "},"ė":{"x_min":50.859375,"x_max":709.421875,"ha":760,"o":"m 385 712 q 709 381 709 712 q 703 293 709 337 l 230 293 q 451 142 230 142 q 667 162 559 142 l 667 20 q 438 0 573 0 q 50 364 50 0 q 385 712 50 712 m 230 417 l 534 417 l 534 423 q 385 571 534 571 q 230 417 242 571 m 466 969 l 466 820 l 307 820 l 307 969 l 466 969 "},"Í":{"x_min":86.8125,"x_max":400.828125,"ha":383,"o":"m 281 969 l 281 0 l 101 0 l 101 969 l 281 969 m 184 1227 l 400 1227 l 238 1051 l 86 1051 l 184 1227 "},"Ú":{"x_min":101.734375,"x_max":935.953125,"ha":1038,"o":"m 101 381 l 101 969 l 281 969 l 281 381 q 518 149 281 149 q 756 381 756 149 l 756 969 l 935 969 l 935 381 q 518 -6 935 -6 q 101 381 101 -6 m 512 1227 l 728 1227 l 566 1051 l 414 1051 l 512 1227 "},"Ŷ":{"x_min":16.953125,"x_max":925.78125,"ha":882,"o":"m 16 969 l 210 969 l 482 502 l 739 969 l 925 969 l 569 339 l 569 0 l 389 0 l 389 339 l 16 969 m 420 1227 l 522 1227 l 640 1051 l 518 1051 l 471 1139 l 423 1051 l 301 1051 l 420 1227 "},"Ý":{"x_min":16.953125,"x_max":925.78125,"ha":882,"o":"m 16 969 l 210 969 l 482 502 l 739 969 l 925 969 l 569 339 l 569 0 l 389 0 l 389 339 l 16 969 m 464 1227 l 680 1227 l 518 1051 l 366 1051 l 464 1227 "},"ŝ":{"x_min":50.859375,"x_max":654.484375,"ha":695,"o":"m 84 33 l 84 183 q 358 135 203 135 q 474 210 474 135 q 396 281 474 281 l 267 281 q 50 495 50 281 q 367 718 50 718 q 620 678 501 718 l 620 529 q 362 576 501 576 q 217 501 217 576 q 301 430 217 430 l 417 430 q 654 217 654 430 q 352 -6 654 -6 q 84 33 203 -6 m 301 969 l 403 969 l 522 793 l 400 793 l 352 881 l 305 793 l 183 793 l 301 969 "},"ą":{"x_min":50.859375,"x_max":685,"ha":770,"o":"m 360 311 q 230 223 230 311 q 339 128 230 128 q 505 184 428 128 l 505 298 q 360 311 437 311 m 505 0 l 505 63 q 311 0 423 0 q 50 221 50 0 q 360 434 50 434 q 505 420 432 434 l 505 474 q 367 569 505 569 q 108 535 250 569 l 108 678 q 367 712 250 712 q 685 477 685 712 l 685 0 q 523 -134 523 -65 q 581 -180 523 -180 q 674 -166 638 -180 l 674 -275 q 573 -288 632 -288 q 396 -151 396 -288 q 505 0 396 -62 "},"ã":{"x_min":50.859375,"x_max":685,"ha":770,"o":"m 50 221 q 360 434 50 434 q 505 420 432 434 l 505 474 q 367 569 505 569 q 108 535 250 569 l 108 678 q 367 712 250 712 q 685 477 685 712 l 685 0 l 580 0 l 516 63 q 311 0 423 0 q 50 221 50 0 m 505 298 q 360 311 437 311 q 230 223 230 311 q 339 128 230 128 q 505 184 428 128 l 505 298 m 212 938 q 300 969 252 969 q 375 952 335 969 q 452 934 414 934 q 551 965 503 934 l 551 823 q 463 792 510 792 q 388 809 427 792 q 311 827 349 827 q 212 796 260 827 l 212 938 "},"æ":{"x_min":50.859375,"x_max":1147.546875,"ha":1184,"o":"m 498 298 q 346 311 423 311 q 230 223 230 311 q 332 128 230 128 q 498 184 435 128 l 498 298 m 678 417 l 982 417 q 840 569 971 569 q 678 417 691 569 m 111 537 l 111 676 q 337 712 225 712 q 606 619 540 712 q 838 712 692 712 q 1147 395 1147 712 q 1139 293 1147 344 l 680 293 q 924 142 680 142 q 1117 162 1024 142 l 1117 20 q 886 0 1018 0 q 602 75 699 0 q 333 0 472 0 q 50 223 50 0 q 347 440 50 440 q 500 425 417 440 q 336 569 500 569 q 111 537 221 569 "},"ĩ":{"x_min":5.4375,"x_max":344.546875,"ha":349,"o":"m 265 712 l 265 0 l 85 0 l 85 712 l 265 712 m 5 938 q 93 969 46 969 q 168 952 128 969 q 245 934 207 934 q 344 965 296 934 l 344 823 q 256 792 303 792 q 181 809 221 792 q 104 827 142 827 q 5 796 53 827 l 5 938 "},"~":{"x_min":67.828125,"x_max":576.484375,"ha":644,"o":"m 67 413 q 177 455 107 455 q 315 427 236 455 q 455 400 394 400 q 576 440 529 400 l 576 298 q 466 257 537 257 q 328 284 408 257 q 188 312 249 312 q 67 271 114 312 l 67 413 "},"ŀ":{"x_min":84.78125,"x_max":517.484375,"ha":349,"o":"m 264 969 l 264 0 l 84 0 l 84 969 l 264 969 m 347 387 q 432 472 347 472 q 517 387 517 472 q 432 303 517 303 q 347 387 347 303 "},"Ċ":{"x_min":67.828125,"x_max":874.90625,"ha":943,"o":"m 874 40 q 590 -6 749 -6 q 67 498 67 -6 q 590 976 67 976 q 874 929 749 976 l 874 766 q 603 820 749 820 q 254 498 254 820 q 603 149 254 149 q 874 203 749 149 l 874 40 m 659 1227 l 659 1078 l 500 1078 l 500 1227 l 659 1227 "},"¡":{"x_min":101.734375,"x_max":281.46875,"ha":383,"o":"m 101 -257 l 101 461 l 281 461 l 281 -257 l 101 -257 m 101 545 l 101 712 l 281 712 l 281 545 l 101 545 "},"":{"x_min":74.609375,"x_max":793.515625,"ha":858,"o":"m 74 352 q 534 931 74 709 l 606 797 q 298 567 408 718 q 458 610 366 610 q 793 311 793 610 q 425 -6 793 -6 q 74 352 74 -6 m 247 349 q 438 135 247 135 q 616 311 616 135 q 438 467 616 467 q 266 435 341 467 q 247 349 247 401 "},"К":{"x_min":101.734375,"x_max":923.734375,"ha":941,"o":"m 281 969 l 281 0 l 101 0 l 101 969 l 281 969 m 697 0 q 468 394 515 345 q 369 442 422 442 l 369 573 q 548 771 464 573 q 820 969 632 969 l 893 969 l 893 827 l 839 827 q 705 683 766 827 q 533 514 643 540 q 644 442 586 499 q 923 0 702 386 l 697 0 "},"Γ":{"x_min":101.734375,"x_max":734.515625,"ha":735,"o":"m 101 0 l 101 969 l 734 969 l 734 813 l 281 813 l 281 0 l 101 0 "},"P":{"x_min":101.734375,"x_max":832.859375,"ha":850,"o":"m 101 0 l 101 969 l 535 969 q 832 696 832 969 q 426 337 832 400 l 400 497 q 644 691 644 541 q 524 811 644 811 l 281 811 l 281 0 l 101 0 "},"%":{"x_min":67.828125,"x_max":950.875,"ha":1019,"o":"m 247 0 l 67 0 l 757 969 l 937 969 l 247 0 m 196 774 q 290 674 196 674 q 381 774 381 674 q 290 858 381 858 q 196 774 196 858 m 67 773 q 290 976 67 976 q 510 773 510 976 q 290 556 510 556 q 67 773 67 556 m 637 204 q 731 111 637 111 q 822 204 822 111 q 731 295 822 295 q 637 204 637 295 m 508 202 q 731 413 508 413 q 950 202 950 413 q 731 -6 950 -6 q 508 202 508 -6 "},"_":{"x_min":16.953125,"x_max":695.171875,"ha":712,"o":"m 695 0 l 695 -142 l 16 -142 l 16 0 l 695 0 "},"ñ":{"x_min":84.78125,"x_max":732.484375,"ha":817,"o":"m 84 0 l 84 712 l 223 712 l 246 607 q 479 712 348 712 q 732 448 732 712 l 732 0 l 552 0 l 552 448 q 435 567 552 567 q 264 497 347 567 l 264 0 l 84 0 m 252 938 q 341 969 293 969 q 415 952 376 969 q 493 934 455 934 q 592 965 543 934 l 592 823 q 503 792 551 792 q 429 809 468 792 q 352 827 389 827 q 252 796 301 827 l 252 938 "},"Ŕ":{"x_min":101.734375,"x_max":915.59375,"ha":899,"o":"m 101 1 l 101 969 l 542 969 q 839 710 839 969 q 608 419 839 534 l 915 0 l 689 0 l 394 422 l 394 504 q 651 704 651 548 q 531 811 651 811 l 284 811 l 284 1 l 101 1 m 434 1227 l 650 1227 l 488 1051 l 336 1051 l 434 1227 "},"‚":{"x_min":33.90625,"x_max":261.109375,"ha":295,"o":"m 261 125 l 159 -169 l 33 -169 l 135 125 l 261 125 "},"Æ":{"x_min":16.953125,"x_max":1220.796875,"ha":1306,"o":"m 550 406 l 596 264 l 312 264 l 208 0 l 16 0 l 428 969 l 1207 969 l 1207 813 l 672 813 l 781 569 l 1183 569 l 1183 413 l 848 413 l 961 155 l 1220 155 l 1220 0 l 828 0 l 516 775 l 367 406 l 550 406 "},"Ū":{"x_min":101.734375,"x_max":935.953125,"ha":1038,"o":"m 101 381 l 101 969 l 281 969 l 281 381 q 518 149 281 149 q 756 381 756 149 l 756 969 l 935 969 l 935 381 q 518 -6 935 -6 q 101 381 101 -6 m 688 1227 l 688 1085 l 349 1085 l 349 1227 l 688 1227 "},"ы":{"x_min":84.78125,"x_max":959.6875,"ha":1044,"o":"m 779 0 l 779 712 l 959 712 l 959 0 l 779 0 m 264 712 l 264 144 l 480 144 q 546 218 546 144 q 477 270 546 270 l 356 270 l 356 413 l 483 413 q 727 212 727 413 q 491 0 727 0 l 84 0 l 84 712 l 264 712 "},"Œ":{"x_min":67.828125,"x_max":1417.484375,"ha":1502,"o":"m 254 487 q 554 155 254 155 q 841 487 841 155 q 554 813 841 813 q 254 487 254 813 m 67 483 q 554 969 67 969 l 1407 969 l 1407 813 l 932 813 q 1027 569 1007 737 l 1383 569 l 1383 413 l 1027 413 q 938 155 1013 249 l 1417 155 l 1417 0 l 554 0 q 67 483 89 0 "},"΅":{"x_min":67.828125,"x_max":708.75,"ha":777,"o":"m 708 969 l 708 841 l 562 841 l 562 969 l 708 969 m 213 969 l 213 841 l 67 841 l 67 969 l 213 969 m 321 969 l 537 969 l 375 794 l 223 794 l 321 969 "},"Ą":{"x_min":16.953125,"x_max":1042.421875,"ha":1059,"o":"m 201 0 l 16 0 l 428 969 l 621 969 l 1042 0 q 881 -134 881 -65 q 938 -180 881 -180 q 1031 -166 996 -180 l 1031 -275 q 930 -288 990 -288 q 753 -151 753 -288 q 849 0 753 -62 l 738 264 l 416 264 l 478 420 l 673 420 l 520 784 l 201 0 "},"›":{"x_min":33.90625,"x_max":393.375,"ha":427,"o":"m 218 101 l 33 101 l 208 356 l 33 610 l 218 610 l 393 356 l 218 101 "},"<":{"x_min":67.828125,"x_max":678.21875,"ha":746,"o":"m 67 291 l 67 420 l 678 678 l 678 508 l 289 353 l 678 203 l 678 33 l 67 291 "},"¬":{"x_min":67.828125,"x_max":668.046875,"ha":736,"o":"m 67 712 l 668 712 l 668 440 l 525 440 l 525 569 l 67 569 l 67 712 "},"t":{"x_min":74.609375,"x_max":413.71875,"ha":451,"o":"m 74 827 l 207 827 l 234 712 l 413 712 l 413 569 l 254 569 l 254 242 q 340 142 254 142 l 413 142 l 413 0 l 253 0 q 74 191 74 0 l 74 827 "},"Ц":{"x_min":101.734375,"x_max":1035.640625,"ha":1049,"o":"m 101 0 l 101 969 l 281 969 l 281 155 l 730 155 l 730 969 l 910 969 l 910 155 l 1035 155 l 1035 -257 l 855 -257 l 855 0 l 101 0 "},"ù":{"x_min":84.78125,"x_max":725.703125,"ha":810,"o":"m 725 712 l 725 0 l 585 0 l 563 90 q 303 0 440 0 q 84 258 84 0 l 84 712 l 264 712 l 264 263 q 367 145 264 145 q 545 215 455 145 l 545 712 l 725 712 m 510 794 l 358 794 l 196 969 l 412 969 l 510 794 "},"":{"x_min":64.4375,"x_max":783.34375,"ha":861,"o":"m 783 357 q 323 -221 783 0 l 251 -87 q 559 142 449 -8 q 399 99 491 99 q 64 398 64 99 q 432 716 64 716 q 783 357 783 716 m 610 360 q 419 574 610 574 q 241 398 241 574 q 419 242 241 242 q 591 274 516 242 q 610 360 610 308 "},"ï":{"x_min":-13.5625,"x_max":362.84375,"ha":349,"o":"m 264 712 l 264 0 l 84 0 l 84 712 l 264 712 m 362 969 l 362 841 l 217 841 l 217 969 l 362 969 m 132 969 l 132 841 l -13 841 l -13 969 l 132 969 "},"Ф":{"x_min":67.828125,"x_max":1101.4375,"ha":1169,"o":"m 495 76 q 67 483 67 101 q 495 893 67 868 l 495 969 l 674 969 l 674 893 q 1101 483 1101 870 q 674 75 1101 98 l 674 0 l 495 0 l 495 76 m 495 233 l 495 736 q 253 487 253 712 q 495 233 253 258 m 674 737 l 674 232 q 915 487 915 255 q 674 737 915 714 "},"Ò":{"x_min":67.828125,"x_max":1034.296875,"ha":1102,"o":"m 254 487 q 554 149 254 149 q 847 487 847 149 q 554 820 847 820 q 254 487 254 820 m 67 483 q 554 976 67 976 q 1034 483 1034 976 q 554 -6 1034 -6 q 67 483 89 -6 m 655 1051 l 503 1051 l 341 1227 l 558 1227 l 655 1051 "},"I":{"x_min":101.734375,"x_max":281.46875,"ha":383,"o":"m 281 969 l 281 0 l 101 0 l 101 969 l 281 969 "},"˝":{"x_min":67.828125,"x_max":657.203125,"ha":725,"o":"m 165 969 l 381 969 l 219 794 l 67 794 l 165 969 m 440 969 l 657 969 l 495 794 l 343 794 l 440 969 "},"·":{"x_min":67.828125,"x_max":237.375,"ha":305,"o":"m 67 356 q 152 440 67 440 q 237 356 237 440 q 152 271 237 271 q 67 356 67 271 "},"¿":{"x_min":67.828125,"x_max":688.390625,"ha":756,"o":"m 406 545 l 406 712 l 586 712 l 586 545 l 406 545 m 688 -223 q 417 -257 545 -257 q 67 6 67 -257 q 406 305 67 305 l 406 461 l 586 461 l 586 162 l 406 162 q 233 6 233 162 q 417 -115 233 -115 q 688 -81 545 -115 l 688 -223 "},"ſ":{"x_min":84.78125,"x_max":563.609375,"ha":360,"o":"m 84 0 l 84 712 q 404 1005 84 1005 q 563 978 492 1005 l 563 835 q 404 862 496 862 q 264 712 264 862 l 264 0 l 84 0 "},"ű":{"x_min":84.78125,"x_max":725.703125,"ha":810,"o":"m 725 712 l 725 0 l 585 0 l 563 90 q 303 0 440 0 q 84 258 84 0 l 84 712 l 264 712 l 264 263 q 367 145 264 145 q 545 215 455 145 l 545 712 l 725 712 m 208 969 l 424 969 l 262 794 l 110 794 l 208 969 m 483 969 l 699 969 l 537 794 l 385 794 l 483 969 "},"φ":{"x_min":40.6875,"x_max":1034.296875,"ha":1075,"o":"m 162 712 l 356 712 q 220 373 220 559 q 440 128 220 142 l 440 444 q 735 712 440 712 q 1034 373 1034 712 q 620 -13 1034 0 l 620 -257 l 440 -257 l 440 -13 q 40 373 40 0 q 162 712 40 559 m 620 128 q 854 373 854 142 q 737 569 854 569 q 620 444 620 569 l 620 128 "},";":{"x_min":67.828125,"x_max":349.28125,"ha":417,"o":"m 349 712 l 349 545 l 169 545 l 169 712 l 349 712 m 349 125 l 247 -169 l 67 -169 l 169 125 l 349 125 "},"Ș":{"x_min":50.859375,"x_max":817.265625,"ha":868,"o":"m 84 40 l 84 203 q 414 149 230 149 q 637 298 637 149 q 500 406 637 406 l 348 406 q 50 678 50 406 q 474 976 50 976 q 783 929 637 976 l 783 766 q 474 820 637 820 q 230 678 230 820 q 348 569 230 569 l 500 569 q 817 298 817 569 q 414 -6 817 -6 q 84 40 230 -6 m 575 -67 l 473 -257 l 293 -257 l 395 -67 l 575 -67 "},"Ġ":{"x_min":67.828125,"x_max":874.90625,"ha":943,"o":"m 874 44 q 581 -6 757 -6 q 67 498 67 -6 q 590 976 67 976 q 874 929 749 976 l 874 766 q 603 820 749 820 q 254 498 254 820 q 583 149 254 149 q 695 165 632 149 l 695 447 l 874 447 l 874 44 m 653 1227 l 653 1078 l 493 1078 l 493 1227 l 653 1227 "},"6":{"x_min":67.828125,"x_max":813.875,"ha":848,"o":"m 67 373 q 534 999 67 750 l 619 858 q 291 594 381 749 q 458 623 373 623 q 813 325 813 623 q 432 -6 813 -6 q 67 373 67 -6 m 240 377 q 438 135 240 135 q 636 325 636 135 q 452 481 636 481 q 252 448 347 481 q 240 377 240 421 "},"n":{"x_min":84.78125,"x_max":732.484375,"ha":817,"o":"m 84 0 l 84 712 l 223 712 l 246 607 q 479 712 348 712 q 732 448 732 712 l 732 0 l 552 0 l 552 448 q 435 567 552 567 q 264 497 347 567 l 264 0 l 84 0 "},"ά":{"x_min":40.6875,"x_max":901.359375,"ha":935,"o":"m 40 356 q 373 712 40 712 q 660 533 583 712 l 720 712 l 901 712 l 780 354 l 891 0 l 708 0 l 650 196 q 373 0 564 0 q 40 356 42 0 m 220 358 q 373 142 220 142 q 579 358 505 142 q 373 569 505 569 q 220 358 220 569 m 463 969 l 680 969 l 518 794 l 366 794 l 463 969 "},"ϊ":{"x_min":3.390625,"x_max":379.796875,"ha":383,"o":"m 281 712 l 281 0 l 101 0 l 101 712 l 281 712 m 379 969 l 379 841 l 233 841 l 233 969 l 379 969 m 149 969 l 149 841 l 3 841 l 3 969 l 149 969 "},"":{"x_min":50.859375,"x_max":746.046875,"ha":770,"o":"m 376 712 q 548 678 475 712 l 647 712 l 746 712 l 746 569 l 654 569 q 685 465 684 516 q 367 213 685 213 q 263 227 304 213 q 230 163 230 198 q 270 128 230 128 l 483 128 q 725 -50 725 128 q 358 -271 725 -271 q 50 -210 193 -271 l 50 -54 q 360 -128 196 -128 q 552 -50 552 -128 q 485 -13 552 -13 l 219 -13 q 61 118 61 -13 q 155 271 61 208 q 57 459 57 339 q 376 712 57 712 m 237 464 q 373 359 237 359 q 505 464 505 359 q 373 569 505 569 q 237 464 237 569 "},"ģ":{"x_min":50.859375,"x_max":720.265625,"ha":805,"o":"m 540 550 q 401 567 496 567 q 228 361 228 567 q 368 162 228 162 q 540 199 466 162 l 540 550 m 720 0 q 338 -257 720 -257 q 105 -223 206 -257 l 105 -81 q 339 -115 208 -115 q 540 47 540 -115 q 368 13 460 13 q 50 360 50 13 q 420 712 50 712 q 720 682 544 712 l 720 0 m 580 969 l 478 779 l 299 779 l 400 969 l 580 969 "},"κ":{"x_min":84.78125,"x_max":820.65625,"ha":851,"o":"m 804 712 l 505 388 l 820 0 l 598 0 l 345 344 l 345 420 l 598 712 l 804 712 m 264 712 l 264 0 l 84 0 l 84 712 l 264 712 "},"∂":{"x_min":101.0625,"x_max":875.578125,"ha":877,"o":"m 538 834 q 242 739 364 834 l 242 895 q 552 976 387 976 q 875 654 875 976 q 855 474 875 574 q 366 -6 759 -6 q 101 204 101 -6 q 110 291 101 244 q 539 588 169 588 l 698 588 q 708 674 708 636 q 538 834 708 834 m 676 434 l 518 434 q 290 291 326 434 q 281 230 281 257 q 389 135 281 135 q 676 434 593 135 "},"ň":{"x_min":84.78125,"x_max":732.484375,"ha":817,"o":"m 84 0 l 84 712 l 223 712 l 246 607 q 479 712 348 712 q 732 448 732 712 l 732 0 l 552 0 l 552 448 q 435 567 552 567 q 264 497 347 567 l 264 0 l 84 0 m 249 969 l 371 969 l 419 881 l 466 969 l 588 969 l 470 793 l 368 793 l 249 969 "},"‡":{"x_min":33.90625,"x_max":674.828125,"ha":709,"o":"m 444 969 l 444 712 l 674 712 l 674 569 l 444 569 l 444 142 l 674 142 l 674 0 l 444 0 l 444 -257 l 264 -257 l 264 0 l 33 0 l 33 142 l 264 142 l 264 569 l 33 569 l 33 712 l 264 712 l 264 969 l 444 969 "},"ę":{"x_min":50.859375,"x_max":709.421875,"ha":760,"o":"m 230 417 l 534 417 l 534 423 q 385 571 534 571 q 230 417 242 571 m 496 1 q 438 0 468 0 q 50 364 50 0 q 385 712 50 712 q 709 381 709 712 q 703 293 709 337 l 230 293 q 451 142 230 142 q 667 162 559 142 l 667 20 q 505 -134 505 -65 q 563 -180 505 -180 q 656 -166 621 -180 l 656 -275 q 555 -288 615 -288 q 378 -151 378 -288 q 487 0 378 -62 l 496 1 "},"√":{"x_min":50.859375,"x_max":929.171875,"ha":929,"o":"m 50 712 l 311 712 l 460 233 l 759 1257 l 929 1257 l 535 -4 l 383 -4 l 200 569 l 50 569 l 50 712 "},"į":{"x_min":-10.859375,"x_max":267.21875,"ha":349,"o":"m 264 969 l 264 827 l 84 827 l 84 969 l 264 969 m 84 0 l 84 712 l 264 712 l 264 0 q 116 -134 116 -65 q 174 -180 116 -180 q 267 -166 231 -180 l 267 -275 q 166 -288 225 -288 q -10 -151 -10 -288 q 84 0 -10 -62 "},"Τ":{"x_min":0,"x_max":735.875,"ha":736,"o":"m 735 969 l 735 813 l 457 813 l 457 0 l 278 0 l 278 813 l 0 813 l 0 969 l 735 969 "},"ΐ":{"x_min":-128.859375,"x_max":512.0625,"ha":383,"o":"m 281 712 l 281 0 l 101 0 l 101 712 l 281 712 m 512 969 l 512 841 l 366 841 l 366 969 l 512 969 m 16 969 l 16 841 l -128 841 l -128 969 l 16 969 m 124 969 l 341 969 l 179 794 l 27 794 l 124 969 "},"≈":{"x_min":67.828125,"x_max":644.3125,"ha":712,"o":"m 644 311 l 644 169 q 495 135 569 135 q 349 169 421 135 q 206 203 277 203 q 67 169 137 203 l 67 311 q 217 345 143 345 q 362 311 290 345 q 505 278 434 278 q 644 311 575 278 m 644 542 l 644 400 q 495 366 569 366 q 349 400 421 366 q 206 434 277 434 q 67 400 137 434 l 67 542 q 217 576 143 576 q 362 542 290 576 q 505 508 434 508 q 644 542 575 508 "},"ĸ":{"x_min":84.78125,"x_max":818.609375,"ha":785,"o":"m 807 712 l 502 390 l 818 0 l 590 0 l 329 342 l 329 412 l 592 712 l 807 712 m 84 0 l 84 712 l 264 712 l 264 0 l 84 0 "},"g":{"x_min":50.859375,"x_max":720.265625,"ha":805,"o":"m 540 550 q 415 567 496 567 q 228 361 228 567 q 389 162 228 162 q 540 199 466 162 l 540 550 m 720 54 q 345 -257 720 -257 q 111 -223 213 -257 l 111 -81 q 346 -115 215 -115 q 540 47 540 -115 q 368 13 460 13 q 50 360 50 13 q 420 712 50 712 q 720 682 544 712 l 720 54 "},"²":{"x_min":33.90625,"x_max":366.234375,"ha":400,"o":"m 33 481 l 33 600 q 235 807 235 717 q 174 851 235 851 q 47 813 113 851 l 47 935 q 174 969 113 969 q 366 807 366 969 q 198 600 366 701 l 366 600 l 366 481 l 33 481 "},"Ã":{"x_min":16.953125,"x_max":1042.421875,"ha":1059,"o":"m 201 0 l 16 0 l 428 969 l 621 969 l 1042 0 l 849 0 l 738 264 l 416 264 l 478 420 l 673 420 l 520 784 l 201 0 m 360 1196 q 448 1227 400 1227 q 522 1209 483 1227 q 600 1192 562 1192 q 699 1223 651 1192 l 699 1081 q 611 1049 658 1049 q 536 1067 575 1049 q 459 1085 497 1085 q 360 1053 408 1085 l 360 1196 "},"©":{"x_min":101.734375,"x_max":1108.890625,"ha":1211,"o":"m 172 487 q 595 54 172 54 q 1037 487 1037 54 q 609 915 1037 915 q 172 487 172 915 m 101 490 q 609 976 101 976 q 1108 490 1108 976 q 609 -6 1108 -6 q 101 490 101 -6 m 802 227 q 605 193 717 193 q 323 493 323 193 q 605 775 323 775 q 802 741 717 775 l 802 674 q 615 714 717 714 q 394 493 394 714 q 615 255 394 255 q 802 294 717 255 l 802 227 "},"≥":{"x_min":67.828125,"x_max":576.484375,"ha":644,"o":"m 576 142 l 576 0 l 67 0 l 67 142 l 576 142 m 67 189 l 67 339 l 391 460 l 67 576 l 67 725 l 576 508 l 576 406 l 67 189 "},"Ă":{"x_min":16.953125,"x_max":1042.421875,"ha":1059,"o":"m 201 0 l 16 0 l 428 969 l 621 969 l 1042 0 l 849 0 l 738 264 l 416 264 l 478 420 l 673 420 l 520 784 l 201 0 m 329 1227 l 448 1227 q 529 1132 448 1132 q 611 1227 611 1132 l 729 1227 q 529 1030 729 1030 q 329 1227 329 1030 "},"":{"x_min":84.78125,"x_max":1174.6875,"ha":1259,"o":"m 536 569 l 264 569 l 264 0 l 84 0 l 84 746 q 370 1005 84 1005 q 485 984 431 1005 l 485 842 q 377 862 442 862 q 264 752 264 862 l 264 712 l 536 712 l 536 745 q 890 1017 536 1017 q 1174 969 1025 1017 l 1174 -1 l 994 -1 l 994 862 q 883 874 940 874 q 716 750 716 874 l 716 710 l 875 710 l 875 568 l 716 568 l 716 -1 l 536 -1 l 536 569 "},"ÿ":{"x_min":0,"x_max":733.15625,"ha":733,"o":"m 0 712 l 190 712 l 370 199 l 545 712 l 733 712 l 437 -21 q 185 -297 358 -215 l 99 -174 q 272 -4 218 -122 l 0 712 m 558 969 l 558 841 l 413 841 l 413 969 l 558 969 m 328 969 l 328 841 l 182 841 l 182 969 l 328 969 "},"Ł":{"x_min":101.734375,"x_max":768.421875,"ha":836,"o":"m 203 347 l 101 272 l 101 428 l 203 503 l 203 969 l 383 969 l 383 635 l 548 756 l 548 600 l 383 479 l 383 155 l 768 155 l 768 0 l 203 0 l 203 347 "},"\\":{"x_min":16.953125,"x_max":701.953125,"ha":719,"o":"m 16 969 l 210 969 l 701 0 l 508 0 l 16 969 "},"∫":{"x_min":0,"x_max":399.46875,"ha":399,"o":"m 399 983 q 275 802 275 983 q 276 766 275 785 l 302 217 q 303 180 303 198 q 0 -142 303 -142 l 0 0 q 124 181 124 0 q 122 217 124 198 l 96 766 q 96 803 96 785 q 399 1125 96 1125 l 399 983 "},"Ì":{"x_min":-17.625,"x_max":296.390625,"ha":383,"o":"m 281 969 l 281 0 l 101 0 l 101 969 l 281 969 m 296 1051 l 144 1051 l -17 1227 l 198 1227 l 296 1051 "},"":{"x_min":91.5625,"x_max":722.3125,"ha":777,"o":"m 118 712 l 677 712 l 677 569 l 272 569 l 263 364 q 369 379 316 379 q 722 101 722 379 q 328 -196 722 -196 q 105 -155 206 -196 l 105 -6 q 335 -54 206 -54 q 542 94 542 -54 q 356 237 542 237 q 91 203 223 237 l 118 712 "},"ъ":{"x_min":0,"x_max":849.140625,"ha":890,"o":"m 385 712 l 385 144 l 588 144 q 668 218 668 144 q 598 270 668 270 l 478 270 l 478 413 l 605 413 q 849 212 849 413 q 599 0 849 0 l 206 0 l 206 569 l 0 569 l 0 712 l 385 712 "},"ς":{"x_min":40.6875,"x_max":646.34375,"ha":670,"o":"m 619 535 q 426 569 516 569 q 217 380 217 569 q 322 227 217 263 l 415 196 q 646 -37 646 125 q 320 -257 646 -257 l 320 -115 q 467 -40 467 -115 q 399 41 467 18 l 277 83 q 40 377 40 149 q 426 712 40 712 q 619 678 516 712 l 619 535 "},"Ē":{"x_min":101.734375,"x_max":775.203125,"ha":840,"o":"m 765 969 l 765 815 l 280 815 l 280 571 l 742 571 l 742 410 l 278 410 l 278 155 l 775 155 l 775 0 l 101 0 l 101 969 l 765 969 m 594 1227 l 594 1085 l 255 1085 l 255 1227 l 594 1227 "},"!":{"x_min":101.734375,"x_max":281.46875,"ha":383,"o":"m 281 969 l 281 250 l 101 250 l 101 969 l 281 969 m 281 166 l 281 0 l 101 0 l 101 166 l 281 166 "},"ç":{"x_min":47.46875,"x_max":610.40625,"ha":644,"o":"m 307 10 q 47 369 47 64 q 427 712 47 712 q 610 691 522 712 l 610 549 q 440 569 522 569 q 227 369 227 569 q 440 142 227 142 q 610 162 522 142 l 610 20 q 427 0 522 0 l 411 0 l 383 -52 q 528 -162 528 -52 q 344 -286 528 -286 q 198 -252 271 -286 l 198 -165 q 344 -199 271 -199 q 417 -162 417 -199 q 361 -132 417 -132 l 237 -132 l 307 10 "},"Й":{"x_min":101.734375,"x_max":905.421875,"ha":1007,"o":"m 305 1209 l 423 1209 q 505 1115 423 1115 q 586 1209 586 1115 l 705 1209 q 505 1013 705 1013 q 305 1209 305 1013 m 732 0 l 732 683 l 281 0 l 101 0 l 101 969 l 274 969 l 274 263 l 725 969 l 905 969 l 905 0 l 732 0 "},"Б":{"x_min":101.734375,"x_max":824.71875,"ha":876,"o":"m 780 969 l 780 813 l 282 813 l 282 158 l 503 158 q 644 272 644 158 q 467 400 644 400 l 394 400 l 394 556 l 473 556 q 824 280 824 556 q 515 0 824 0 l 101 0 l 101 969 l 780 969 "},"đ":{"x_min":50.859375,"x_max":715.53125,"ha":800,"o":"m 535 526 q 396 562 480 562 q 228 375 228 562 q 402 151 228 151 q 535 171 473 151 l 535 526 m 535 759 l 78 759 l 78 902 l 535 902 l 535 969 l 715 969 l 715 42 q 396 0 552 0 q 50 370 50 0 q 388 712 50 712 q 535 678 460 712 l 535 759 "},"ċ":{"x_min":47.46875,"x_max":610.40625,"ha":644,"o":"m 610 20 q 427 0 522 0 q 47 369 47 0 q 427 712 47 712 q 610 691 522 712 l 610 549 q 440 569 522 569 q 227 369 227 569 q 440 142 227 142 q 610 162 522 142 l 610 20 m 456 969 l 456 820 l 297 820 l 297 969 l 456 969 "},"Ā":{"x_min":16.953125,"x_max":1042.421875,"ha":1059,"o":"m 201 0 l 16 0 l 428 969 l 621 969 l 1042 0 l 849 0 l 738 264 l 416 264 l 478 420 l 673 420 l 520 784 l 201 0 m 699 1227 l 699 1085 l 360 1085 l 360 1227 l 699 1227 "},"ø":{"x_min":40.6875,"x_max":763,"ha":800,"o":"m 328 148 q 403 135 360 135 q 583 358 583 135 q 569 463 583 419 l 328 148 m 236 257 l 472 566 q 403 576 442 576 q 223 358 223 576 q 236 257 223 299 m 231 21 l 215 0 l 40 0 l 118 102 q 44 356 44 191 q 403 718 44 718 q 569 693 499 718 l 583 712 l 758 712 l 685 615 q 763 356 763 525 q 403 -6 763 -6 q 231 21 303 -6 "},"â":{"x_min":50.859375,"x_max":685,"ha":770,"o":"m 50 221 q 360 434 50 434 q 505 420 432 434 l 505 474 q 367 569 505 569 q 108 535 250 569 l 108 678 q 367 712 250 712 q 685 477 685 712 l 685 0 l 580 0 l 516 63 q 311 0 423 0 q 50 221 50 0 m 505 298 q 360 311 437 311 q 230 223 230 311 q 339 128 230 128 q 505 184 428 128 l 505 298 m 330 969 l 432 969 l 551 793 l 429 793 l 381 881 l 334 793 l 212 793 l 330 969 "},"}":{"x_min":33.90625,"x_max":444.234375,"ha":512,"o":"m 213 969 q 301 645 301 850 q 444 434 301 434 l 444 278 q 301 66 301 278 q 213 -257 301 -138 l 33 -257 q 122 66 122 -138 q 237 356 122 305 q 122 645 122 406 q 33 969 122 850 l 213 969 "},"ț":{"x_min":50.859375,"x_max":423.890625,"ha":461,"o":"m 84 827 l 217 827 l 244 712 l 423 712 l 423 569 l 264 569 l 264 242 q 350 142 264 142 l 423 142 l 423 0 l 263 0 q 84 191 84 0 l 84 827 m 332 -67 l 230 -257 l 50 -257 l 152 -67 l 332 -67 "},"Δ":{"x_min":16.953125,"x_max":1042.421875,"ha":1059,"o":"m 265 155 l 784 155 l 520 784 l 265 155 m 16 0 l 428 969 l 621 969 l 1042 0 l 16 0 "},"Ä":{"x_min":16.953125,"x_max":1042.421875,"ha":1059,"o":"m 201 0 l 16 0 l 428 969 l 621 969 l 1042 0 l 849 0 l 738 264 l 416 264 l 478 420 l 673 420 l 520 784 l 201 0 m 718 1227 l 718 1098 l 572 1098 l 572 1227 l 718 1227 m 487 1227 l 487 1098 l 341 1098 l 341 1227 l 487 1227 "},"‰":{"x_min":67.828125,"x_max":1445.296875,"ha":1513,"o":"m 247 0 l 67 0 l 757 969 l 937 969 l 247 0 m 196 774 q 290 674 196 674 q 381 774 381 674 q 290 858 381 858 q 196 774 196 858 m 67 773 q 290 976 67 976 q 510 773 510 976 q 290 556 510 556 q 67 773 67 556 m 1131 204 q 1225 111 1131 111 q 1316 204 1316 111 q 1225 295 1316 295 q 1131 204 1131 295 m 1003 202 q 1225 413 1003 413 q 1445 202 1445 413 q 1225 -6 1445 -6 q 1003 202 1003 -6 m 637 204 q 731 111 637 111 q 822 204 822 111 q 731 295 822 295 q 637 204 637 295 m 508 202 q 731 413 508 413 q 950 202 950 413 q 731 -6 950 -6 q 508 202 508 -6 "},"ř":{"x_min":84.78125,"x_max":444.234375,"ha":461,"o":"m 84 0 l 84 712 l 223 712 l 246 621 q 444 712 339 712 l 444 567 q 264 483 343 567 l 264 0 l 84 0 m 94 969 l 217 969 l 264 881 l 311 969 l 434 969 l 315 793 l 213 793 l 94 969 "},"N":{"x_min":101.734375,"x_max":966.46875,"ha":1068,"o":"m 101 0 l 101 969 l 281 969 l 793 263 l 793 969 l 966 969 l 966 0 l 786 0 l 274 721 l 274 0 l 101 0 "},"—":{"x_min":67.828125,"x_max":1085.15625,"ha":1153,"o":"m 1085 427 l 1085 284 l 67 284 l 67 427 l 1085 427 "},"2":{"x_min":67.828125,"x_max":732.484375,"ha":800,"o":"m 67 0 l 67 135 q 552 691 552 472 q 376 820 552 820 q 94 746 227 820 l 94 908 q 376 976 227 976 q 732 691 732 976 q 343 155 732 440 l 732 155 l 732 0 l 67 0 "},"⁄":{"x_min":67.828125,"x_max":793.515625,"ha":861,"o":"m 233 0 l 67 0 l 627 969 l 793 969 l 233 0 "},"М":{"x_min":101.734375,"x_max":1119.0625,"ha":1221,"o":"m 101 0 l 101 969 l 288 969 l 617 233 l 939 969 l 1119 969 l 1119 0 l 952 0 l 952 675 l 689 0 l 536 0 l 267 675 l 267 0 l 101 0 "},"Ó":{"x_min":67.828125,"x_max":1034.296875,"ha":1102,"o":"m 254 487 q 554 149 254 149 q 847 487 847 149 q 554 820 847 820 q 254 487 254 820 m 67 483 q 554 976 67 976 q 1034 483 1034 976 q 554 -6 1034 -6 q 67 483 89 -6 m 543 1227 l 760 1227 l 598 1051 l 446 1051 l 543 1227 "},"˜":{"x_min":67.828125,"x_max":406.9375,"ha":475,"o":"m 67 938 q 155 969 108 969 q 230 952 191 969 q 307 934 269 934 q 406 965 358 934 l 406 823 q 318 792 366 792 q 244 809 283 792 q 166 827 204 827 q 67 796 115 827 l 67 938 "},"ˇ":{"x_min":67.828125,"x_max":406.9375,"ha":475,"o":"m 67 969 l 189 969 l 237 881 l 284 969 l 406 969 l 288 793 l 186 793 l 67 969 "},"ų":{"x_min":84.78125,"x_max":725.703125,"ha":810,"o":"m 545 0 l 545 90 q 303 0 434 0 q 84 258 84 0 l 84 712 l 264 712 l 264 263 q 367 145 264 145 q 545 215 455 145 l 545 712 l 725 712 l 725 0 q 575 -134 575 -65 q 632 -180 575 -180 q 725 -166 690 -180 l 725 -275 q 624 -288 684 -288 q 447 -151 447 -288 q 545 0 447 -62 "},"Ŭ":{"x_min":101.734375,"x_max":935.953125,"ha":1038,"o":"m 101 381 l 101 969 l 281 969 l 281 381 q 518 149 281 149 q 756 381 756 149 l 756 969 l 935 969 l 935 381 q 518 -6 935 -6 q 101 381 101 -6 m 318 1227 l 437 1227 q 518 1132 437 1132 q 600 1227 600 1132 l 718 1227 q 518 1030 718 1030 q 318 1227 318 1030 "},"ĝ":{"x_min":50.859375,"x_max":720.265625,"ha":805,"o":"m 540 550 q 415 567 496 567 q 228 361 228 567 q 389 162 228 162 q 540 199 466 162 l 540 550 m 720 54 q 345 -257 720 -257 q 111 -223 213 -257 l 111 -81 q 346 -115 215 -115 q 540 47 540 -115 q 368 13 460 13 q 50 360 50 13 q 420 712 50 712 q 720 682 544 712 l 720 54 m 355 969 l 457 969 l 575 793 l 453 793 l 406 881 l 358 793 l 236 793 l 355 969 "},"Ω":{"x_min":81.390625,"x_max":1010.546875,"ha":1092,"o":"m 91 0 l 91 155 l 271 155 q 81 542 81 284 q 545 983 81 983 q 1010 542 1010 983 q 820 155 1010 284 l 1000 155 l 1000 0 l 627 0 l 627 155 q 830 542 830 284 q 545 827 830 827 q 261 542 261 827 q 464 155 261 284 l 464 0 l 91 0 "},"s":{"x_min":50.859375,"x_max":654.484375,"ha":695,"o":"m 84 33 l 84 183 q 358 135 203 135 q 474 210 474 135 q 396 281 474 281 l 267 281 q 50 495 50 281 q 367 718 50 718 q 620 678 501 718 l 620 529 q 362 576 501 576 q 217 501 217 576 q 301 430 217 430 l 417 430 q 654 217 654 430 q 352 -6 654 -6 q 84 33 203 -6 "},"?":{"x_min":67.828125,"x_max":688.390625,"ha":756,"o":"m 349 166 l 349 0 l 169 0 l 169 166 l 349 166 m 67 935 q 339 969 210 969 q 688 705 688 969 q 349 406 688 406 l 349 250 l 169 250 l 169 549 l 349 549 q 522 705 522 549 q 339 827 522 827 q 67 793 210 827 l 67 935 "},"Ņ":{"x_min":101.734375,"x_max":966.46875,"ha":1068,"o":"m 101 0 l 101 969 l 281 969 l 793 263 l 793 969 l 966 969 l 966 0 l 786 0 l 274 721 l 274 0 l 101 0 m 674 -67 l 573 -257 l 393 -257 l 495 -67 l 674 -67 "},"Ī":{"x_min":22.390625,"x_max":361.5,"ha":383,"o":"m 282 969 l 282 0 l 102 0 l 102 969 l 282 969 m 361 1227 l 361 1085 l 22 1085 l 22 1227 l 361 1227 "},"Μ":{"x_min":101.734375,"x_max":1119.0625,"ha":1221,"o":"m 101 0 l 101 969 l 288 969 l 617 233 l 939 969 l 1119 969 l 1119 0 l 952 0 l 952 675 l 689 0 l 536 0 l 267 675 l 267 0 l 101 0 "},"н":{"x_min":84.78125,"x_max":766.390625,"ha":851,"o":"m 84 0 l 84 712 l 264 712 l 264 434 l 586 434 l 586 712 l 766 712 l 766 0 l 586 0 l 586 291 l 264 291 l 264 0 l 84 0 "},"•":{"x_min":67.828125,"x_max":359.453125,"ha":427,"o":"m 67 491 q 213 637 67 637 q 359 491 359 637 q 213 345 359 345 q 67 491 67 345 "},"(":{"x_min":67.828125,"x_max":383.203125,"ha":434,"o":"m 383 969 q 247 356 247 663 q 383 -257 247 48 l 203 -257 q 67 356 67 48 q 203 969 67 663 l 383 969 "},"α":{"x_min":40.6875,"x_max":901.359375,"ha":935,"o":"m 40 356 q 373 712 40 712 q 660 533 583 712 l 720 712 l 901 712 l 780 354 l 891 0 l 708 0 l 650 196 q 373 0 564 0 q 40 356 42 0 m 220 358 q 373 142 220 142 q 579 358 505 142 q 373 569 505 569 q 220 358 220 569 "},"◊":{"x_min":33.90625,"x_max":701.953125,"ha":736,"o":"m 284 969 l 451 969 l 701 484 l 451 0 l 284 0 l 33 484 l 284 969 m 213 484 l 368 155 l 522 484 l 368 813 l 213 484 "},"Ħ":{"x_min":101.734375,"x_max":939.34375,"ha":1041,"o":"m 759 854 l 759 969 l 939 969 l 939 0 l 759 0 l 759 413 l 281 413 l 281 0 l 101 0 l 101 969 l 281 969 l 281 854 l 759 854 m 281 712 l 281 569 l 759 569 l 759 712 l 281 712 "},"м":{"x_min":84.78125,"x_max":939.34375,"ha":1024,"o":"m 84 0 l 84 712 l 278 712 l 518 225 l 746 712 l 939 712 l 939 0 l 773 0 l 773 434 l 564 0 l 465 0 l 250 434 l 250 0 l 84 0 "},"з":{"x_min":40.6875,"x_max":559.53125,"ha":600,"o":"m 40 678 q 278 718 176 718 q 559 520 559 718 q 465 362 559 416 q 559 210 559 311 q 278 -6 559 -6 q 40 33 176 -6 l 40 183 q 278 135 176 135 q 379 210 379 135 q 303 291 379 291 l 108 291 l 108 434 l 301 434 q 379 520 379 434 q 278 576 379 576 q 40 529 176 576 l 40 678 "},"Û":{"x_min":101.734375,"x_max":935.953125,"ha":1038,"o":"m 101 381 l 101 969 l 281 969 l 281 381 q 518 149 281 149 q 756 381 756 149 l 756 969 l 935 969 l 935 381 q 518 -6 935 -6 q 101 381 101 -6 m 467 1227 l 569 1227 l 688 1051 l 566 1051 l 518 1139 l 471 1051 l 349 1051 l 467 1227 "},"V":{"x_min":0,"x_max":1025.46875,"ha":1025,"o":"m 1025 969 l 600 0 l 406 0 l 0 969 l 213 969 l 514 227 l 813 969 l 1025 969 "},"Ŗ":{"x_min":101.734375,"x_max":915.59375,"ha":899,"o":"m 101 1 l 101 969 l 542 969 q 839 710 839 969 q 608 419 839 534 l 915 0 l 689 0 l 394 422 l 394 504 q 651 704 651 548 q 531 811 651 811 l 284 811 l 284 1 l 101 1 m 581 -67 l 480 -257 l 300 -257 l 402 -67 l 581 -67 "},"":{"x_min":84.78125,"x_max":1206.5625,"ha":1257,"o":"m 722 526 l 722 164 q 866 145 784 145 q 1028 375 1028 145 q 888 562 1028 562 q 722 526 797 562 m 543 864 q 431 876 489 876 q 264 752 264 876 l 264 712 l 423 712 l 423 569 l 264 569 l 264 0 l 84 0 l 84 746 q 438 1018 84 1018 q 722 971 573 1018 l 722 678 q 889 712 803 712 q 1206 370 1206 712 q 858 0 1206 0 q 543 29 712 0 l 543 864 "},"@":{"x_min":67.828125,"x_max":1376.796875,"ha":1445,"o":"m 1044 80 q 1098 40 1044 40 q 1197 366 1197 40 q 731 834 1197 834 q 247 366 247 834 q 685 -115 247 -115 l 685 -257 q 67 366 67 -257 q 721 976 67 976 q 1376 366 1376 976 q 1073 -101 1376 -101 q 876 63 883 -101 q 671 0 783 0 q 410 221 410 0 q 719 434 410 434 q 864 420 792 434 l 864 474 q 727 569 864 569 q 467 535 610 569 l 467 678 q 727 712 610 712 q 1044 477 1044 712 l 1044 80 m 864 298 q 719 311 796 311 q 590 223 590 311 q 698 128 590 128 q 864 184 788 128 l 864 298 "},"i":{"x_min":84.78125,"x_max":264.5,"ha":349,"o":"m 264 969 l 264 827 l 84 827 l 84 969 l 264 969 m 264 712 l 264 0 l 84 0 l 84 712 l 264 712 "},"ё":{"x_min":40.6875,"x_max":699.25,"ha":760,"o":"m 375 712 q 699 381 699 712 q 693 293 699 337 l 220 293 q 441 142 220 142 q 657 162 549 142 l 657 20 q 427 0 562 0 q 40 364 40 0 q 375 712 40 712 m 220 417 l 524 417 l 524 423 q 375 571 524 571 q 220 417 232 571 m 558 969 l 558 841 l 412 841 l 412 969 l 558 969 m 327 969 l 327 841 l 181 841 l 181 969 l 327 969 "},"≤":{"x_min":67.828125,"x_max":576.484375,"ha":644,"o":"m 576 142 l 576 0 l 67 0 l 67 142 l 576 142 m 67 406 l 67 508 l 576 725 l 576 576 l 252 460 l 576 339 l 576 189 l 67 406 "},"υ":{"x_min":74.609375,"x_max":746.046875,"ha":821,"o":"m 74 290 l 74 712 l 254 712 l 254 290 q 410 128 254 128 q 566 290 566 128 l 566 712 l 746 712 l 746 290 q 410 -13 746 -13 q 74 290 74 -13 "},"ĕ":{"x_min":50.859375,"x_max":709.421875,"ha":760,"o":"m 385 712 q 709 381 709 712 q 703 293 709 337 l 230 293 q 451 142 230 142 q 667 162 559 142 l 667 20 q 438 0 573 0 q 50 364 50 0 q 385 712 50 712 m 230 417 l 534 417 l 534 423 q 385 571 534 571 q 230 417 242 571 m 186 969 l 305 969 q 386 874 305 874 q 467 969 467 874 l 586 969 q 386 773 586 773 q 186 969 186 773 "},"ż":{"x_min":67.828125,"x_max":630.75,"ha":671,"o":"m 81 712 l 630 712 l 630 569 l 266 135 l 617 135 l 617 0 l 67 0 l 67 135 l 437 569 l 81 569 l 81 712 m 429 969 l 429 820 l 269 820 l 269 969 l 429 969 "},"Э":{"x_min":84.78125,"x_max":864.734375,"ha":933,"o":"m 84 196 q 342 149 210 149 q 676 413 655 149 l 133 413 l 133 569 l 676 569 q 342 820 661 820 q 84 773 210 820 l 84 935 q 356 976 210 976 q 864 498 864 976 q 356 -6 864 -6 q 84 33 210 -6 l 84 196 "},"ő":{"x_min":50.859375,"x_max":756.21875,"ha":807,"o":"m 230 358 q 403 135 230 135 q 576 358 576 135 q 403 576 576 576 q 230 358 230 576 m 50 356 q 403 714 50 714 q 756 356 756 714 q 403 -1 756 -1 q 50 356 52 -1 m 261 969 l 477 969 l 315 794 l 163 794 l 261 969 m 536 969 l 752 969 l 590 794 l 438 794 l 536 969 "},"Ŏ":{"x_min":67.828125,"x_max":1034.296875,"ha":1102,"o":"m 254 487 q 554 149 254 149 q 847 487 847 149 q 554 820 847 820 q 254 487 254 820 m 67 483 q 554 976 67 976 q 1034 483 1034 976 q 554 -6 1034 -6 q 67 483 89 -6 m 351 1227 l 470 1227 q 551 1132 470 1132 q 632 1227 632 1132 l 751 1227 q 551 1030 751 1030 q 351 1227 351 1030 "},"ю":{"x_min":84.78125,"x_max":1069.5625,"ha":1110,"o":"m 739 135 q 883 358 883 135 q 739 576 883 576 q 588 358 588 576 q 739 135 588 135 m 84 0 l 84 712 l 263 712 l 263 434 l 403 434 q 739 718 428 718 q 1069 354 1069 718 q 739 -6 1069 -6 q 402 291 421 -6 l 263 291 l 263 0 l 84 0 "},"İ":{"x_min":101.734375,"x_max":281.46875,"ha":383,"o":"m 281 969 l 281 0 l 101 0 l 101 969 l 281 969 m 271 1227 l 271 1078 l 111 1078 l 111 1227 l 271 1227 "},"Ě":{"x_min":101.734375,"x_max":775.203125,"ha":840,"o":"m 765 969 l 765 815 l 280 815 l 280 571 l 742 571 l 742 410 l 278 410 l 278 155 l 775 155 l 775 0 l 101 0 l 101 969 l 765 969 m 255 1227 l 377 1227 l 425 1139 l 472 1227 l 594 1227 l 476 1051 l 374 1051 l 255 1227 "},"Ț":{"x_min":0,"x_max":735.875,"ha":736,"o":"m 735 969 l 735 813 l 457 813 l 457 0 l 278 0 l 278 813 l 0 813 l 0 969 l 735 969 m 452 -67 l 350 -257 l 170 -257 l 272 -67 l 452 -67 "},"‹":{"x_min":33.90625,"x_max":393.375,"ha":427,"o":"m 33 356 l 208 610 l 393 610 l 218 356 l 393 101 l 208 101 l 33 356 "},"ķ":{"x_min":84.78125,"x_max":800.984375,"ha":818,"o":"m 84 0 l 84 969 l 264 969 l 264 656 q 497 712 375 712 q 769 506 769 712 q 579 273 769 357 l 800 0 l 581 0 l 395 254 l 395 337 q 590 473 590 379 q 461 569 590 569 q 264 512 370 569 l 264 0 l 84 0 m 550 -67 l 448 -257 l 268 -257 l 370 -67 l 550 -67 "},"ì":{"x_min":-34.578125,"x_max":279.4375,"ha":349,"o":"m 264 712 l 264 0 l 84 0 l 84 712 l 264 712 m 279 794 l 127 794 l -34 969 l 181 969 l 279 794 "},"±":{"x_min":67.828125,"x_max":576.484375,"ha":644,"o":"m 250 529 l 250 712 l 393 712 l 393 529 l 576 529 l 576 386 l 393 386 l 393 203 l 250 203 l 250 386 l 67 386 l 67 529 l 250 529 m 576 142 l 576 0 l 67 0 l 67 142 l 576 142 "},"|":{"x_min":101.734375,"x_max":281.46875,"ha":383,"o":"m 281 969 l 281 -257 l 101 -257 l 101 969 l 281 969 "},"§":{"x_min":67.828125,"x_max":671.4375,"ha":739,"o":"m 101 27 l 101 176 q 348 135 220 135 q 491 196 491 135 q 386 264 491 264 l 339 264 q 67 474 67 264 q 156 621 67 581 q 67 773 67 661 q 384 976 67 976 q 637 942 518 976 l 637 793 q 384 834 518 834 q 233 773 233 834 q 339 705 233 705 l 386 705 q 671 497 671 705 q 596 346 671 395 q 671 196 671 309 q 348 -6 671 -6 q 101 27 220 -6 m 233 486 q 339 405 233 405 l 386 405 q 491 477 491 405 q 386 563 491 563 l 339 563 q 233 486 233 563 "},"q":{"x_min":50.859375,"x_max":720.265625,"ha":805,"o":"m 540 550 q 421 567 476 567 q 228 361 228 567 q 396 149 228 149 q 540 185 480 149 l 540 550 m 720 -257 l 540 -257 l 540 33 q 375 0 467 0 q 50 360 50 0 q 420 712 50 712 q 720 682 558 712 l 720 -257 "},"":{"x_min":84.78125,"x_max":1658.25,"ha":1709,"o":"m 1174 526 l 1174 164 q 1317 145 1236 145 q 1480 375 1480 145 q 1340 562 1480 562 q 1174 526 1249 562 m 536 569 l 264 569 l 264 0 l 84 0 l 84 746 q 370 1005 84 1005 q 485 984 431 1005 l 485 842 q 377 862 442 862 q 264 752 264 862 l 264 712 l 536 712 l 536 745 q 890 1017 536 1017 q 1174 969 1025 1017 l 1174 678 q 1340 712 1255 712 q 1658 370 1658 712 q 1310 0 1658 0 q 994 29 1163 0 l 994 862 q 883 874 940 874 q 716 750 716 874 l 716 710 l 875 710 l 875 568 l 716 568 l 716 -1 l 536 -1 l 536 569 "},"ή":{"x_min":84.78125,"x_max":752.828125,"ha":838,"o":"m 84 0 l 84 712 l 223 712 l 246 607 q 479 712 348 712 q 752 448 752 712 l 752 -257 l 573 -257 l 573 448 q 442 567 573 567 q 264 497 347 567 l 264 0 l 84 0 m 411 969 l 628 969 l 465 794 l 314 794 l 411 969 "},"Ж":{"x_min":16.953125,"x_max":1481.234375,"ha":1498,"o":"m 16 0 q 296 442 238 386 q 406 514 354 499 q 235 683 297 540 q 101 827 174 827 l 47 827 l 47 969 l 120 969 q 392 771 308 969 q 571 573 476 573 l 571 442 q 471 394 518 442 q 243 0 425 345 l 16 0 m 838 969 l 838 0 l 659 0 l 659 969 l 838 969 m 1254 0 q 1026 394 1072 345 q 927 442 980 442 l 927 573 q 1105 771 1022 573 q 1378 969 1189 969 l 1450 969 l 1450 827 l 1397 827 q 1262 683 1323 827 q 1091 514 1201 540 q 1202 442 1144 499 q 1481 0 1260 386 l 1254 0 "},"®":{"x_min":101.734375,"x_max":687.046875,"ha":789,"o":"m 274 512 l 274 876 l 429 876 q 533 789 533 876 q 431 684 533 718 l 556 512 l 494 512 l 378 676 l 378 706 q 482 787 482 723 q 424 837 482 837 l 320 837 l 320 512 l 274 512 m 151 695 q 393 450 151 450 q 637 695 637 450 q 393 945 637 945 q 151 695 151 945 m 101 693 q 393 983 101 983 q 687 693 687 983 q 393 412 687 412 q 101 693 109 412 "},"Н":{"x_min":101.734375,"x_max":959.6875,"ha":1061,"o":"m 101 0 l 101 969 l 281 969 l 281 576 l 779 576 l 779 969 l 959 969 l 959 0 l 779 0 l 779 420 l 281 420 l 281 0 l 101 0 "},"Ε":{"x_min":101.734375,"x_max":775.203125,"ha":840,"o":"m 765 969 l 765 815 l 280 815 l 280 571 l 742 571 l 742 410 l 278 410 l 278 155 l 775 155 l 775 0 l 101 0 l 101 969 l 765 969 "},"л":{"x_min":0,"x_max":757.578125,"ha":842,"o":"m 0 142 q 160 284 160 142 l 160 712 l 757 712 l 757 0 l 577 0 l 577 569 l 340 569 l 340 284 q 0 0 340 0 l 0 142 "},"σ":{"x_min":40.6875,"x_max":859.3125,"ha":859,"o":"m 220 358 q 406 142 220 142 q 593 358 593 142 q 413 569 593 569 q 220 358 220 569 m 40 356 q 413 712 40 712 l 859 712 l 859 569 l 682 569 q 773 356 773 502 q 406 0 773 0 q 40 356 42 0 "},"θ":{"x_min":54.265625,"x_max":790.125,"ha":844,"o":"m 242 434 q 425 135 255 135 q 602 434 589 135 l 242 434 m 600 576 q 425 834 579 834 q 244 576 266 834 l 600 576 m 54 483 q 425 976 54 976 q 790 483 790 976 q 425 -6 790 -6 q 54 483 54 -6 "}," ":{"x_min":0,"x_max":0,"ha":305},"∑":{"x_min":67.828125,"x_max":847.78125,"ha":916,"o":"m 67 969 l 847 969 l 847 813 l 257 813 l 623 379 l 257 -101 l 847 -101 l 847 -257 l 67 -257 l 67 -101 l 430 379 l 67 813 l 67 969 "},"Ώ":{"x_min":-33.90625,"x_max":1121.109375,"ha":1202,"o":"m 63 969 l 280 969 l 118 794 l -33 794 l 63 969 m 202 0 l 202 155 l 381 155 q 191 542 191 284 q 656 983 191 983 q 1121 542 1121 983 q 931 155 1121 284 l 1110 155 l 1110 0 l 737 0 l 737 155 q 941 542 941 284 q 656 827 941 827 q 371 542 371 827 q 575 155 371 284 l 575 0 l 202 0 "},"+":{"x_min":67.828125,"x_max":576.484375,"ha":644,"o":"m 250 427 l 250 610 l 393 610 l 393 427 l 576 427 l 576 284 l 393 284 l 393 101 l 250 101 l 250 284 l 67 284 l 67 427 l 250 427 "},"Ë":{"x_min":101.734375,"x_max":775.203125,"ha":840,"o":"m 765 969 l 765 815 l 280 815 l 280 571 l 742 571 l 742 410 l 278 410 l 278 155 l 775 155 l 775 0 l 101 0 l 101 969 l 765 969 m 613 1227 l 613 1098 l 467 1098 l 467 1227 l 613 1227 m 382 1227 l 382 1098 l 236 1098 l 236 1227 l 382 1227 "},"Š":{"x_min":50.859375,"x_max":817.265625,"ha":868,"o":"m 84 40 l 84 203 q 414 149 230 149 q 637 298 637 149 q 500 406 637 406 l 348 406 q 50 678 50 406 q 474 976 50 976 q 783 929 637 976 l 783 766 q 474 820 637 820 q 230 678 230 820 q 348 569 230 569 l 500 569 q 817 298 817 569 q 414 -6 817 -6 q 84 40 230 -6 m 264 1227 l 386 1227 l 434 1139 l 481 1227 l 603 1227 l 484 1051 l 383 1051 l 264 1227 "},"":{"x_min":61.046875,"x_max":674.828125,"ha":753,"o":"m 61 671 q 318 712 196 712 q 674 454 674 712 q 547 267 674 328 q 674 81 674 217 q 318 -189 674 -189 q 61 -149 196 -189 l 61 0 q 318 -47 196 -47 q 495 81 495 -47 q 364 196 495 196 l 162 196 l 162 339 l 362 339 q 495 454 495 339 q 318 569 495 569 q 61 522 196 569 l 61 671 "},"ð":{"x_min":50.859375,"x_max":749.4375,"ha":800,"o":"m 569 438 q 557 542 569 503 q 398 576 496 576 q 227 366 227 576 q 399 135 227 135 q 569 438 569 135 m 600 859 q 749 440 749 729 q 398 -6 749 -6 q 50 366 50 -6 q 345 712 50 712 q 539 651 465 712 q 421 785 497 741 l 264 719 l 264 800 l 316 822 q 244 827 282 827 l 105 827 l 105 969 l 246 969 q 526 910 415 969 l 669 969 l 669 889 l 600 859 "},"щ":{"x_min":84.78125,"x_max":1224.1875,"ha":1248,"o":"m 84 0 l 84 712 l 264 712 l 264 142 l 501 142 l 501 712 l 681 712 l 681 142 l 918 142 l 918 712 l 1098 712 l 1098 142 l 1224 142 l 1224 -257 l 1044 -257 l 1044 0 l 84 0 "},"Φ":{"x_min":67.828125,"x_max":1101.4375,"ha":1169,"o":"m 495 76 q 67 483 67 101 q 495 893 67 868 l 495 969 l 674 969 l 674 893 q 1101 483 1101 870 q 674 75 1101 98 l 674 0 l 495 0 l 495 76 m 495 233 l 495 736 q 253 487 253 712 q 495 233 253 258 m 674 737 l 674 232 q 915 487 915 255 q 674 737 915 714 "},"":{"x_min":71.21875,"x_max":776.5625,"ha":848,"o":"m 71 260 q 242 478 71 418 q 98 683 98 535 q 423 911 98 911 q 749 683 749 911 q 602 478 749 535 q 776 260 776 418 q 423 -6 776 -6 q 71 260 71 -6 m 427 542 q 569 663 569 542 q 418 766 569 766 q 278 663 278 766 q 427 542 278 542 m 427 135 q 596 269 596 135 q 418 400 596 400 q 250 269 250 400 q 427 135 250 135 "},"ş":{"x_min":50.859375,"x_max":654.484375,"ha":695,"o":"m 282 -4 q 84 33 174 2 l 84 183 q 358 135 203 135 q 474 210 474 135 q 396 281 474 281 l 267 281 q 50 495 50 281 q 367 718 50 718 q 620 678 501 718 l 620 529 q 362 576 501 576 q 217 501 217 576 q 301 430 217 430 l 417 430 q 654 217 654 430 q 390 -6 654 8 l 366 -52 q 511 -162 511 -52 q 327 -286 511 -286 q 181 -252 254 -286 l 181 -165 q 327 -199 254 -199 q 400 -162 400 -199 q 344 -132 400 -132 l 220 -132 l 282 -4 "},"ı":{"x_min":84.78125,"x_max":264.5,"ha":349,"o":"m 264 712 l 264 0 l 84 0 l 84 712 l 264 712 "},"ä":{"x_min":50.859375,"x_max":685,"ha":770,"o":"m 50 221 q 360 434 50 434 q 505 420 432 434 l 505 474 q 367 569 505 569 q 108 535 250 569 l 108 678 q 367 712 250 712 q 685 477 685 712 l 685 0 l 580 0 l 516 63 q 311 0 423 0 q 50 221 50 0 m 505 298 q 360 311 437 311 q 230 223 230 311 q 339 128 230 128 q 505 184 428 128 l 505 298 m 569 969 l 569 841 l 423 841 l 423 969 l 569 969 m 339 969 l 339 841 l 193 841 l 193 969 l 339 969 "},"¹":{"x_min":33.90625,"x_max":215.671875,"ha":222,"o":"m 85 481 l 85 828 l 33 828 l 33 892 l 215 967 l 215 481 l 85 481 "},"W":{"x_min":23.734375,"x_max":1258.109375,"ha":1282,"o":"m 23 969 l 206 969 l 309 273 l 562 969 l 735 969 l 971 300 l 1081 969 l 1258 969 l 1075 0 l 904 0 l 638 760 l 352 0 l 183 0 l 23 969 "},"λ":{"x_min":0,"x_max":733.15625,"ha":733,"o":"m 272 716 q 99 886 218 834 l 185 1009 q 437 733 358 927 l 733 0 l 539 0 l 356 512 l 183 0 l 0 0 l 272 716 "},">":{"x_min":67.828125,"x_max":678.21875,"ha":746,"o":"m 67 33 l 67 203 l 456 353 l 67 508 l 67 678 l 678 420 l 678 291 l 67 33 "},"τ":{"x_min":0,"x_max":524.9375,"ha":559,"o":"m 0 712 l 524 712 l 524 569 l 338 569 l 338 250 q 467 141 338 141 q 491 142 478 141 l 491 0 q 431 -2 459 -2 q 158 250 158 -2 l 158 569 l 0 569 l 0 712 "},"":{"x_min":40.6875,"x_max":763,"ha":790,"o":"m 662 -189 l 482 -189 l 482 19 l 40 19 l 40 162 l 383 711 l 582 711 l 225 162 l 482 162 l 482 445 l 662 445 l 662 162 l 763 110 l 763 19 l 662 19 l 662 -189 "},"Ų":{"x_min":101.734375,"x_max":935.953125,"ha":1038,"o":"m 445 -3 q 101 381 101 29 l 101 969 l 281 969 l 281 381 q 518 149 281 149 q 756 381 756 149 l 756 969 l 935 969 l 935 381 q 615 0 935 41 q 482 -134 482 -68 q 540 -180 482 -180 q 633 -166 598 -180 l 633 -275 q 532 -288 592 -288 q 355 -151 355 -288 q 445 -3 355 -65 "},"Ŵ":{"x_min":23.734375,"x_max":1258.109375,"ha":1282,"o":"m 23 969 l 206 969 l 309 273 l 562 969 l 735 969 l 971 300 l 1081 969 l 1258 969 l 1075 0 l 904 0 l 638 760 l 352 0 l 183 0 l 23 969 m 590 1227 l 691 1227 l 810 1051 l 688 1051 l 640 1139 l 593 1051 l 471 1051 l 590 1227 "},"Ð":{"x_min":-33.90625,"x_max":935.953125,"ha":987,"o":"m 101 569 l 101 969 l 454 969 q 935 511 935 969 q 454 0 935 0 l 101 0 l 101 413 l -33 413 l -33 569 l 101 569 m 281 569 l 474 569 l 474 413 l 281 413 l 281 155 l 454 155 q 756 511 756 155 q 454 813 756 813 l 281 813 l 281 569 "},"Λ":{"x_min":16.953125,"x_max":1042.421875,"ha":1059,"o":"m 520 784 l 201 0 l 16 0 l 428 969 l 621 969 l 1042 0 l 849 0 l 520 784 "},"·":{"x_min":67.828125,"x_max":247.546875,"ha":315,"o":"m 247 712 l 247 545 l 67 545 l 67 712 l 247 712 "},"Х":{"x_min":16.953125,"x_max":1007.15625,"ha":1019,"o":"m 398 484 l 16 969 l 244 969 l 512 615 l 779 969 l 1007 969 l 626 484 l 1007 0 l 779 0 l 512 354 l 244 0 l 16 0 l 398 484 "},"Υ":{"x_min":16.953125,"x_max":925.78125,"ha":882,"o":"m 16 969 l 210 969 l 482 502 l 739 969 l 925 969 l 569 339 l 569 0 l 389 0 l 389 339 l 16 969 "},"r":{"x_min":84.78125,"x_max":444.234375,"ha":461,"o":"m 84 0 l 84 712 l 223 712 l 246 621 q 444 712 339 712 l 444 567 q 264 483 343 567 l 264 0 l 84 0 "},"ж":{"x_min":16.953125,"x_max":1258.109375,"ha":1275,"o":"m 16 0 l 129 179 q 328 371 241 357 q 222 486 263 404 q 114 569 181 569 l 61 569 l 61 715 l 133 715 q 343 576 288 715 q 476 438 399 438 l 476 314 q 322 166 423 314 l 223 0 l 16 0 m 726 716 l 726 0 l 546 0 l 546 716 l 726 716 m 1051 0 l 952 166 q 798 314 851 314 l 798 438 q 931 576 875 438 q 1141 715 986 715 l 1214 715 l 1214 569 l 1160 569 q 1052 486 1093 569 q 946 371 1011 404 q 1145 179 1033 357 l 1258 0 l 1051 0 "},"Ø":{"x_min":67.828125,"x_max":1034.296875,"ha":1102,"o":"m 403 179 q 554 149 465 149 q 847 487 847 149 q 800 701 847 621 l 403 179 m 301 274 l 695 794 q 554 820 636 820 q 254 487 254 820 q 301 274 254 354 m 301 44 l 267 0 l 93 0 l 189 126 q 67 483 78 249 q 554 976 67 976 q 799 931 698 976 l 828 969 l 1003 969 l 914 853 q 1034 483 1034 729 q 554 -6 1034 -6 q 301 44 404 -6 "},"÷":{"x_min":67.828125,"x_max":600.234375,"ha":668,"o":"m 600 427 l 600 284 l 67 284 l 67 427 l 600 427 m 410 230 l 410 101 l 257 101 l 257 230 l 410 230 m 410 610 l 410 481 l 257 481 l 257 610 l 410 610 "},"с":{"x_min":47.46875,"x_max":610.40625,"ha":644,"o":"m 610 20 q 427 0 522 0 q 47 369 47 0 q 427 712 47 712 q 610 691 522 712 l 610 549 q 440 569 522 569 q 227 369 227 569 q 440 142 227 142 q 610 162 522 142 l 610 20 "},"h":{"x_min":84.78125,"x_max":732.484375,"ha":817,"o":"m 84 0 l 84 969 l 264 969 l 264 621 q 479 712 348 712 q 732 448 732 712 l 732 0 l 552 0 l 552 448 q 435 567 552 567 q 264 497 347 567 l 264 0 l 84 0 "},"f":{"x_min":84.78125,"x_max":563.609375,"ha":503,"o":"m 84 0 l 84 712 q 404 1005 84 1005 q 563 978 492 1005 l 563 835 q 417 862 496 862 q 264 712 264 862 l 478 712 l 478 569 l 264 569 l 264 0 l 84 0 "},"“":{"x_min":33.90625,"x_max":593.4375,"ha":627,"o":"m 593 969 l 491 674 l 325 674 l 427 969 l 593 969 m 301 969 l 200 674 l 33 674 l 135 969 l 301 969 "},"A":{"x_min":16.953125,"x_max":1042.421875,"ha":1059,"o":"m 201 0 l 16 0 l 428 969 l 621 969 l 1042 0 l 849 0 l 738 264 l 416 264 l 478 420 l 673 420 l 520 784 l 201 0 "},"O":{"x_min":67.828125,"x_max":1034.296875,"ha":1102,"o":"m 254 487 q 554 149 254 149 q 847 487 847 149 q 554 820 847 820 q 254 487 254 820 m 67 483 q 554 976 67 976 q 1034 483 1034 976 q 554 -6 1034 -6 q 67 483 89 -6 "},"Đ":{"x_min":-33.90625,"x_max":935.953125,"ha":987,"o":"m 101 569 l 101 969 l 454 969 q 935 511 935 969 q 454 0 935 0 l 101 0 l 101 413 l -33 413 l -33 569 l 101 569 m 281 569 l 474 569 l 474 413 l 281 413 l 281 155 l 454 155 q 756 511 756 155 q 454 813 756 813 l 281 813 l 281 569 "},"3":{"x_min":67.828125,"x_max":715.53125,"ha":756,"o":"m 67 935 q 352 976 203 976 q 715 712 715 976 q 588 491 715 552 q 715 271 715 434 q 352 -6 715 -6 q 67 33 203 -6 l 67 196 q 352 149 203 149 q 535 271 535 149 q 405 413 535 413 l 169 413 l 169 569 l 403 569 q 535 712 535 569 q 352 820 535 820 q 67 773 203 820 l 67 935 "},"4":{"x_min":40.6875,"x_max":810.46875,"ha":827,"o":"m 710 0 l 530 0 l 530 210 l 40 210 l 40 345 l 437 969 l 630 969 l 246 352 l 530 352 l 530 676 l 710 676 l 710 352 l 810 260 l 810 210 l 710 210 l 710 0 "},"Ť":{"x_min":0,"x_max":735.875,"ha":736,"o":"m 735 969 l 735 813 l 457 813 l 457 0 l 278 0 l 278 813 l 0 813 l 0 969 l 735 969 m 198 1227 l 320 1227 l 368 1139 l 415 1227 l 537 1227 l 419 1051 l 317 1051 l 198 1227 "},"ψ":{"x_min":67.828125,"x_max":1037.6875,"ha":1106,"o":"m 462 134 l 462 712 l 642 712 l 642 134 q 857 364 857 166 l 857 712 l 1037 712 l 1037 364 q 642 -10 1037 23 l 642 -257 l 462 -257 l 462 -10 q 67 364 67 23 l 67 712 l 247 712 l 247 364 q 462 134 247 166 "},"ŗ":{"x_min":-18.3125,"x_max":444.234375,"ha":461,"o":"m 84 0 l 84 712 l 223 712 l 246 621 q 444 712 339 712 l 444 567 q 264 483 343 567 l 264 0 l 84 0 m 263 -67 l 161 -257 l -18 -257 l 83 -67 l 263 -67 "}}}
